<svg width="250" height="140" viewBox="0 0 250 140" fill="none" xmlns="http://www.w3.org/2000/svg">
<g clip-path="url(#clip0)">
<path fill-rule="evenodd" clip-rule="evenodd" d="M125.708 45.4902C126.979 45.4902 128.01 46.5277 128.01 47.8075C128.01 49.0873 126.979 50.1247 125.708 50.1247C124.437 50.1247 123.406 49.0873 123.406 47.8075C123.406 46.5277 124.437 45.4902 125.708 45.4902ZM129.545 66.3463C129.545 65.0665 128.514 64.029 127.243 64.029C125.972 64.029 124.941 65.0665 124.941 66.3463C124.941 67.6261 125.972 68.6636 127.243 68.6636C128.514 68.6636 129.545 67.6261 129.545 66.3463ZM139.518 71.7529C139.518 70.4731 138.488 69.4356 137.217 69.4356C135.946 69.4356 134.915 70.4731 134.915 71.7529C134.915 73.0327 135.946 74.0702 137.217 74.0702C138.488 74.0702 139.518 73.0327 139.518 71.7529ZM138.752 57.0769C138.752 55.7971 137.721 54.7596 136.45 54.7596C135.179 54.7596 134.148 55.7971 134.148 57.0769C134.148 58.3567 135.179 59.3942 136.45 59.3942C137.721 59.3942 138.752 58.3567 138.752 57.0769ZM151.795 34.676C153.066 34.676 154.097 35.7135 154.097 36.9933C154.097 38.2731 153.066 39.3106 151.795 39.3106C150.524 39.3106 149.493 38.2731 149.493 36.9933C149.493 35.7135 150.524 34.676 151.795 34.676ZM135.683 30.042C135.683 28.7622 134.652 27.7247 133.381 27.7247C132.11 27.7247 131.079 28.7622 131.079 30.042C131.079 31.3218 132.11 32.3593 133.381 32.3593C134.652 32.3593 135.683 31.3218 135.683 30.042ZM136.45 39.3112C137.721 39.3112 138.752 40.3487 138.752 41.6285C138.752 42.9083 137.721 43.9458 136.45 43.9458C135.179 43.9458 134.148 42.9083 134.148 41.6285C134.148 40.3487 135.179 39.3112 136.45 39.3112ZM151.027 22.3173C151.027 21.0375 149.997 20 148.726 20C147.454 20 146.424 21.0375 146.424 22.3173C146.424 23.5971 147.454 24.6346 148.726 24.6346C149.997 24.6346 151.027 23.5971 151.027 22.3173ZM154.863 89.5192C156.134 89.5192 157.165 90.5567 157.165 91.8365C157.165 93.1163 156.134 94.1537 154.863 94.1537C153.592 94.1537 152.562 93.1163 152.562 91.8365C152.562 90.5567 153.592 89.5192 154.863 89.5192ZM161.002 78.7052C161.002 77.4254 159.971 76.3879 158.7 76.3879C157.429 76.3879 156.398 77.4254 156.398 78.7052C156.398 79.985 157.429 81.0225 158.7 81.0225C159.971 81.0225 161.002 79.985 161.002 78.7052ZM144.122 78.705C145.393 78.705 146.424 79.7425 146.424 81.0223C146.424 82.3021 145.393 83.3396 144.122 83.3396C142.851 83.3396 141.82 82.3021 141.82 81.0223C141.82 79.7425 142.851 78.705 144.122 78.705ZM133.381 82.567C133.381 81.2872 132.35 80.2498 131.079 80.2498C129.808 80.2498 128.777 81.2872 128.777 82.567C128.777 83.8468 129.808 84.8843 131.079 84.8843C132.35 84.8843 133.381 83.8468 133.381 82.567ZM140.286 87.9744C141.557 87.9744 142.588 89.0119 142.588 90.2917C142.588 91.5715 141.557 92.609 140.286 92.609C139.015 92.609 137.984 91.5715 137.984 90.2917C137.984 89.0119 139.015 87.9744 140.286 87.9744ZM131.846 96.4702C131.846 95.1904 130.816 94.1529 129.544 94.1529C128.273 94.1529 127.243 95.1904 127.243 96.4702C127.243 97.75 128.273 98.7875 129.544 98.7875C130.816 98.7875 131.846 97.75 131.846 96.4702ZM149.493 65.5738C150.764 65.5738 151.795 66.6112 151.795 67.891C151.795 69.1708 150.764 70.2083 149.493 70.2083C148.222 70.2083 147.191 69.1708 147.191 67.891C147.191 66.6112 148.222 65.5738 149.493 65.5738ZM151.027 51.6703C151.027 50.3905 149.997 49.353 148.726 49.353C147.454 49.353 146.424 50.3905 146.424 51.6703C146.424 52.9501 147.454 53.9876 148.726 53.9876C149.997 53.9876 151.027 52.9501 151.027 51.6703ZM161.002 57.8491C162.273 57.8491 163.304 58.8866 163.304 60.1664C163.304 61.4462 162.273 62.4836 161.002 62.4836C159.731 62.4836 158.7 61.4462 158.7 60.1664C158.7 58.8866 159.731 57.8491 161.002 57.8491ZM170.974 71.7529C170.974 70.4731 169.944 69.4356 168.673 69.4356C167.402 69.4356 166.371 70.4731 166.371 71.7529C166.371 73.0327 167.402 74.0702 168.673 74.0702C169.944 74.0702 170.974 73.0327 170.974 71.7529ZM181.717 79.4774C182.988 79.4774 184.018 80.5149 184.018 81.7947C184.018 83.0745 182.988 84.112 181.717 84.112C180.446 84.112 179.415 83.0745 179.415 81.7947C179.415 80.5149 180.446 79.4774 181.717 79.4774ZM198.596 84.8842C198.596 83.6044 197.565 82.5669 196.294 82.5669C195.023 82.5669 193.992 83.6044 193.992 84.8842C193.992 86.164 195.023 87.2014 196.294 87.2014C197.565 87.2014 198.596 86.164 198.596 84.8842ZM213.94 81.7945C215.212 81.7945 216.242 82.832 216.242 84.1118C216.242 85.3916 215.212 86.4291 213.94 86.4291C212.669 86.4291 211.639 85.3916 211.639 84.1118C211.639 82.832 212.669 81.7945 213.94 81.7945ZM243.862 57.0769C243.862 55.7971 242.832 54.7596 241.56 54.7596C240.289 54.7596 239.259 55.7971 239.259 57.0769C239.259 58.3567 240.289 59.3942 241.56 59.3942C242.832 59.3942 243.862 58.3567 243.862 57.0769ZM199.363 69.4356C200.634 69.4356 201.665 70.4731 201.665 71.7529C201.665 73.0327 200.634 74.0702 199.363 74.0702C198.092 74.0702 197.062 73.0327 197.062 71.7529C197.062 70.4731 198.092 69.4356 199.363 69.4356ZM189.39 69.4358C189.39 68.156 188.359 67.1185 187.088 67.1185C185.817 67.1185 184.786 68.156 184.786 69.4358C184.786 70.7156 185.817 71.7531 187.088 71.7531C188.359 71.7531 189.39 70.7156 189.39 69.4358ZM177.881 62.4843C179.152 62.4843 180.183 63.5218 180.183 64.8016C180.183 66.0814 179.152 67.1188 177.881 67.1188C176.61 67.1188 175.579 66.0814 175.579 64.8016C175.579 63.5218 176.61 62.4843 177.881 62.4843ZM181.717 51.6703C181.717 50.3905 180.686 49.353 179.415 49.353C178.144 49.353 177.113 50.3905 177.113 51.6703C177.113 52.9501 178.144 53.9876 179.415 53.9876C180.686 53.9876 181.717 52.9501 181.717 51.6703ZM163.303 47.0349C164.574 47.0349 165.604 48.0724 165.604 49.3522C165.604 50.632 164.574 51.6695 163.303 51.6695C162.031 51.6695 161.001 50.632 161.001 49.3522C161.001 48.0724 162.031 47.0349 163.303 47.0349ZM173.276 36.9933C173.276 35.7135 172.246 34.676 170.975 34.676C169.703 34.676 168.673 35.7135 168.673 36.9933C168.673 38.2731 169.703 39.3106 170.975 39.3106C172.246 39.3106 173.276 38.2731 173.276 36.9933ZM161.002 27.7247C162.273 27.7247 163.304 28.7622 163.304 30.042C163.304 31.3218 162.273 32.3593 161.002 32.3593C159.731 32.3593 158.7 31.3218 158.7 30.042C158.7 28.7622 159.731 27.7247 161.002 27.7247ZM184.018 40.0838C184.018 38.804 182.988 37.7665 181.717 37.7665C180.446 37.7665 179.415 38.804 179.415 40.0838C179.415 41.3636 180.446 42.4011 181.717 42.4011C182.988 42.4011 184.018 41.3636 184.018 40.0838ZM193.992 32.3589C195.263 32.3589 196.294 33.3964 196.294 34.6762C196.294 35.956 195.263 36.9935 193.992 36.9935C192.721 36.9935 191.69 35.956 191.69 34.6762C191.69 33.3964 192.721 32.3589 193.992 32.3589ZM186.319 30.042C186.319 28.7622 185.289 27.7247 184.018 27.7247C182.746 27.7247 181.716 28.7622 181.716 30.042C181.716 31.3218 182.746 32.3593 184.018 32.3593C185.289 32.3593 186.319 31.3218 186.319 30.042ZM160.234 39.3112C161.506 39.3112 162.536 40.3487 162.536 41.6285C162.536 42.9083 161.506 43.9458 160.234 43.9458C158.963 43.9458 157.933 42.9083 157.933 41.6285C157.933 40.3487 158.963 39.3112 160.234 39.3112ZM195.526 60.9387C195.526 59.6589 194.496 58.6214 193.225 58.6214C191.953 58.6214 190.923 59.6589 190.923 60.9387C190.923 62.2185 191.953 63.256 193.225 63.256C194.496 63.256 195.526 62.2185 195.526 60.9387ZM190.156 45.4902C191.427 45.4902 192.458 46.5277 192.458 47.8075C192.458 49.0873 191.427 50.1247 190.156 50.1247C188.885 50.1247 187.854 49.0873 187.854 47.8075C187.854 46.5277 188.885 45.4902 190.156 45.4902ZM207.035 55.5321C207.035 54.2523 206.005 53.2149 204.733 53.2149C203.462 53.2149 202.432 54.2523 202.432 55.5321C202.432 56.8119 203.462 57.8494 204.733 57.8494C206.005 57.8494 207.035 56.8119 207.035 55.5321ZM220.846 37.7665C222.117 37.7665 223.147 38.804 223.147 40.0838C223.147 41.3636 222.117 42.4011 220.846 42.4011C219.574 42.4011 218.544 41.3636 218.544 40.0838C218.544 38.804 219.574 37.7665 220.846 37.7665ZM233.889 31.5867C233.889 30.3069 232.858 29.2694 231.587 29.2694C230.316 29.2694 229.285 30.3069 229.285 31.5867C229.285 32.8665 230.316 33.904 231.587 33.904C232.858 33.904 233.889 32.8665 233.889 31.5867ZM203.199 40.856C204.47 40.856 205.501 41.8934 205.501 43.1732C205.501 44.453 204.47 45.4905 203.199 45.4905C201.928 45.4905 200.897 44.453 200.897 43.1732C200.897 41.8934 201.928 40.856 203.199 40.856ZM212.405 33.9038C212.405 32.624 211.375 31.5866 210.103 31.5866C208.832 31.5866 207.802 32.624 207.802 33.9038C207.802 35.1836 208.832 36.2211 210.103 36.2211C211.375 36.2211 212.405 35.1836 212.405 33.9038ZM217.01 67.8909C218.281 67.8909 219.311 68.9284 219.311 70.2082C219.311 71.488 218.281 72.5254 217.01 72.5254C215.739 72.5254 214.708 71.488 214.708 70.2082C214.708 68.9284 215.739 67.8909 217.01 67.8909ZM229.285 62.4835C229.285 61.2037 228.255 60.1662 226.983 60.1662C225.712 60.1662 224.682 61.2037 224.682 62.4835C224.682 63.7633 225.712 64.8008 226.983 64.8007C228.255 64.8007 229.285 63.7633 229.285 62.4835ZM217.01 49.353C218.281 49.353 219.311 50.3905 219.311 51.6703C219.311 52.9501 218.281 53.9876 217.01 53.9876C215.739 53.9876 214.708 52.9501 214.708 51.6703C214.708 50.3905 215.739 49.353 217.01 49.353ZM233.121 50.8979C233.121 49.6181 232.09 48.5806 230.819 48.5806C229.548 48.5806 228.518 49.6181 228.518 50.8979C228.518 52.1777 229.548 53.2152 230.819 53.2152C232.09 53.2152 233.121 52.1777 233.121 50.8979ZM238.492 39.3112C239.763 39.3112 240.794 40.3487 240.794 41.6285C240.794 42.9083 239.763 43.9458 238.492 43.9458C237.221 43.9458 236.19 42.9083 236.19 41.6285C236.19 40.3487 237.221 39.3112 238.492 39.3112ZM250 50.1246C250 48.8448 248.969 47.8073 247.698 47.8073C246.427 47.8073 245.396 48.8448 245.396 50.1246C245.396 51.4044 246.427 52.4419 247.698 52.4419C248.969 52.4419 250 51.4044 250 50.1246Z" fill="#121426"/>
<path fill-rule="evenodd" clip-rule="evenodd" d="M124.291 66.7014C123.02 66.7014 121.989 67.7389 121.989 69.0187C121.989 70.2985 123.02 71.3359 124.291 71.3359C125.562 71.3359 126.593 70.2985 126.593 69.0187C126.593 67.7389 125.562 66.7014 124.291 66.7014ZM120.455 87.5575C120.455 86.2777 121.486 85.2402 122.757 85.2402C124.028 85.2402 125.059 86.2777 125.059 87.5575C125.059 88.8373 124.028 89.8748 122.757 89.8748C121.486 89.8748 120.455 88.8373 120.455 87.5575ZM110.481 92.9641C110.481 91.6843 111.511 90.6468 112.782 90.6468C114.053 90.6468 115.084 91.6843 115.084 92.9641C115.084 94.2439 114.053 95.2814 112.782 95.2814C111.511 95.2814 110.481 94.2439 110.481 92.9641ZM111.248 78.2881C111.248 77.0083 112.279 75.9708 113.55 75.9708C114.821 75.9708 115.852 77.0083 115.852 78.2881C115.852 79.5679 114.821 80.6054 113.55 80.6054C112.279 80.6054 111.248 79.5679 111.248 78.2881ZM98.2051 55.8872C96.9339 55.8872 95.9034 56.9247 95.9034 58.2045C95.9034 59.4843 96.9339 60.5218 98.2051 60.5218C99.4763 60.5218 100.507 59.4843 100.507 58.2045C100.507 56.9247 99.4763 55.8872 98.2051 55.8872ZM114.317 51.2532C114.317 49.9734 115.347 48.9359 116.618 48.9359C117.889 48.9359 118.92 49.9734 118.92 51.2532C118.92 52.533 117.889 53.5705 116.618 53.5705C115.347 53.5705 114.317 52.533 114.317 51.2532ZM113.55 60.5224C112.279 60.5224 111.248 61.5599 111.248 62.8397C111.248 64.1195 112.279 65.157 113.55 65.157C114.821 65.157 115.852 64.1195 115.852 62.8397C115.852 61.5599 114.821 60.5224 113.55 60.5224ZM98.9728 43.5285C98.9728 42.2487 100.003 41.2112 101.274 41.2112C102.546 41.2112 103.576 42.2487 103.576 43.5285C103.576 44.8083 102.546 45.8458 101.274 45.8458C100.003 45.8458 98.9728 44.8083 98.9728 43.5285ZM95.1368 110.73C93.8656 110.73 92.8351 111.768 92.8351 113.048C92.8351 114.327 93.8656 115.365 95.1368 115.365C96.408 115.365 97.4385 114.327 97.4385 113.048C97.4385 111.768 96.408 110.73 95.1368 110.73ZM88.9982 99.9164C88.9982 98.6366 90.0287 97.5991 91.2999 97.5991C92.5711 97.5991 93.6016 98.6366 93.6016 99.9164C93.6016 101.196 92.5711 102.234 91.2999 102.234C90.0287 102.234 88.9982 101.196 88.9982 99.9164ZM105.878 99.9162C104.607 99.9162 103.576 100.954 103.576 102.234C103.576 103.513 104.607 104.551 105.878 104.551C107.149 104.551 108.18 103.513 108.18 102.234C108.18 100.954 107.149 99.9162 105.878 99.9162ZM116.619 103.778C116.619 102.498 117.65 101.461 118.921 101.461C120.192 101.461 121.223 102.498 121.223 103.778C121.223 105.058 120.192 106.096 118.921 106.096C117.65 106.096 116.619 105.058 116.619 103.778ZM109.714 109.186C108.443 109.186 107.412 110.223 107.412 111.503C107.412 112.783 108.443 113.82 109.714 113.82C110.985 113.82 112.016 112.783 112.016 111.503C112.016 110.223 110.985 109.186 109.714 109.186ZM118.154 117.682C118.154 116.402 119.184 115.365 120.455 115.365C121.727 115.365 122.757 116.402 122.757 117.682C122.757 118.962 121.727 120 120.455 120C119.184 120 118.154 118.962 118.154 117.682ZM100.507 86.785C99.2357 86.785 98.2052 87.8224 98.2052 89.1022C98.2052 90.382 99.2357 91.4195 100.507 91.4195C101.778 91.4195 102.809 90.382 102.809 89.1022C102.809 87.8224 101.778 86.785 100.507 86.785ZM98.9728 72.8815C98.9728 71.6017 100.003 70.5642 101.274 70.5642C102.546 70.5642 103.576 71.6017 103.576 72.8815C103.576 74.1613 102.546 75.1988 101.274 75.1988C100.003 75.1988 98.9728 74.1613 98.9728 72.8815ZM88.9981 79.0603C87.7269 79.0603 86.6964 80.0978 86.6964 81.3776C86.6964 82.6574 87.7269 83.6948 88.9981 83.6948C90.2693 83.6948 91.2998 82.6574 91.2998 81.3776C91.2998 80.0978 90.2693 79.0603 88.9981 79.0603ZM79.0245 92.9641C79.0245 91.6843 80.055 90.6468 81.3262 90.6468C82.5974 90.6468 83.6279 91.6843 83.6279 92.9641C83.6279 94.2439 82.5974 95.2814 81.3262 95.2814C80.055 95.2814 79.0245 94.2439 79.0245 92.9641ZM68.2833 100.689C67.0121 100.689 65.9816 101.726 65.9816 103.006C65.9816 104.286 67.0121 105.323 68.2833 105.323C69.5545 105.323 70.585 104.286 70.585 103.006C70.585 101.726 69.5545 100.689 68.2833 100.689ZM51.4044 106.095C51.4044 104.816 52.4349 103.778 53.7061 103.778C54.9773 103.778 56.0078 104.816 56.0078 106.095C56.0078 107.375 54.9773 108.413 53.7061 108.413C52.4349 108.413 51.4044 107.375 51.4044 106.095ZM36.0586 103.006C34.7875 103.006 33.7569 104.043 33.7569 105.323C33.7569 106.603 34.7875 107.64 36.0586 107.64C37.3298 107.64 38.3604 106.603 38.3604 105.323C38.3604 104.043 37.3298 103.006 36.0586 103.006ZM6.13683 78.2881C6.13683 77.0083 7.16734 75.9708 8.43853 75.9708C9.70973 75.9708 10.7402 77.0083 10.7402 78.2881C10.7402 79.5679 9.70973 80.6054 8.43853 80.6054C7.16734 80.6054 6.13683 79.5679 6.13683 78.2881ZM50.6368 90.6468C49.3656 90.6468 48.3351 91.6843 48.3351 92.9641C48.3351 94.2439 49.3656 95.2814 50.6368 95.2814C51.908 95.2814 52.9385 94.2439 52.9385 92.9641C52.9385 91.6843 51.908 90.6468 50.6368 90.6468ZM60.6105 90.647C60.6105 89.3672 61.641 88.3297 62.9122 88.3297C64.1834 88.3297 65.2139 89.3672 65.2139 90.647C65.2139 91.9268 64.1834 92.9643 62.9122 92.9643C61.641 92.9643 60.6105 91.9268 60.6105 90.647ZM72.1192 83.6955C70.848 83.6955 69.8175 84.733 69.8175 86.0128C69.8175 87.2926 70.848 88.33 72.1192 88.33C73.3904 88.33 74.4209 87.2926 74.4209 86.0128C74.4209 84.733 73.3904 83.6955 72.1192 83.6955ZM68.2833 72.8815C68.2833 71.6017 69.3138 70.5642 70.585 70.5642C71.8562 70.5642 72.8867 71.6017 72.8867 72.8815C72.8867 74.1613 71.8562 75.1988 70.585 75.1988C69.3138 75.1988 68.2833 74.1613 68.2833 72.8815ZM86.6963 68.2461C85.4252 68.2461 84.3946 69.2836 84.3946 70.5634C84.3946 71.8432 85.4252 72.8807 86.6963 72.8807C87.9675 72.8807 88.998 71.8432 88.998 70.5634C88.998 69.2836 87.9675 68.2461 86.6963 68.2461ZM76.7228 58.2045C76.7228 56.9247 77.7533 55.8872 79.0245 55.8872C80.2957 55.8872 81.3262 56.9247 81.3262 58.2045C81.3262 59.4843 80.2957 60.5218 79.0245 60.5218C77.7533 60.5218 76.7228 59.4843 76.7228 58.2045ZM88.9981 48.9359C87.7269 48.9359 86.6964 49.9734 86.6964 51.2532C86.6964 52.533 87.7269 53.5705 88.9981 53.5705C90.2693 53.5705 91.2998 52.533 91.2998 51.2532C91.2998 49.9734 90.2693 48.9359 88.9981 48.9359ZM65.9816 61.295C65.9816 60.0152 67.0121 58.9777 68.2833 58.9777C69.5545 58.9777 70.585 60.0152 70.585 61.295C70.585 62.5748 69.5545 63.6122 68.2833 63.6122C67.0121 63.6122 65.9816 62.5748 65.9816 61.295ZM56.0079 53.5701C54.7367 53.5701 53.7062 54.6076 53.7062 55.8874C53.7062 57.1672 54.7367 58.2047 56.0079 58.2047C57.2791 58.2047 58.3096 57.1672 58.3096 55.8874C58.3096 54.6076 57.2791 53.5701 56.0079 53.5701ZM63.6798 51.2532C63.6798 49.9734 64.7103 48.9359 65.9815 48.9359C67.2527 48.9359 68.2832 49.9734 68.2832 51.2532C68.2832 52.533 67.2527 53.5705 65.9815 53.5705C64.7103 53.5705 63.6798 52.533 63.6798 51.2532ZM89.7657 60.5224C88.4945 60.5224 87.464 61.5599 87.464 62.8397C87.464 64.1195 88.4945 65.157 89.7657 65.157C91.0369 65.157 92.0674 64.1195 92.0674 62.8397C92.0674 61.5599 91.0369 60.5224 89.7657 60.5224ZM54.4728 82.1499C54.4728 80.8701 55.5033 79.8326 56.7745 79.8326C58.0457 79.8326 59.0762 80.8701 59.0762 82.1499C59.0762 83.4297 58.0457 84.4672 56.7745 84.4672C55.5033 84.4672 54.4728 83.4297 54.4728 82.1499ZM59.8438 66.7014C58.5726 66.7014 57.5421 67.7389 57.5421 69.0187C57.5421 70.2985 58.5726 71.3359 59.8438 71.3359C61.115 71.3359 62.1455 70.2985 62.1455 69.0187C62.1455 67.7389 61.115 66.7014 59.8438 66.7014ZM42.965 76.7433C42.965 75.4635 43.9955 74.4261 45.2667 74.4261C46.5379 74.4261 47.5684 75.4635 47.5684 76.7433C47.5684 78.0231 46.5379 79.0606 45.2667 79.0606C43.9955 79.0606 42.965 78.0231 42.965 76.7433ZM29.1544 58.9777C27.8832 58.9777 26.8526 60.0152 26.8526 61.295C26.8526 62.5748 27.8832 63.6122 29.1544 63.6122C30.4255 63.6122 31.4561 62.5748 31.4561 61.295C31.4561 60.0152 30.4255 58.9777 29.1544 58.9777ZM16.1114 52.7979C16.1114 51.5181 17.1419 50.4806 18.4131 50.4806C19.6843 50.4806 20.7148 51.5181 20.7148 52.7979C20.7148 54.0777 19.6843 55.1152 18.4131 55.1152C17.1419 55.1152 16.1114 54.0777 16.1114 52.7979ZM46.8008 62.0672C45.5296 62.0672 44.4991 63.1046 44.4991 64.3844C44.4991 65.6642 45.5296 66.7017 46.8008 66.7017C48.072 66.7017 49.1025 65.6642 49.1025 64.3844C49.1025 63.1046 48.072 62.0672 46.8008 62.0672ZM37.5939 55.115C37.5939 53.8352 38.6244 52.7977 39.8956 52.7977C41.1668 52.7977 42.1973 53.8352 42.1973 55.115C42.1973 56.3948 41.1668 57.4323 39.8956 57.4323C38.6244 57.4323 37.5939 56.3948 37.5939 55.115ZM32.9903 89.1021C31.7191 89.1021 30.6886 90.1395 30.6886 91.4193C30.6886 92.6991 31.7191 93.7366 32.9903 93.7366C34.2615 93.7366 35.292 92.6991 35.292 91.4193C35.292 90.1395 34.2615 89.1021 32.9903 89.1021ZM20.714 83.6947C20.714 82.4149 21.7445 81.3774 23.0157 81.3774C24.2869 81.3774 25.3174 82.4149 25.3174 83.6947C25.3174 84.9745 24.2869 86.0119 23.0157 86.0119C21.7445 86.0119 20.714 84.9745 20.714 83.6947ZM32.9903 70.5642C31.7191 70.5642 30.6886 71.6017 30.6886 72.8815C30.6886 74.1613 31.7191 75.1988 32.9903 75.1988C34.2615 75.1988 35.292 74.1613 35.292 72.8815C35.292 71.6017 34.2615 70.5642 32.9903 70.5642ZM16.879 72.1091C16.879 70.8293 17.9095 69.7918 19.1807 69.7918C20.4519 69.7918 21.4824 70.8293 21.4824 72.1091C21.4824 73.3889 20.4519 74.4264 19.1807 74.4264C17.9095 74.4264 16.879 73.3889 16.879 72.1091ZM11.5079 60.5224C10.2367 60.5224 9.20616 61.5599 9.20616 62.8397C9.20616 64.1195 10.2367 65.157 11.5079 65.157C12.7791 65.157 13.8096 64.1195 13.8096 62.8397C13.8096 61.5599 12.7791 60.5224 11.5079 60.5224ZM0.000108924 71.3358C0.00010898 70.056 1.03062 69.0185 2.30181 69.0185C3.57301 69.0185 4.60352 70.056 4.60352 71.3358C4.60352 72.6156 3.57301 73.653 2.30181 73.653C1.03062 73.653 0.000108869 72.6156 0.000108924 71.3358Z" fill="#121426"/>
<path d="M125 -3.0598e-06C163.66 -4.74968e-06 195 46.0994 195 77.8155C195 109.532 157.447 140 118.787 140C80.1271 140 55 109.532 55 77.8155C55 58.6638 63.284 43.4951 83.9941 31.2682C104.704 19.0412 109.685 -2.39035e-06 125 -3.0598e-06Z" fill="#DFD1F4"/>
<path d="M121.022 61.7622C121.022 71.2643 113.268 78.9673 103.702 78.9673C94.1364 78.9673 86.3818 71.2643 86.3818 61.7622C86.3818 52.2601 94.1364 44.5571 103.702 44.5571C113.268 44.5571 121.022 52.2601 121.022 61.7622Z" fill="white"/>
<path d="M163.657 71.0264C163.657 85.6452 151.728 97.4956 137.011 97.4956C122.295 97.4956 110.364 85.6452 110.364 71.0264C110.364 56.4082 122.295 44.5571 137.011 44.5571C151.728 44.5571 163.657 56.4082 163.657 71.0264Z" fill="white"/>
<path d="M101.038 96.1724C97.3612 96.1685 94.381 93.2083 94.3765 89.5553C94.3765 88.8245 94.973 88.2319 95.7088 88.2319C96.4446 88.2319 97.0411 88.8245 97.0411 89.5553C97.0411 91.7485 98.8308 93.5256 101.038 93.5256C101.774 93.5256 102.37 94.1181 102.37 94.849C102.37 95.5798 101.774 96.1724 101.038 96.1724Z" fill="#4F83D1"/>
<path d="M101.038 96.1724C97.3612 96.1685 94.381 93.2083 94.3765 89.5553C94.3765 88.8245 94.973 88.2319 95.7088 88.2319C96.4446 88.2319 97.0411 88.8245 97.0411 89.5553C97.0411 91.7485 98.8308 93.5256 101.038 93.5256C101.774 93.5256 102.37 94.1181 102.37 94.849C102.37 95.5798 101.774 96.1724 101.038 96.1724Z" fill="#4F83D1"/>
<path d="M90.3792 96.1724C89.6434 96.1724 89.0469 95.5798 89.0469 94.849C89.0469 94.1181 89.6434 93.5256 90.3792 93.5256C92.5865 93.5256 94.3762 91.7485 94.3762 89.5553C94.3762 88.8245 94.9727 88.2319 95.7085 88.2319C96.4443 88.2319 97.0408 88.8245 97.0408 89.5553C97.0363 93.2083 94.0568 96.1685 90.3792 96.1724Z" fill="#4F83D1"/>
<path d="M95.7088 101.466C94.973 101.466 94.3765 100.873 94.3765 100.143C94.381 96.4901 97.3612 93.5297 101.038 93.5251C101.774 93.5251 102.37 94.1177 102.37 94.8486C102.37 95.5795 101.774 96.1721 101.038 96.1721C98.8308 96.1721 97.0411 97.9499 97.0411 100.143C97.0411 100.873 96.4446 101.466 95.7088 101.466Z" fill="#4F83D1"/>
<path d="M95.7088 101.466C94.973 101.466 94.3765 100.873 94.3765 100.143C94.381 96.4901 97.3612 93.5297 101.038 93.5251C101.774 93.5251 102.37 94.1177 102.37 94.8486C102.37 95.5795 101.774 96.1721 101.038 96.1721C98.8308 96.1721 97.0411 97.9499 97.0411 100.143C97.0411 100.873 96.4446 101.466 95.7088 101.466Z" fill="#4F83D1"/>
<path d="M95.7085 101.466C94.9727 101.466 94.3762 100.873 94.3762 100.143C94.3762 97.9499 92.5865 96.1721 90.3792 96.1721C89.6434 96.1721 89.0469 95.5795 89.0469 94.8486C89.0469 94.1177 89.6434 93.5251 90.3792 93.5251C94.0568 93.5297 97.0363 96.4901 97.0408 100.143C97.0408 100.873 96.4443 101.466 95.7085 101.466Z" fill="#4F83D1"/>
<path d="M156.996 37.9402C153.319 37.9363 150.339 34.9761 150.334 31.3232C150.334 30.5923 150.931 29.9998 151.666 29.9998C152.402 29.9998 152.999 30.5923 152.999 31.3232C152.999 33.5163 154.788 35.2934 156.996 35.2934C157.731 35.2934 158.328 35.8859 158.328 36.6168C158.328 37.3476 157.731 37.9402 156.996 37.9402Z" fill="#4F83D1"/>
<path d="M156.996 37.9402C153.319 37.9363 150.339 34.9761 150.334 31.3232C150.334 30.5923 150.931 29.9998 151.666 29.9998C152.402 29.9998 152.999 30.5923 152.999 31.3232C152.999 33.5163 154.788 35.2934 156.996 35.2934C157.731 35.2934 158.328 35.8859 158.328 36.6168C158.328 37.3476 157.731 37.9402 156.996 37.9402Z" fill="#4F83D1"/>
<path d="M146.337 37.9402C145.601 37.9402 145.005 37.3476 145.005 36.6168C145.005 35.8859 145.601 35.2934 146.337 35.2934C148.545 35.2934 150.334 33.5163 150.334 31.3232C150.334 30.5923 150.931 29.9998 151.667 29.9998C152.402 29.9998 152.999 30.5923 152.999 31.3232C152.994 34.9761 150.015 37.9363 146.337 37.9402Z" fill="#4F83D1"/>
<path d="M151.666 43.2307C150.931 43.2307 150.334 42.6381 150.334 41.9072C150.339 38.2547 153.319 35.2943 156.996 35.2898C157.731 35.2898 158.328 35.8824 158.328 36.6133C158.328 37.3442 157.731 37.9368 156.996 37.9368C154.788 37.9368 152.999 39.7146 152.999 41.9072C152.999 42.6381 152.402 43.2307 151.666 43.2307Z" fill="#4F83D1"/>
<path d="M151.666 43.2307C150.931 43.2307 150.334 42.6381 150.334 41.9072C150.339 38.2547 153.319 35.2943 156.996 35.2898C157.731 35.2898 158.328 35.8824 158.328 36.6133C158.328 37.3442 157.731 37.9368 156.996 37.9368C154.788 37.9368 152.999 39.7146 152.999 41.9072C152.999 42.6381 152.402 43.2307 151.666 43.2307Z" fill="#4F83D1"/>
<path d="M151.667 43.2307C150.931 43.2307 150.334 42.6381 150.334 41.9072C150.334 39.7146 148.545 37.9368 146.337 37.9368C145.601 37.9368 145.005 37.3442 145.005 36.6133C145.005 35.8824 145.601 35.2898 146.337 35.2898C150.015 35.2943 152.994 38.2547 152.999 41.9072C152.999 42.6381 152.402 43.2307 151.667 43.2307Z" fill="#4F83D1"/>
<path d="M154.332 73.6738C150.655 73.67 147.674 70.7094 147.67 67.056C147.67 66.3251 148.266 65.7324 149.002 65.7324C149.738 65.7324 150.335 66.3251 150.335 67.056C150.335 69.2494 152.124 71.0267 154.332 71.0267C155.067 71.0267 155.664 71.6193 155.664 72.3503C155.664 73.0812 155.067 73.6738 154.332 73.6738Z" fill="#E6F1FD"/>
<path d="M154.332 73.6738C150.655 73.67 147.674 70.7094 147.67 67.056C147.67 66.3251 148.266 65.7324 149.002 65.7324C149.738 65.7324 150.335 66.3251 150.335 67.056C150.335 69.2494 152.124 71.0267 154.332 71.0267C155.067 71.0267 155.664 71.6193 155.664 72.3503C155.664 73.0812 155.067 73.6738 154.332 73.6738Z" fill="#E6F1FD"/>
<path d="M143.672 73.6738C142.936 73.6738 142.34 73.0812 142.34 72.3503C142.34 71.6193 142.936 71.0267 143.672 71.0267C145.879 71.0267 147.669 69.2494 147.669 67.056C147.669 66.3251 148.266 65.7324 149.001 65.7324C149.737 65.7324 150.334 66.3251 150.334 67.056C150.329 70.7094 147.35 73.67 143.672 73.6738Z" fill="#E6F1FD"/>
<path d="M149.002 78.967C148.266 78.967 147.67 78.3745 147.67 77.6437C147.674 73.9917 150.655 71.0316 154.332 71.0271C155.067 71.0271 155.664 71.6196 155.664 72.3504C155.664 73.0812 155.067 73.6737 154.332 73.6737C152.124 73.6737 150.335 75.4513 150.335 77.6437C150.335 78.3745 149.738 78.967 149.002 78.967Z" fill="#E6F1FD"/>
<path d="M149.002 78.967C148.266 78.967 147.67 78.3745 147.67 77.6437C147.674 73.9917 150.655 71.0316 154.332 71.0271C155.067 71.0271 155.664 71.6196 155.664 72.3504C155.664 73.0812 155.067 73.6737 154.332 73.6737C152.124 73.6737 150.335 75.4513 150.335 77.6437C150.335 78.3745 149.738 78.967 149.002 78.967Z" fill="#E6F1FD"/>
<path d="M149.001 78.967C148.266 78.967 147.669 78.3745 147.669 77.6437C147.669 75.4513 145.879 73.6737 143.672 73.6737C142.936 73.6737 142.34 73.0812 142.34 72.3504C142.34 71.6196 142.936 71.0271 143.672 71.0271C147.35 71.0316 150.329 73.9917 150.334 77.6437C150.334 78.3745 149.737 78.967 149.001 78.967Z" fill="#E6F1FD"/>
<path d="M138.343 61.7625C134.666 61.7586 131.686 58.7982 131.682 55.145C131.682 54.4141 132.278 53.8215 133.014 53.8215C133.75 53.8215 134.346 54.4141 134.346 55.145C134.346 57.3383 136.136 59.1155 138.343 59.1155C139.079 59.1155 139.676 59.7081 139.676 60.439C139.676 61.1699 139.079 61.7625 138.343 61.7625Z" fill="#E6F1FD"/>
<path d="M138.343 61.7625C134.666 61.7586 131.686 58.7982 131.682 55.145C131.682 54.4141 132.278 53.8215 133.014 53.8215C133.75 53.8215 134.346 54.4141 134.346 55.145C134.346 57.3383 136.136 59.1155 138.343 59.1155C139.079 59.1155 139.676 59.7081 139.676 60.439C139.676 61.1699 139.079 61.7625 138.343 61.7625Z" fill="#E6F1FD"/>
<path d="M127.685 61.7625C126.949 61.7625 126.353 61.1699 126.353 60.439C126.353 59.7081 126.949 59.1155 127.685 59.1155C129.892 59.1155 131.682 57.3383 131.682 55.145C131.682 54.4141 132.278 53.8215 133.014 53.8215C133.75 53.8215 134.346 54.4141 134.346 55.145C134.342 58.7982 131.362 61.7586 127.685 61.7625Z" fill="#E6F1FD"/>
<path d="M133.014 67.0557C132.278 67.0557 131.682 66.4631 131.682 65.7322C131.686 62.0797 134.666 59.1193 138.343 59.1147C139.079 59.1147 139.676 59.7073 139.676 60.4382C139.676 61.1691 139.079 61.7617 138.343 61.7617C136.136 61.7617 134.346 63.5395 134.346 65.7322C134.346 66.4631 133.75 67.0557 133.014 67.0557Z" fill="#E6F1FD"/>
<path d="M133.014 67.0557C132.278 67.0557 131.682 66.4631 131.682 65.7322C131.686 62.0797 134.666 59.1193 138.343 59.1147C139.079 59.1147 139.676 59.7073 139.676 60.4382C139.676 61.1691 139.079 61.7617 138.343 61.7617C136.136 61.7617 134.346 63.5395 134.346 65.7322C134.346 66.4631 133.75 67.0557 133.014 67.0557Z" fill="#E6F1FD"/>
<path d="M133.014 67.0557C132.278 67.0557 131.682 66.4631 131.682 65.7322C131.682 63.5395 129.892 61.7617 127.685 61.7617C126.949 61.7617 126.353 61.1691 126.353 60.4382C126.353 59.7073 126.949 59.1147 127.685 59.1147C131.362 59.1193 134.342 62.0797 134.346 65.7322C134.346 66.4631 133.75 67.0557 133.014 67.0557Z" fill="#E6F1FD"/>
<path d="M101.038 84.2605H103.703V86.906H101.038V84.2605Z" fill="#FCEC97"/>
<path d="M87.7148 102.789H90.3795V105.434H87.7148V102.789Z" fill="#FCEC97"/>
<path d="M162.325 98.8179C162.325 100.279 161.132 101.463 159.661 101.463C158.189 101.463 156.996 100.279 156.996 98.8179C156.996 97.3569 158.189 96.1724 159.661 96.1724C161.132 96.1724 162.325 97.3569 162.325 98.8179Z" fill="white"/>
<path d="M123.687 39.2631C123.687 41.4563 121.898 43.2334 119.69 43.2334C117.483 43.2334 115.693 41.4563 115.693 39.2631C115.693 37.0705 117.483 35.2927 119.69 35.2927C121.898 35.2927 123.687 37.0705 123.687 39.2631Z" fill="white"/>
<path d="M133.014 36.6165H135.678V39.261H133.014V36.6165Z" fill="#FCEC97"/>
<path d="M138.343 85.584H141.007V88.2288H138.343V85.584Z" fill="#E6F1FD"/>
<path d="M146.337 102.789H149.002V105.434H146.337V102.789Z" fill="#FCEC97"/>
<path d="M101.038 64.4089H103.703V67.0537H101.038V64.4089Z" fill="#E6F1FD"/>
<path d="M90.3795 64.5295C90.3515 64.2251 89.7439 56.9953 94.0447 52.3183C96.5565 49.7196 100.082 48.336 103.703 48.5273V51.1744C100.835 50.9999 98.0313 52.0682 96.0165 54.1039C92.5022 57.9247 93.0324 64.2277 93.0442 64.2911L90.3795 64.5295Z" fill="#E6F1FD"/>
<path d="M157.008 69.8784C154.534 51.457 139 51.1746 138.343 51.1746V48.5276C138.528 48.5276 156.862 48.7686 159.648 69.5288L157.008 69.8784Z" fill="#E6F1FD"/>
<path d="M133.014 94.8495C133.014 102.159 127.049 108.084 119.69 108.084C112.332 108.084 106.367 102.159 106.367 94.8495C106.367 87.5408 112.332 81.615 119.69 81.615C127.049 81.615 133.014 87.5408 133.014 94.8495Z" fill="#17B7CC"/>
<path d="M137.011 43.2335C130.119 43.2251 123.469 45.7654 118.359 50.3594C112.467 42.8619 101.818 41.0124 93.7165 46.0808C85.6139 51.1485 82.6903 61.4868 86.9508 70.0047C91.2113 78.522 101.272 82.4517 110.231 79.0984C110.609 80.3308 111.076 81.5341 111.628 82.6999C106.179 86.2632 103.76 92.9762 105.693 99.1651C107.627 105.353 113.447 109.527 119.969 109.4C126.491 109.273 132.143 104.878 133.831 98.6184C144.141 99.7984 154.261 95.2108 160.12 86.7013C165.978 78.1918 166.612 67.1594 161.765 58.0431C156.919 48.9268 147.39 43.2257 137.011 43.2335ZM87.7152 61.7621C87.7041 54.9315 92.0986 48.8621 98.621 46.6992C105.143 44.5363 112.327 46.7664 116.449 52.2335C111.674 57.3413 109.025 64.0562 109.032 71.0264C109.036 72.8675 109.224 74.7028 109.591 76.5071C104.671 78.4658 99.0927 77.868 94.7067 74.9115C90.3207 71.9557 87.7009 67.0276 87.7152 61.7621ZM119.691 106.76C113.068 106.76 107.7 101.428 107.7 94.8489C107.7 88.271 113.068 82.9377 119.691 82.9377C126.314 82.9377 131.682 88.271 131.682 94.8489C131.675 101.424 126.31 106.753 119.691 106.76ZM137.011 96.1724C136.101 96.1659 135.192 96.111 134.288 96.007C134.319 95.6244 134.347 95.2399 134.347 94.8489C134.347 89.968 131.883 85.4114 127.787 82.7147C123.691 80.018 118.506 79.5405 113.981 81.4423C113.318 80.0142 112.795 78.5265 112.419 76.9995C111.94 75.044 111.698 73.0388 111.697 71.0264C111.697 57.139 123.031 45.8804 137.011 45.8804C150.992 45.8804 162.326 57.139 162.326 71.0264C162.326 84.9145 150.992 96.1724 137.011 96.1724Z" fill="#121426"/>
<path d="M97.0409 89.5552C97.0409 88.8243 96.4443 88.2317 95.7085 88.2317C94.9728 88.2317 94.3762 88.8243 94.3762 89.5552C94.3762 91.7485 92.5865 93.5256 90.3792 93.5256C89.6434 93.5256 89.0469 94.1182 89.0469 94.8491C89.0469 95.58 89.6434 96.1726 90.3792 96.1726C92.5865 96.1726 94.3762 97.9504 94.3762 100.143C94.3762 100.874 94.9728 101.467 95.7085 101.467C96.4443 101.467 97.0409 100.874 97.0409 100.143C97.0409 97.9504 98.8305 96.1726 101.038 96.1726C101.774 96.1726 102.37 95.58 102.37 94.8491C102.37 94.1182 101.774 93.5256 101.038 93.5256C98.8305 93.5256 97.0409 91.7485 97.0409 89.5552ZM95.7085 96.214C95.3208 95.6944 94.8576 95.2349 94.3352 94.8491C94.8576 94.464 95.3208 94.0038 95.7085 93.4849C96.0969 94.0038 96.5594 94.464 97.0825 94.8491C96.5594 95.2349 96.0969 95.6944 95.7085 96.214Z" fill="#121426"/>
<path d="M150.334 41.9105C150.334 42.6413 150.931 43.2339 151.667 43.2339C152.402 43.2339 152.999 42.6413 152.999 41.9105C152.999 39.7179 154.789 37.9402 156.996 37.9402C157.732 37.9402 158.328 37.3477 158.328 36.6168C158.328 35.886 157.732 35.2934 156.996 35.2934C154.789 35.2934 152.999 33.5164 152.999 31.3232C152.999 30.5923 152.402 29.9998 151.667 29.9998C150.931 29.9998 150.334 30.5923 150.334 31.3232C150.334 33.5164 148.545 35.2934 146.337 35.2934C145.601 35.2934 145.005 35.886 145.005 36.6168C145.005 37.3477 145.601 37.9402 146.337 37.9402C148.545 37.9402 150.334 39.7179 150.334 41.9105ZM151.667 35.2527C152.055 35.7716 152.517 36.2317 153.041 36.6168C152.517 37.0026 152.055 37.462 151.667 37.9816C151.279 37.462 150.816 37.0026 150.293 36.6168C150.816 36.2317 151.279 35.7716 151.667 35.2527Z" fill="#121426"/>
<path d="M154.331 71.0264C152.123 71.0264 150.334 69.2492 150.334 67.0559C150.334 66.325 149.737 65.7324 149.001 65.7324C148.266 65.7324 147.669 66.325 147.669 67.0559C147.669 69.2492 145.879 71.0264 143.672 71.0264C142.936 71.0264 142.34 71.619 142.34 72.3499C142.34 73.0807 142.936 73.6733 143.672 73.6733C145.879 73.6733 147.669 75.4511 147.669 77.6438C147.669 78.3747 148.266 78.9673 149.001 78.9673C149.737 78.9673 150.334 78.3747 150.334 77.6438C150.334 75.4511 152.123 73.6733 154.331 73.6733C155.067 73.6733 155.663 73.0807 155.663 72.3499C155.663 71.619 155.067 71.0264 154.331 71.0264ZM149.001 73.7147C148.614 73.1951 148.151 72.7357 147.628 72.3499C148.151 71.9647 148.614 71.5046 149.001 70.9857C149.39 71.5046 149.852 71.9647 150.375 72.3499C149.852 72.7357 149.39 73.1951 149.001 73.7147Z" fill="#121426"/>
<path d="M139.676 60.4387C139.676 59.7079 139.079 59.1153 138.344 59.1153C136.136 59.1153 134.347 57.3382 134.347 55.145C134.347 54.4141 133.75 53.8215 133.014 53.8215C132.278 53.8215 131.682 54.4141 131.682 55.145C131.682 57.3382 129.892 59.1153 127.685 59.1153C126.949 59.1153 126.353 59.7079 126.353 60.4387C126.353 61.1696 126.949 61.7622 127.685 61.7622C129.892 61.7622 131.682 63.5399 131.682 65.7325C131.682 66.4633 132.278 67.0559 133.014 67.0559C133.75 67.0559 134.347 66.4633 134.347 65.7325C134.347 63.5399 136.136 61.7622 138.344 61.7622C139.079 61.7622 139.676 61.1696 139.676 60.4387ZM133.014 61.8035C132.626 61.284 132.163 60.8245 131.641 60.4387C132.163 60.0536 132.626 59.5935 133.014 59.0746C133.403 59.5935 133.865 60.0536 134.388 60.4387C133.865 60.8245 133.403 61.284 133.014 61.8035Z" fill="#121426"/>
<path d="M101.038 84.2605H103.703V86.906H101.038V84.2605Z" fill="#121426"/>
<path d="M87.7148 102.789H90.3795V105.434H87.7148V102.789Z" fill="#121426"/>
<path d="M163.657 98.8186C163.657 96.6259 161.867 94.8481 159.66 94.8481C157.453 94.8481 155.663 96.6259 155.663 98.8186C155.663 101.012 157.453 102.789 159.66 102.789C161.867 102.789 163.657 101.012 163.657 98.8186ZM158.328 98.8186C158.328 98.0877 158.924 97.4951 159.66 97.4951C160.396 97.4951 160.992 98.0877 160.992 98.8186C160.992 99.5495 160.396 100.142 159.66 100.142C158.924 100.142 158.328 99.5495 158.328 98.8186Z" fill="#121426"/>
<path d="M125.02 39.2625C125.02 36.3389 122.634 33.9685 119.691 33.9685C116.748 33.9685 114.361 36.3389 114.361 39.2625C114.361 42.1867 116.748 44.5564 119.691 44.5564C122.634 44.5564 125.02 42.1867 125.02 39.2625ZM117.026 39.2625C117.026 37.8007 118.219 36.6155 119.691 36.6155C121.162 36.6155 122.355 37.8007 122.355 39.2625C122.355 40.7249 121.162 41.9094 119.691 41.9094C118.219 41.9094 117.026 40.7249 117.026 39.2625Z" fill="#121426"/>
<path d="M133.014 36.6165H135.678V39.261H133.014V36.6165Z" fill="#121426"/>
<path d="M138.343 85.584H141.007V88.2288H138.343V85.584Z" fill="#121426"/>
<path d="M146.337 102.789H149.002V105.434H146.337V102.789Z" fill="#121426"/>
<path d="M101.038 64.4089H103.703V67.0537H101.038V64.4089Z" fill="#121426"/>
<path d="M90.3796 64.5295L93.0442 64.2911C93.0377 64.2277 92.5114 57.9285 96.0218 54.0993C98.0359 52.0674 100.837 51.0004 103.703 51.1742V48.5271C100.084 48.337 96.5605 49.7207 94.05 52.3181C89.7492 56.9985 90.3568 64.2251 90.3796 64.5295Z" fill="#121426"/>
<path d="M138.343 48.5276V51.1746C139.009 51.1746 154.538 51.457 157.01 69.8784L159.651 69.5288C156.862 48.7686 138.528 48.5276 138.343 48.5276Z" fill="#121426"/>
</g>
<defs>
<clipPath id="clip0">
<path d="M0 0H250V140H0V0Z" fill="white"/>
</clipPath>
</defs>
</svg>
