<svg width="2200" height="20" viewBox="0 0 2200 20" fill="none" xmlns="http://www.w3.org/2000/svg">
<g clip-path="url(#clip0)">
<path d="M0 0H2200V20H0V0Z" fill="white"/>
<path fill-rule="evenodd" clip-rule="evenodd" d="M23.5047 -718.288C28.9164 -718.979 34.2022 -719.653 39 -720.004C43.5312 -720.334 48.1694 -720.409 52.8148 -720.484C58.0255 -720.569 63.2452 -720.653 68.3333 -721.099C90.8229 -723.068 114.285 -723.044 137.177 -723.02C139.681 -723.017 142.178 -723.015 144.667 -723.015C157.679 -723.015 170.436 -721.549 183.221 -720.079C193.251 -718.926 203.298 -717.772 213.5 -717.321C225.399 -716.796 237.253 -716.616 249.097 -716.437C264.831 -716.199 280.548 -715.961 296.333 -714.912C306.512 -714.236 316.719 -713.659 326.925 -713.082C342.931 -712.178 358.936 -711.273 374.833 -709.985C386.634 -709.03 398.578 -708.96 410.512 -708.889C419.929 -708.834 429.339 -708.779 438.667 -708.288C441.59 -708.135 444.513 -707.975 447.437 -707.816C466.759 -706.762 486.091 -705.708 505.583 -706.318C530.45 -707.096 555.134 -709.651 579.813 -712.206C603.909 -714.7 628 -717.194 652.25 -718.033C678.864 -718.953 705.297 -719.609 732.083 -718.142C750.951 -717.109 769.613 -715.628 788.25 -713.653C804.189 -711.965 820.502 -712.051 836.686 -712.137C840.243 -712.156 843.794 -712.175 847.333 -712.175C856.656 -712.175 865.916 -712.422 875.174 -712.668C884.43 -712.914 893.685 -713.161 903 -713.161H935.333C940.901 -713.161 946.372 -713.657 951.832 -714.152C956.931 -714.614 962.02 -715.076 967.167 -715.131C979.941 -715.269 992.67 -716.18 1005.41 -717.092C1019.24 -718.082 1033.08 -719.073 1047 -719.073C1055.85 -719.073 1064.56 -719.823 1073.28 -720.573C1080.71 -721.213 1088.14 -721.853 1095.67 -722.029C1102.25 -722.184 1108.7 -722.584 1115.15 -722.983C1123.35 -723.492 1131.55 -724 1140 -724C1144.27 -724 1148.8 -723.438 1153.27 -722.883C1155.88 -722.558 1158.48 -722.236 1161 -722.029C1172.57 -721.079 1183.82 -721.044 1195.5 -721.044C1213.4 -721.044 1231.59 -719.901 1249.54 -718.772C1253.54 -718.521 1257.53 -718.27 1261.5 -718.033C1268.95 -717.588 1276.22 -716.51 1283.49 -715.429C1285.16 -715.182 1286.83 -714.934 1288.5 -714.693C1304.96 -712.329 1322.32 -712.274 1339.34 -712.221C1344.24 -712.206 1349.11 -712.191 1353.92 -712.121C1357.62 -712.066 1361.33 -712.011 1365.03 -711.956C1390.74 -711.573 1416.42 -711.19 1442.17 -711.19C1449.29 -711.19 1456.38 -710.701 1463.5 -710.21C1470.67 -709.716 1477.87 -709.219 1485.17 -709.219C1490.68 -709.219 1496.2 -709.193 1501.71 -709.168C1512.76 -709.116 1523.81 -709.065 1534.83 -709.219C1547.38 -709.394 1559.84 -710.779 1572.31 -712.164C1585.66 -713.647 1599.02 -715.131 1612.5 -715.131C1639.43 -715.131 1666.29 -715.633 1693.14 -716.135C1724.02 -716.712 1754.88 -717.289 1785.83 -717.102C1803.69 -716.995 1821.37 -715.331 1839.08 -713.664C1857.46 -711.936 1875.85 -710.204 1894.5 -710.204C1900.7 -710.204 1920 -713.161 1920 -713.161C1920 -713.161 1939.3 -710.204 1945.5 -710.204C1964.15 -710.204 1982.54 -711.936 2000.92 -713.664C2018.63 -715.331 2036.31 -716.995 2054.17 -717.102C2085.12 -717.289 2115.98 -716.712 2146.86 -716.135C2173.71 -715.633 2200.57 -715.131 2227.5 -715.131C2240.98 -715.131 2254.34 -713.647 2267.69 -712.164C2280.16 -710.779 2292.62 -709.394 2305.17 -709.219C2316.19 -709.065 2327.24 -709.116 2338.29 -709.168C2343.8 -709.193 2349.32 -709.219 2354.83 -709.219C2362.13 -709.219 2369.33 -709.716 2376.5 -710.21C2383.62 -710.701 2390.71 -711.19 2397.83 -711.19C2423.58 -711.19 2449.26 -711.573 2474.97 -711.956C2478.67 -712.011 2482.38 -712.066 2486.08 -712.121C2490.89 -712.191 2495.76 -712.206 2500.66 -712.221C2517.68 -712.274 2535.04 -712.329 2551.5 -714.693C2553.17 -714.934 2554.84 -715.182 2556.51 -715.429C2563.78 -716.51 2571.05 -717.588 2578.5 -718.033C2582.47 -718.27 2586.46 -718.521 2590.46 -718.772C2608.41 -719.901 2626.6 -721.044 2644.5 -721.044C2656.18 -721.044 2667.43 -721.079 2679 -722.029C2681.52 -722.236 2684.12 -722.558 2686.73 -722.883C2691.21 -723.438 2695.73 -724 2700 -724C2708.45 -724 2716.65 -723.492 2724.85 -722.983C2731.3 -722.584 2737.75 -722.184 2744.33 -722.029C2751.86 -721.853 2759.29 -721.213 2766.72 -720.573C2775.44 -719.823 2784.15 -719.073 2793 -719.073C2806.92 -719.073 2820.76 -718.082 2834.59 -717.092C2847.33 -716.18 2860.06 -715.269 2872.83 -715.131C2877.98 -715.076 2883.07 -714.614 2888.17 -714.152C2893.63 -713.657 2899.1 -713.161 2904.67 -713.161H2937C2946.32 -713.161 2955.57 -712.914 2964.83 -712.668C2974.08 -712.422 2983.34 -712.175 2992.67 -712.175C2996.21 -712.175 2999.76 -712.156 3003.31 -712.137C3019.5 -712.051 3035.81 -711.965 3051.75 -713.653C3070.39 -715.628 3089.05 -717.109 3107.92 -718.142C3134.7 -719.609 3161.14 -718.953 3187.75 -718.033C3212 -717.194 3236.09 -714.7 3260.19 -712.206C3284.87 -709.651 3309.55 -707.096 3334.42 -706.318C3353.91 -705.708 3373.24 -706.762 3392.56 -707.816C3395.49 -707.975 3398.41 -708.135 3401.33 -708.288C3410.66 -708.779 3420.07 -708.834 3429.49 -708.889C3441.42 -708.96 3453.37 -709.03 3465.17 -709.985C3481.06 -711.273 3497.07 -712.178 3513.08 -713.082C3523.28 -713.659 3533.49 -714.236 3543.67 -714.912C3559.45 -715.961 3575.17 -716.199 3590.9 -716.437C3602.75 -716.616 3614.6 -716.796 3626.5 -717.321C3636.7 -717.772 3646.75 -718.926 3656.78 -720.079C3669.56 -721.549 3682.32 -723.015 3695.33 -723.015C3697.82 -723.015 3700.32 -723.017 3702.82 -723.02C3725.72 -723.044 3749.18 -723.068 3771.67 -721.099C3776.75 -720.653 3781.97 -720.569 3787.19 -720.484C3791.83 -720.409 3796.47 -720.334 3801 -720.004C3805.8 -719.653 3811.08 -718.979 3816.5 -718.288C3824.44 -717.273 3832.66 -716.224 3840 -716.117V13.0756C3832.66 12.9684 3824.44 11.9193 3816.5 10.9049C3811.08 10.2139 3805.8 9.539 3801 9.18878C3796.47 8.85803 3791.83 8.78308 3787.19 8.70801C3781.97 8.62384 3776.75 8.53955 3771.67 8.09387C3749.18 6.12402 3725.72 6.14862 3702.82 6.17261C3700.32 6.17523 3697.82 6.17786 3695.33 6.17786C3682.32 6.17786 3669.56 7.64392 3656.78 9.11328C3646.75 10.266 3636.7 11.4207 3626.5 11.8712C3614.6 12.3967 3602.75 12.5761 3590.9 12.7554C3575.17 12.9935 3559.45 13.2313 3543.67 14.28C3530.81 15.1337 3517.92 13.4477 3505.04 11.7632C3491.71 10.0213 3478.4 8.28107 3465.17 9.35303C3453.37 10.3087 3441.42 10.379 3429.49 10.4492C3420.07 10.5045 3410.66 10.5599 3401.33 11.0501C3398.41 11.2037 3395.49 11.3632 3392.56 11.5226C3373.24 12.5764 3353.91 13.6306 3334.42 13.0209C3310.5 12.2728 3286.76 12.2139 3263.02 12.155C3237.98 12.0929 3212.95 12.0309 3187.75 11.1595C3161.14 10.2394 3134.7 9.58368 3107.92 11.0501C3089.05 12.083 3070.39 13.5644 3051.75 15.5391C3041.08 16.6691 3030.25 14.3354 3019.4 11.9981C3010.47 10.0746 3001.53 8.14862 2992.67 8.14862C2983.34 8.14862 2974.08 7.90216 2964.83 7.65576C2955.57 7.40948 2946.32 7.16321 2937 7.16321H2904.67C2899.31 7.16321 2894.05 8.89716 2888.8 10.6265C2883.49 12.375 2878.19 14.1187 2872.83 14.061C2860.06 13.9234 2847.33 13.0123 2834.59 12.1007C2820.76 11.1104 2806.92 10.1194 2793 10.1194C2784.15 10.1194 2775.44 9.36957 2766.72 8.61914C2759.29 7.97968 2751.86 7.33984 2744.33 7.16321C2737.75 7.00867 2731.3 6.6087 2724.85 6.20917C2716.65 5.7005 2708.45 5.19244 2700 5.19244C2695.73 5.19244 2691.2 5.75409 2686.73 6.30939C2684.12 6.63397 2681.52 6.95636 2679 7.16321C2667.43 8.11322 2656.18 8.14862 2644.5 8.14862C2626.6 8.14862 2608.41 9.29175 2590.46 10.42C2586.46 10.6716 2582.47 10.9224 2578.5 11.1595C2571.05 11.6046 2563.79 12.6829 2556.51 13.7631C2554.84 14.0108 2553.17 14.2587 2551.5 14.499C2535.04 16.8639 2517.68 16.9181 2500.66 16.9712C2495.76 16.9865 2490.89 17.0017 2486.08 17.0719C2482.38 17.126 2478.67 17.1812 2474.97 17.2364C2449.26 17.6197 2423.58 18.0026 2397.83 18.0026C2390.71 18.0026 2383.62 17.5137 2376.5 17.023C2369.33 16.5284 2362.13 16.0318 2354.83 16.0318C2346.35 16.0318 2337.86 14.7977 2329.37 13.5637C2321.3 12.3906 2313.23 11.2175 2305.17 11.1048C2291.75 10.9173 2278.44 12.2358 2265.11 13.5557C2252.62 14.7932 2240.11 16.0318 2227.5 16.0318C2197.08 16.0318 2166.75 17.0239 2136.41 18.0161C2109.02 18.912 2081.63 19.8079 2054.17 19.9734C2034.5 20.0919 2015.05 19.7943 1995.53 19.4958C1978.95 19.2422 1962.33 18.988 1945.5 18.988C1939.3 18.988 1920 16.0318 1920 16.0318C1920 16.0318 1900.7 18.988 1894.5 18.988C1877.67 18.988 1861.05 19.2422 1844.47 19.4958C1824.95 19.7943 1805.5 20.0919 1785.83 19.9734C1758.37 19.8079 1730.98 18.912 1703.59 18.0161C1673.25 17.0239 1642.92 16.0318 1612.5 16.0318C1599.89 16.0318 1587.38 14.7932 1574.89 13.5557C1561.56 12.2358 1548.25 10.9173 1534.83 11.1048C1526.77 11.2175 1518.7 12.3906 1510.63 13.5637C1502.14 14.7977 1493.65 16.0318 1485.17 16.0318C1477.87 16.0318 1470.67 16.5284 1463.5 17.023C1456.38 17.5137 1449.29 18.0026 1442.17 18.0026C1416.42 18.0026 1390.74 17.6198 1365.03 17.2365C1361.33 17.1812 1357.62 17.126 1353.92 17.0719C1349.11 17.0017 1344.24 16.9865 1339.34 16.9712C1322.32 16.9181 1304.96 16.8639 1288.5 14.499C1286.83 14.2587 1285.16 14.0108 1283.49 13.7631C1276.21 12.6829 1268.95 11.6046 1261.5 11.1595C1257.53 10.9224 1253.54 10.6716 1249.54 10.4201C1231.59 9.29175 1213.4 8.14862 1195.5 8.14862C1183.82 8.14862 1172.57 8.11322 1161 7.16321C1158.48 6.95636 1155.88 6.63397 1153.27 6.30939C1148.79 5.75409 1144.27 5.19244 1140 5.19244C1131.55 5.19244 1123.35 5.7005 1115.15 6.20917C1108.7 6.6087 1102.25 7.00867 1095.67 7.16321C1088.14 7.33984 1080.71 7.97968 1073.28 8.61914C1064.56 9.36957 1055.85 10.1194 1047 10.1194C1033.08 10.1194 1019.24 11.1104 1005.41 12.1007C992.67 13.0123 979.941 13.9234 967.167 14.061C961.808 14.1187 956.513 12.3749 951.204 10.6265C945.953 8.89716 940.687 7.16321 935.333 7.16321H903C893.685 7.16321 884.43 7.40948 875.174 7.65576C865.916 7.90216 856.656 8.14862 847.333 8.14862C838.466 8.14862 829.526 10.0746 820.597 11.998C809.748 14.3354 798.915 16.6691 788.25 15.5391C769.613 13.5644 750.951 12.083 732.083 11.0501C705.297 9.58368 678.864 10.2394 652.25 11.1595C627.049 12.0309 602.021 12.0929 576.98 12.155C553.245 12.2139 529.498 12.2728 505.583 13.0209C486.091 13.6306 466.759 12.5764 447.437 11.5226C444.513 11.3632 441.59 11.2037 438.667 11.0501C429.339 10.5599 419.928 10.5045 410.512 10.4492C398.578 10.379 386.633 10.3087 374.833 9.35303C361.598 8.28107 348.288 10.0213 334.965 11.7632C322.081 13.4477 309.185 15.1337 296.333 14.28C280.548 13.2313 264.831 12.9935 249.097 12.7554C237.253 12.5761 225.399 12.3967 213.5 11.8712C203.298 11.4207 193.251 10.266 183.221 9.11334C170.436 7.64392 157.679 6.17786 144.667 6.17786C142.178 6.17786 139.681 6.17523 137.177 6.17261C114.285 6.14862 90.8229 6.12402 68.3333 8.09387C63.2453 8.53955 58.0256 8.62384 52.8149 8.70801C48.1695 8.78308 43.5313 8.85803 39 9.18878C34.2021 9.539 28.9162 10.2139 23.5043 10.9049C15.5592 11.9193 7.34261 12.9684 0 13.0756V-716.117C7.34272 -716.224 15.5595 -717.273 23.5047 -718.288Z" fill="#FAF3EB"/>
</g>
<defs>
<clipPath id="clip0">
<path d="M0 0H2200V20H0V0Z" fill="white"/>
</clipPath>
</defs>
</svg>
