<svg width="24" height="24" viewBox="0 0 24 24" fill="none" xmlns="http://www.w3.org/2000/svg">
<path d="M12 1.5L14.35 3.3L17.25 2.9L18.35 5.65L21.1 6.75L20.7 9.65L22.5 12L20.7 14.35L21.1 17.25L18.35 18.35L17.25 21.1L14.35 20.7L12 22.5L9.65 20.7L6.75 21.1L5.65 18.35L2.9 17.25L3.3 14.35L1.5 12L3.3 9.65L2.9 6.75L5.65 5.65L6.75 2.9L9.65 3.3L12 1.5Z" fill="#946AD7"/>
<path d="M17.2998 7.30029L10.4998 14.1003L7.6998 11.3003L6.2998 12.7003L10.4998 16.9003L18.6998 8.70029L17.2998 7.30029Z" fill="white"/>
</svg>
