<svg width="2200" height="20" viewBox="0 0 2200 20" fill="none" xmlns="http://www.w3.org/2000/svg">
<g clip-path="url(#clip0)">
<path d="M0 0H2200V20H0V0Z" fill="#FAF3EB"/>
<path fill-rule="evenodd" clip-rule="evenodd" d="M23.5047 5.71239C28.9164 5.02142 34.2022 4.34653 39 3.99632C43.5312 3.66558 48.1694 3.59065 52.8148 3.51561C58.0255 3.43143 63.2452 3.34711 68.3333 2.90144C90.8229 0.931563 114.285 0.956156 137.177 0.980153C139.681 0.982778 142.178 0.985395 144.667 0.985395C157.679 0.985395 170.436 2.45149 183.221 3.92087C193.251 5.07354 203.298 6.22823 213.5 6.67879C225.399 7.20429 237.253 7.38368 249.097 7.56293C264.831 7.80105 280.548 8.03891 296.333 9.08753C306.512 9.76373 316.719 10.3406 326.925 10.9175C342.931 11.8223 358.936 12.727 374.833 14.0145C386.634 14.9702 398.578 15.0405 410.512 15.1106C419.929 15.166 429.339 15.2214 438.667 15.7116C441.59 15.8652 444.513 16.0246 447.437 16.1841C466.759 17.2378 486.091 18.2921 505.583 17.6824C530.45 16.9045 555.134 14.349 579.813 11.7941C603.909 9.29957 628 6.80557 652.25 5.96711C678.864 5.04693 705.297 4.39122 732.083 5.85763C750.951 6.89052 769.613 8.37194 788.25 10.3466C804.189 12.0355 820.502 11.9487 836.686 11.8626C840.243 11.8436 843.794 11.8247 847.333 11.8247C856.656 11.8247 865.916 11.5783 875.174 11.3319C884.43 11.0856 893.685 10.8393 903 10.8393H935.333C940.901 10.8393 946.372 10.3431 951.832 9.84797C956.931 9.38551 962.02 8.92399 967.167 8.86856C979.941 8.73099 992.67 7.81983 1005.41 6.90824C1019.24 5.91787 1033.08 4.92698 1047 4.92698C1055.85 4.92698 1064.56 4.1771 1073.28 3.42668C1080.71 2.78725 1088.14 2.14743 1095.67 1.97079C1102.25 1.81624 1108.7 1.4163 1115.15 1.01676C1123.35 0.508051 1131.55 0 1140 0C1144.27 0 1148.8 0.561643 1153.27 1.11696C1155.88 1.44153 1158.48 1.76394 1161 1.97079C1172.57 2.92078 1183.82 2.95619 1195.5 2.95619C1213.4 2.95619 1231.59 4.09935 1249.54 5.22769C1253.54 5.47917 1257.53 5.72992 1261.5 5.96711C1268.95 6.41219 1276.22 7.4905 1283.49 8.57069C1285.16 8.8184 1286.83 9.06621 1288.5 9.30651C1304.96 11.6714 1322.32 11.7256 1339.34 11.7788C1344.24 11.7941 1349.11 11.8093 1353.92 11.8795C1357.62 11.9336 1361.33 11.9888 1365.03 12.044C1390.74 12.4273 1416.42 12.8101 1442.17 12.8101C1449.29 12.8101 1456.38 13.299 1463.5 13.7897C1470.67 14.2843 1477.87 14.7809 1485.17 14.7809C1490.68 14.7809 1496.2 14.8066 1501.71 14.8323C1512.76 14.8836 1523.81 14.9351 1534.83 14.7809C1547.38 14.6055 1559.84 13.2212 1572.31 11.8362C1585.66 10.3527 1599.02 8.86856 1612.5 8.86856C1639.43 8.86856 1666.29 8.36666 1693.14 7.8649C1724.02 7.28798 1754.88 6.71124 1785.83 6.89777C1803.69 7.00537 1821.37 8.66938 1839.08 10.3359C1857.46 12.0644 1875.85 13.7955 1894.5 13.7955C1900.7 13.7955 1920 10.8393 1920 10.8393C1920 10.8393 1939.3 13.7955 1945.5 13.7955C1964.15 13.7955 1982.54 12.0644 2000.92 10.3359C2018.63 8.66938 2036.31 7.00537 2054.17 6.89777C2085.12 6.71124 2115.98 7.28798 2146.86 7.8649C2173.71 8.36666 2200.57 8.86856 2227.5 8.86856C2240.98 8.86856 2254.34 10.3527 2267.69 11.8362C2280.16 13.2212 2292.62 14.6055 2305.17 14.7809C2316.19 14.9351 2327.24 14.8836 2338.29 14.8323C2343.8 14.8066 2349.32 14.7809 2354.83 14.7809C2362.13 14.7809 2369.33 14.2843 2376.5 13.7897C2383.62 13.299 2390.71 12.8101 2397.83 12.8101C2423.58 12.8101 2449.26 12.4273 2474.97 12.044C2478.67 11.9888 2482.38 11.9336 2486.08 11.8795C2490.89 11.8093 2495.76 11.7941 2500.66 11.7788C2517.68 11.7256 2535.04 11.6714 2551.5 9.30651C2553.17 9.06621 2554.84 8.8184 2556.51 8.57069C2563.78 7.4905 2571.05 6.41219 2578.5 5.96711C2582.47 5.72991 2586.46 5.47915 2590.46 5.22766C2608.41 4.09933 2626.6 2.95619 2644.5 2.95619C2656.18 2.95619 2667.43 2.92078 2679 1.97079C2681.52 1.76393 2684.12 1.44152 2686.73 1.11695C2691.21 0.561631 2695.73 0 2700 0C2708.45 0 2716.65 0.508052 2724.85 1.01677C2731.3 1.4163 2737.75 1.81624 2744.33 1.97079C2751.86 2.14742 2759.29 2.78725 2766.72 3.42668C2775.44 4.1771 2784.15 4.92698 2793 4.92698C2806.92 4.92698 2820.76 5.91786 2834.59 6.90823C2847.33 7.81983 2860.06 8.73099 2872.83 8.86856C2877.98 8.92399 2883.07 9.3855 2888.17 9.84796C2893.63 10.3431 2899.1 10.8393 2904.67 10.8393H2937C2946.32 10.8393 2955.57 11.0856 2964.83 11.3319C2974.08 11.5783 2983.34 11.8247 2992.67 11.8247C2996.21 11.8247 2999.76 11.8436 3003.31 11.8626C3019.5 11.9487 3035.81 12.0355 3051.75 10.3466C3070.39 8.37194 3089.05 6.89052 3107.92 5.85763C3134.7 4.39122 3161.14 5.04693 3187.75 5.96711C3212 6.80557 3236.09 9.29957 3260.19 11.7941C3284.87 14.349 3309.55 16.9045 3334.42 17.6824C3353.91 18.2921 3373.24 17.2378 3392.56 16.1841C3395.49 16.0246 3398.41 15.8652 3401.33 15.7116C3410.66 15.2214 3420.07 15.166 3429.49 15.1106C3441.42 15.0405 3453.37 14.9702 3465.17 14.0145C3481.06 12.727 3497.07 11.8223 3513.08 10.9175C3523.28 10.3406 3533.49 9.76373 3543.67 9.08753C3559.45 8.03891 3575.17 7.80105 3590.9 7.56293C3602.75 7.38368 3614.6 7.20429 3626.5 6.67879C3636.7 6.22823 3646.75 5.07354 3656.78 3.92087C3669.56 2.45149 3682.32 0.985395 3695.33 0.985395C3697.82 0.985395 3700.32 0.982778 3702.82 0.980153C3725.72 0.956156 3749.18 0.931563 3771.67 2.90144C3776.75 3.34711 3781.97 3.43143 3787.19 3.51561C3791.83 3.59065 3796.47 3.66558 3801 3.99632C3805.8 4.34653 3811.08 5.02143 3816.5 5.71241C3824.44 6.72686 3832.66 7.77597 3840 7.88316V479.076C3832.66 478.968 3824.44 477.919 3816.5 476.905C3811.08 476.214 3805.8 475.539 3801 475.189C3796.47 474.858 3791.83 474.783 3787.19 474.708C3781.97 474.624 3776.75 474.539 3771.67 474.094C3749.18 472.124 3725.72 472.149 3702.82 472.173C3700.32 472.175 3697.82 472.178 3695.33 472.178C3682.32 472.178 3669.56 473.644 3656.78 475.113C3646.75 476.266 3636.7 477.421 3626.5 477.871C3614.6 478.397 3602.75 478.576 3590.9 478.755C3575.17 478.993 3559.45 479.231 3543.67 480.28C3530.81 481.134 3517.92 479.448 3505.04 477.763C3491.71 476.021 3478.4 474.281 3465.17 475.353C3453.37 476.309 3441.42 476.379 3429.49 476.449C3420.07 476.504 3410.66 476.56 3401.33 477.05C3398.41 477.204 3395.49 477.363 3392.56 477.523C3373.24 478.576 3353.91 479.631 3334.42 479.021C3310.5 478.273 3286.75 478.214 3263.02 478.155C3237.98 478.093 3212.95 478.031 3187.75 477.159C3161.14 476.239 3134.7 475.584 3107.92 477.05C3089.05 478.083 3070.39 479.564 3051.75 481.539C3041.08 482.669 3030.25 480.335 3019.4 477.998C3010.47 476.075 3001.53 474.149 2992.67 474.149C2983.34 474.149 2974.08 473.902 2964.83 473.656C2955.57 473.409 2946.32 473.163 2937 473.163H2904.67C2899.31 473.163 2894.05 474.897 2888.8 476.626C2883.49 478.375 2878.19 480.119 2872.83 480.061C2860.06 479.923 2847.33 479.012 2834.59 478.101C2820.76 477.11 2806.92 476.119 2793 476.119C2784.15 476.119 2775.44 475.37 2766.72 474.619C2759.29 473.98 2751.86 473.34 2744.33 473.163C2737.75 473.009 2731.3 472.609 2724.85 472.209C2716.65 471.7 2708.45 471.192 2700 471.192C2695.73 471.192 2691.2 471.754 2686.73 472.309C2684.12 472.634 2681.52 472.956 2679 473.163C2667.43 474.113 2656.18 474.149 2644.5 474.149C2626.6 474.149 2608.41 475.292 2590.46 476.42C2586.46 476.672 2582.47 476.922 2578.5 477.159C2571.05 477.605 2563.78 478.683 2556.51 479.763C2554.84 480.011 2553.17 480.259 2551.5 480.499C2535.04 482.864 2517.68 482.918 2500.66 482.971C2495.76 482.986 2490.89 483.002 2486.08 483.072C2482.38 483.126 2478.67 483.181 2474.97 483.236C2449.26 483.62 2423.58 484.003 2397.83 484.003C2390.71 484.003 2383.62 483.514 2376.5 483.023C2369.33 482.528 2362.13 482.032 2354.83 482.032C2346.35 482.032 2337.86 480.798 2329.37 479.564C2321.3 478.39 2313.23 477.217 2305.17 477.105C2291.75 476.917 2278.44 478.236 2265.11 479.556C2252.62 480.793 2240.11 482.032 2227.5 482.032C2197.08 482.032 2166.75 483.024 2136.41 484.016C2109.02 484.912 2081.63 485.808 2054.17 485.973C2034.5 486.092 2015.05 485.794 1995.53 485.496C1978.95 485.242 1962.33 484.988 1945.5 484.988C1939.3 484.988 1920 482.032 1920 482.032C1920 482.032 1900.7 484.988 1894.5 484.988C1877.67 484.988 1861.05 485.242 1844.47 485.496C1824.95 485.794 1805.5 486.092 1785.83 485.973C1758.37 485.808 1730.98 484.912 1703.59 484.016C1673.25 483.024 1642.92 482.032 1612.5 482.032C1599.89 482.032 1587.38 480.793 1574.89 479.556C1561.56 478.236 1548.25 476.917 1534.83 477.105C1526.77 477.217 1518.7 478.39 1510.63 479.564C1502.14 480.798 1493.65 482.032 1485.17 482.032C1477.87 482.032 1470.67 482.528 1463.5 483.023C1456.38 483.514 1449.29 484.003 1442.17 484.003C1416.42 484.003 1390.74 483.62 1365.03 483.236C1361.33 483.181 1357.62 483.126 1353.92 483.072C1349.11 483.002 1344.24 482.986 1339.34 482.971C1322.32 482.918 1304.96 482.864 1288.5 480.499C1286.83 480.259 1285.16 480.011 1283.49 479.763C1276.22 478.683 1268.95 477.605 1261.5 477.159C1257.53 476.922 1253.54 476.672 1249.54 476.42C1231.59 475.292 1213.4 474.149 1195.5 474.149C1183.82 474.149 1172.57 474.113 1161 473.163C1158.48 472.956 1155.88 472.634 1153.27 472.309C1148.8 471.754 1144.27 471.192 1140 471.192C1131.55 471.192 1123.35 471.7 1115.15 472.209C1108.7 472.609 1102.25 473.009 1095.67 473.163C1088.14 473.34 1080.71 473.98 1073.28 474.619C1064.56 475.37 1055.85 476.119 1047 476.119C1033.08 476.119 1019.24 477.11 1005.41 478.101C992.67 479.012 979.941 479.923 967.167 480.061C961.808 480.119 956.513 478.375 951.204 476.626C945.953 474.897 940.687 473.163 935.333 473.163H903C893.685 473.163 884.43 473.409 875.174 473.656C865.916 473.902 856.656 474.149 847.333 474.149C838.466 474.149 829.526 476.075 820.597 477.998C809.748 480.335 798.915 482.669 788.25 481.539C769.613 479.564 750.951 478.083 732.083 477.05C705.297 475.584 678.864 476.239 652.25 477.159C627.05 478.031 602.021 478.093 576.981 478.155C553.245 478.214 529.498 478.273 505.583 479.021C486.091 479.631 466.759 478.576 447.437 477.523C444.513 477.363 441.59 477.204 438.667 477.05C429.339 476.56 419.929 476.504 410.513 476.449C398.578 476.379 386.634 476.309 374.833 475.353C361.598 474.281 348.288 476.021 334.965 477.763C322.081 479.448 309.185 481.134 296.333 480.28C280.548 479.231 264.831 478.993 249.097 478.755C237.253 478.576 225.399 478.397 213.5 477.871C203.298 477.421 193.251 476.266 183.221 475.113C170.436 473.644 157.679 472.178 144.667 472.178C142.178 472.178 139.681 472.175 137.177 472.173C114.284 472.149 90.8227 472.124 68.3333 474.094C63.2453 474.539 58.0255 474.624 52.8149 474.708C48.1695 474.783 43.5313 474.858 39 475.189C34.2022 475.539 28.9164 476.214 23.5047 476.905C15.5594 477.919 7.3427 478.968 0 479.076V7.88316C7.34272 7.77597 15.5595 6.72685 23.5047 5.71239Z" fill="#343B6F"/>
</g>
<defs>
<clipPath id="clip0">
<path d="M0 0H2200V20H0V0Z" fill="white"/>
</clipPath>
</defs>
</svg>
