<svg width="2200" height="20" viewBox="0 0 2200 20" fill="none" xmlns="http://www.w3.org/2000/svg">
<g clip-path="url(#clip0)">
<path d="M0 0H2200V20H0V0Z" fill="white"/>
<path fill-rule="evenodd" clip-rule="evenodd" d="M23.5047 -460.288C28.9164 -460.979 34.2022 -461.653 39 -462.004C43.5312 -462.334 48.1694 -462.409 52.8148 -462.484C58.0255 -462.569 63.2452 -462.653 68.3333 -463.099C90.8229 -465.068 114.285 -465.044 137.177 -465.02C139.681 -465.017 142.178 -465.015 144.667 -465.015C157.679 -465.015 170.436 -463.549 183.221 -462.079C193.251 -460.926 203.298 -459.772 213.5 -459.321C225.399 -458.796 237.253 -458.616 249.097 -458.437C264.831 -458.199 280.548 -457.961 296.333 -456.912C306.512 -456.236 316.719 -455.659 326.925 -455.082C342.931 -454.178 358.936 -453.273 374.833 -451.985C386.634 -451.03 398.578 -450.96 410.512 -450.889C419.929 -450.834 429.339 -450.779 438.667 -450.288C441.59 -450.135 444.513 -449.975 447.437 -449.816C466.759 -448.762 486.091 -447.708 505.583 -448.318C530.45 -449.096 555.134 -451.651 579.813 -454.206C603.909 -456.7 628 -459.194 652.25 -460.033C678.864 -460.953 705.297 -461.609 732.083 -460.142C750.951 -459.109 769.613 -457.628 788.25 -455.653C804.189 -453.965 820.502 -454.051 836.686 -454.137C840.243 -454.156 843.794 -454.175 847.333 -454.175C856.656 -454.175 865.916 -454.422 875.174 -454.668C884.43 -454.914 893.685 -455.161 903 -455.161H935.333C940.901 -455.161 946.372 -455.657 951.832 -456.152C956.931 -456.614 962.02 -457.076 967.167 -457.131C979.941 -457.269 992.67 -458.18 1005.41 -459.092C1019.24 -460.082 1033.08 -461.073 1047 -461.073C1055.85 -461.073 1064.56 -461.823 1073.28 -462.573C1080.71 -463.213 1088.14 -463.853 1095.67 -464.029C1102.25 -464.184 1108.7 -464.584 1115.15 -464.983C1123.35 -465.492 1131.55 -466 1140 -466C1144.27 -466 1148.8 -465.438 1153.27 -464.883C1155.88 -464.558 1158.48 -464.236 1161 -464.029C1172.57 -463.079 1183.82 -463.044 1195.5 -463.044C1213.4 -463.044 1231.59 -461.901 1249.54 -460.772C1253.54 -460.521 1257.53 -460.27 1261.5 -460.033C1268.95 -459.588 1276.22 -458.51 1283.49 -457.429C1285.16 -457.182 1286.83 -456.934 1288.5 -456.693C1304.96 -454.329 1322.32 -454.274 1339.34 -454.221C1344.24 -454.206 1349.11 -454.191 1353.92 -454.121C1357.62 -454.066 1361.33 -454.011 1365.03 -453.956C1390.74 -453.573 1416.42 -453.19 1442.17 -453.19C1449.29 -453.19 1456.38 -452.701 1463.5 -452.21C1470.67 -451.716 1477.87 -451.219 1485.17 -451.219C1490.68 -451.219 1496.2 -451.193 1501.71 -451.168C1512.76 -451.116 1523.81 -451.065 1534.83 -451.219C1547.38 -451.394 1559.84 -452.779 1572.31 -454.164C1585.66 -455.647 1599.02 -457.131 1612.5 -457.131C1639.43 -457.131 1666.29 -457.633 1693.14 -458.135C1724.02 -458.712 1754.88 -459.289 1785.83 -459.102C1803.69 -458.995 1821.37 -457.331 1839.08 -455.664C1857.46 -453.936 1875.85 -452.204 1894.5 -452.204C1900.7 -452.204 1920 -455.161 1920 -455.161C1920 -455.161 1939.3 -452.204 1945.5 -452.204C1964.15 -452.204 1982.54 -453.936 2000.92 -455.664C2018.63 -457.331 2036.31 -458.995 2054.17 -459.102C2085.12 -459.289 2115.98 -458.712 2146.86 -458.135C2173.71 -457.633 2200.57 -457.131 2227.5 -457.131C2240.98 -457.131 2254.34 -455.647 2267.69 -454.164C2280.16 -452.779 2292.62 -451.394 2305.17 -451.219C2316.19 -451.065 2327.24 -451.116 2338.29 -451.168C2343.8 -451.193 2349.32 -451.219 2354.83 -451.219C2362.13 -451.219 2369.33 -451.716 2376.5 -452.21C2383.62 -452.701 2390.71 -453.19 2397.83 -453.19C2423.58 -453.19 2449.26 -453.573 2474.97 -453.956C2478.67 -454.011 2482.38 -454.066 2486.08 -454.121C2490.89 -454.191 2495.76 -454.206 2500.66 -454.221C2517.68 -454.274 2535.04 -454.329 2551.5 -456.693C2553.17 -456.934 2554.84 -457.182 2556.51 -457.429C2563.78 -458.51 2571.05 -459.588 2578.5 -460.033C2582.47 -460.27 2586.46 -460.521 2590.46 -460.772C2608.41 -461.901 2626.6 -463.044 2644.5 -463.044C2656.18 -463.044 2667.43 -463.079 2679 -464.029C2681.52 -464.236 2684.12 -464.558 2686.73 -464.883C2691.21 -465.438 2695.73 -466 2700 -466C2708.45 -466 2716.65 -465.492 2724.85 -464.983C2731.3 -464.584 2737.75 -464.184 2744.33 -464.029C2751.86 -463.853 2759.29 -463.213 2766.72 -462.573C2775.44 -461.823 2784.15 -461.073 2793 -461.073C2806.92 -461.073 2820.76 -460.082 2834.59 -459.092C2847.33 -458.18 2860.06 -457.269 2872.83 -457.131C2877.98 -457.076 2883.07 -456.614 2888.17 -456.152C2893.63 -455.657 2899.1 -455.161 2904.67 -455.161H2937C2946.32 -455.161 2955.57 -454.914 2964.83 -454.668C2974.08 -454.422 2983.34 -454.175 2992.67 -454.175C2996.21 -454.175 2999.76 -454.156 3003.31 -454.137C3019.5 -454.051 3035.81 -453.965 3051.75 -455.653C3070.39 -457.628 3089.05 -459.109 3107.92 -460.142C3134.7 -461.609 3161.14 -460.953 3187.75 -460.033C3212 -459.194 3236.09 -456.7 3260.19 -454.206C3284.87 -451.651 3309.55 -449.096 3334.42 -448.318C3353.91 -447.708 3373.24 -448.762 3392.56 -449.816C3395.49 -449.975 3398.41 -450.135 3401.33 -450.288C3410.66 -450.779 3420.07 -450.834 3429.49 -450.889C3441.42 -450.96 3453.37 -451.03 3465.17 -451.985C3481.06 -453.273 3497.07 -454.178 3513.08 -455.082C3523.28 -455.659 3533.49 -456.236 3543.67 -456.912C3559.45 -457.961 3575.17 -458.199 3590.9 -458.437C3602.75 -458.616 3614.6 -458.796 3626.5 -459.321C3636.7 -459.772 3646.75 -460.926 3656.78 -462.079C3669.56 -463.549 3682.32 -465.015 3695.33 -465.015C3697.82 -465.015 3700.32 -465.017 3702.82 -465.02C3725.72 -465.044 3749.18 -465.068 3771.67 -463.099C3776.75 -462.653 3781.97 -462.569 3787.19 -462.484C3791.83 -462.409 3796.47 -462.334 3801 -462.004C3805.8 -461.653 3811.08 -460.979 3816.5 -460.288C3824.44 -459.273 3832.66 -458.224 3840 -458.117V13.0756C3832.66 12.9684 3824.44 11.9193 3816.5 10.9048C3811.08 10.2138 3805.8 9.53891 3801 9.18872C3796.47 8.85797 3791.83 8.78302 3787.19 8.70798C3781.97 8.62381 3776.75 8.53949 3771.67 8.09381C3749.18 6.12396 3725.72 6.14856 3702.82 6.17255C3700.32 6.17517 3697.82 6.1778 3695.33 6.1778C3682.32 6.1778 3669.56 7.64389 3656.78 9.11325C3646.75 10.2659 3636.7 11.4206 3626.5 11.8712C3614.6 12.3966 3602.75 12.576 3590.9 12.7553C3575.17 12.9934 3559.45 13.2313 3543.67 14.2799C3530.81 15.1337 3517.92 13.4476 3505.04 11.7632C3491.71 10.0212 3478.4 8.28101 3465.17 9.35297C3453.37 10.3087 3441.42 10.3789 3429.49 10.4491C3420.07 10.5045 3410.66 10.5598 3401.33 11.05C3398.41 11.2037 3395.49 11.3631 3392.56 11.5226C3373.24 12.5763 3353.91 13.6306 3334.42 13.0208C3310.5 12.2727 3286.75 12.2138 3263.02 12.1549C3237.98 12.0928 3212.95 12.0308 3187.75 11.1595C3161.14 10.2393 3134.7 9.58365 3107.92 11.05C3089.05 12.0829 3070.39 13.5643 3051.75 15.539C3041.08 16.669 3030.25 14.3354 3019.4 11.998C3010.47 10.0745 3001.53 8.14856 2992.67 8.14856C2983.34 8.14856 2974.08 7.90213 2964.83 7.65573C2955.57 7.40942 2946.32 7.16315 2937 7.16315H2904.67C2899.31 7.16315 2894.05 8.89709 2888.8 10.6264C2883.49 12.3749 2878.19 14.1186 2872.83 14.0609C2860.06 13.9233 2847.33 13.0122 2834.59 12.1006C2820.76 11.1103 2806.92 10.1194 2793 10.1194C2784.15 10.1194 2775.44 9.36951 2766.72 8.61905C2759.29 7.97961 2751.86 7.33978 2744.33 7.16315C2737.75 7.00861 2731.3 6.60867 2724.85 6.20914C2716.65 5.70041 2708.45 5.19238 2700 5.19238C2695.73 5.19238 2691.2 5.75403 2686.73 6.30936C2684.12 6.63391 2681.52 6.9563 2679 7.16315C2667.43 8.11313 2656.18 8.14856 2644.5 8.14856C2626.6 8.14856 2608.41 9.29169 2590.46 10.42C2586.46 10.6715 2582.47 10.9223 2578.5 11.1595C2571.05 11.6046 2563.78 12.6829 2556.51 13.7631C2554.84 14.0108 2553.17 14.2586 2551.5 14.4989C2535.04 16.8638 2517.68 16.918 2500.66 16.9711C2495.76 16.9864 2490.89 17.0016 2486.08 17.0718C2482.38 17.1259 2478.67 17.1812 2474.97 17.2364C2449.26 17.6197 2423.58 18.0025 2397.83 18.0025C2390.71 18.0025 2383.62 17.5137 2376.5 17.0229C2369.33 16.5283 2362.13 16.0317 2354.83 16.0317C2346.35 16.0317 2337.86 14.7976 2329.37 13.5636C2321.3 12.3905 2313.23 11.2174 2305.17 11.1047C2291.75 10.9172 2278.44 12.2358 2265.11 13.5557C2252.62 14.7931 2240.11 16.0317 2227.5 16.0317C2197.08 16.0317 2166.75 17.0239 2136.41 18.016C2109.02 18.9119 2081.63 19.8078 2054.17 19.9733C2034.5 20.0918 2015.05 19.7943 1995.53 19.4958C1978.95 19.2422 1962.33 18.9879 1945.5 18.9879C1939.3 18.9879 1920 16.0317 1920 16.0317C1920 16.0317 1900.7 18.9879 1894.5 18.9879C1877.67 18.9879 1861.05 19.2422 1844.47 19.4958C1824.95 19.7943 1805.5 20.0918 1785.83 19.9733C1758.37 19.8078 1730.98 18.9119 1703.59 18.016C1673.25 17.0239 1642.92 16.0317 1612.5 16.0317C1599.89 16.0317 1587.38 14.7931 1574.89 13.5557C1561.56 12.2358 1548.25 10.9172 1534.83 11.1047C1526.77 11.2174 1518.7 12.3905 1510.63 13.5636C1502.14 14.7976 1493.65 16.0317 1485.17 16.0317C1477.87 16.0317 1470.67 16.5283 1463.5 17.0229C1456.38 17.5137 1449.29 18.0025 1442.17 18.0025C1416.42 18.0025 1390.74 17.6197 1365.03 17.2364C1361.33 17.1812 1357.62 17.1259 1353.92 17.0718C1349.11 17.0016 1344.24 16.9864 1339.34 16.9711C1322.32 16.918 1304.96 16.8638 1288.5 14.4989C1286.83 14.2586 1285.16 14.0108 1283.49 13.7631C1276.22 12.6829 1268.95 11.6046 1261.5 11.1595C1257.53 10.9223 1253.54 10.6715 1249.54 10.42C1231.59 9.29172 1213.4 8.14856 1195.5 8.14856C1183.82 8.14856 1172.57 8.11313 1161 7.16315C1158.48 6.9563 1155.88 6.63391 1153.27 6.30936C1148.8 5.75403 1144.27 5.19238 1140 5.19238C1131.55 5.19238 1123.35 5.70041 1115.15 6.20914C1108.7 6.60867 1102.25 7.00861 1095.67 7.16315C1088.14 7.33978 1080.71 7.97961 1073.28 8.61905C1064.56 9.36951 1055.85 10.1194 1047 10.1194C1033.08 10.1194 1019.24 11.1103 1005.41 12.1006C992.67 13.0122 979.941 13.9233 967.167 14.0609C961.808 14.1186 956.513 12.3749 951.204 10.6264C945.953 8.89709 940.687 7.16315 935.333 7.16315H903C893.685 7.16315 884.43 7.40942 875.174 7.65573C865.916 7.90213 856.656 8.14856 847.333 8.14856C838.466 8.14856 829.526 10.0745 820.597 11.998C809.748 14.3354 798.915 16.669 788.25 15.539C769.613 13.5643 750.951 12.0829 732.083 11.05C705.297 9.58365 678.864 10.2393 652.25 11.1595C627.05 12.0308 602.021 12.0928 576.981 12.1549C553.245 12.2138 529.498 12.2727 505.583 13.0208C486.091 13.6306 466.759 12.5763 447.437 11.5226C444.513 11.3631 441.59 11.2037 438.667 11.05C429.339 10.5598 419.929 10.5045 410.513 10.4491C398.578 10.3789 386.634 10.3087 374.833 9.35297C361.598 8.28101 348.288 10.0212 334.965 11.7632C322.081 13.4476 309.185 15.1337 296.333 14.2799C280.548 13.2313 264.831 12.9934 249.097 12.7553C237.253 12.576 225.399 12.3966 213.5 11.8712C203.298 11.4206 193.251 10.2659 183.221 9.11325C170.436 7.64389 157.679 6.1778 144.667 6.1778C142.178 6.1778 139.681 6.17517 137.177 6.17255C114.284 6.14856 90.8227 6.12396 68.3333 8.09381C63.2453 8.53949 58.0255 8.62381 52.8149 8.70798C48.1695 8.78302 43.5313 8.85797 39 9.18872C34.2022 9.53891 28.9164 10.2138 23.5047 10.9048C15.5594 11.9193 7.3427 12.9684 0 13.0756V-458.117C7.34272 -458.224 15.5595 -459.273 23.5047 -460.288Z" fill="#343B6F"/>
</g>
<defs>
<clipPath id="clip0">
<path d="M0 0H2200V20H0V0Z" fill="white"/>
</clipPath>
</defs>
</svg>
