<svg width="86" height="40" viewBox="0 0 86 40" fill="none" xmlns="http://www.w3.org/2000/svg">
<g clip-path="url(#clip0)">
<g clip-path="url(#clip1)">
<path d="M19.8547 39.708C30.8198 39.708 39.7088 30.8191 39.7088 19.854C39.7088 8.88894 30.8198 0 19.8547 0C8.88968 0 0.000732422 8.88894 0.000732422 19.854C0.000732422 30.8191 8.88968 39.708 19.8547 39.708Z" fill="#DFD1F4"/>
<path fill-rule="evenodd" clip-rule="evenodd" d="M31.2953 14.6458C31.2858 14.6301 31.3099 14.665 31.4618 14.6263C31.8396 14.53 32.3601 14.2344 32.7053 13.9639C33.5661 13.2893 33.8081 12.5701 33.911 12.6453C34.0005 12.7108 34.6168 14.6514 32.9939 16.2168C32.9095 16.2983 32.1297 16.9216 32.1244 16.9981C32.1224 17.0264 32.2809 16.9949 32.2948 16.9926C33.144 16.8506 34.3426 16.1983 34.3592 16.23C34.3772 16.2644 33.782 18.1729 32.2932 19.2935" fill="#F2A6C4"/>
<path d="M31.2953 14.6458C31.2858 14.6301 31.3099 14.665 31.4618 14.6263C31.8396 14.53 32.3601 14.2344 32.7053 13.9639C33.5661 13.2893 33.8081 12.5701 33.911 12.6453C34.0005 12.7108 34.6168 14.6514 32.9939 16.2168C32.9095 16.2983 32.1297 16.9216 32.1244 16.9981C32.1224 17.0264 32.2809 16.9949 32.2948 16.9926C33.144 16.8506 34.3426 16.1983 34.3592 16.23C34.3772 16.2644 33.782 18.1729 32.2932 19.2935" stroke="#34244D" stroke-width="0.310219" stroke-linecap="round" stroke-linejoin="round"/>
<path fill-rule="evenodd" clip-rule="evenodd" d="M16.0849 11.5771C21.5856 6.49142 29.0983 9.92249 30.8714 13.782C32.6037 17.5528 33.0479 21.3238 31.5244 25.7835C31.5463 25.7894 29.7169 29.884 27.3673 32.2381C23.3412 36.272 17.0581 37.304 11.7028 35.5584C6.81426 33.9649 2.20658 29.5766 1.19446 24.7956C1.17351 24.8144 1.16951 24.7452 1.15823 24.7194C1.13039 24.6558 1.02617 24.4859 1.1499 24.4672C1.56057 24.405 1.95178 25.0972 2.79449 25.0494C3.1736 25.0279 3.5567 24.5572 4.15214 24.3041C4.63473 24.099 4.35179 24.3925 6.24919 22.4529C7.08618 21.5972 8.02923 20.9135 8.90945 20.1102C9.46509 19.6031 9.93254 18.9999 10.5 18.5073C10.6607 18.3678 10.7463 18.1605 10.8686 17.9878L10.6785 18.1429C10.651 18.1576 14.2122 13.3085 16.0849 11.5771Z" fill="#00B7CE"/>
<path fill-rule="evenodd" clip-rule="evenodd" d="M20.9644 25.192C20.957 25.1966 22.401 26.6031 22.5708 26.4591C22.9559 26.1327 22.9526 25.6406 24.4278 23.8221C24.6203 23.5849 24.998 23.0197 25.3643 23.0498C25.707 23.0779 26.1518 24.1834 26.3113 24.4718C26.6235 25.0362 26.6827 25.2245 27.2964 24.0647C27.7401 23.226 28.619 21.4151 28.9066 21.3239C29.2827 21.2046 30.0275 23.0376 30.49 23.0907C31.0402 23.1538 32.205 20.8714 32.3296 21.205C32.6723 22.1225 31.5817 26.0809 31.1913 26.8593C29.0455 31.1383 22.5712 32.649 20.5109 30.3194C19.8441 29.5655 20.5726 28.5537 20.8456 27.7813C21.1721 26.8575 21.0207 26.081 20.9644 25.192Z" fill="#88DBE7"/>
<path d="M1.17407 24.3905C1.37579 25.2563 1.60004 26.0991 1.94577 26.9126C3.64651 30.9143 6.7435 34.4721 11.5356 35.7791C12.8681 36.1425 14.0104 36.3354 14.9226 36.3551C15.8403 36.3749 16.499 36.2188 16.8908 35.9133C17.2669 35.62 17.4258 35.1651 17.2886 34.4953C17.1497 33.8168 16.7083 32.9376 15.9027 31.8473L15.9027 31.8473C15.8789 31.815 15.8082 31.7567 15.6864 31.6828C15.571 31.6128 15.4275 31.5392 15.2788 31.4724C15.1301 31.4056 14.9793 31.347 14.85 31.306C14.7141 31.2631 14.6212 31.2461 14.579 31.2477M1.17407 24.3905L14.579 31.2477M1.17407 24.3905C1.63841 24.568 2.57011 24.9103 3.6718 25.3149C4.13921 25.4866 4.63722 25.6696 5.14312 25.8559C7.19638 26.6123 9.38538 27.4272 10.2334 27.7925C10.5542 27.9307 10.7437 28.194 10.9047 28.5453C10.9759 28.7007 11.039 28.8675 11.106 29.0446C11.1151 29.0687 11.1243 29.093 11.1336 29.1175C11.2103 29.3195 11.2932 29.5319 11.3961 29.7392C11.6033 30.1565 11.895 30.5598 12.3971 30.8452C12.897 31.1293 13.5886 31.2871 14.579 31.2477M1.17407 24.3905L14.579 31.2477" fill="#FFD350" stroke="#34244C" stroke-width="0.310219"/>
<path fill-rule="evenodd" clip-rule="evenodd" d="M22.6194 29.6615C22.9892 29.6304 24.7051 25.3157 25.06 25.2108C25.255 25.1531 25.4111 25.7696 25.4523 25.8758C25.5754 26.1931 26.2914 28.2016 26.621 28.1606C26.8753 28.129 27.2451 27.0842 28.5309 24.6607C28.6367 24.4613 28.8185 23.9 29.0639 23.8241C29.3732 23.7284 29.8991 25.6447 30.272 25.6808C30.5084 25.7037 31.8979 23.78 31.8782 24.1794C31.8604 24.5395 31.7999 25.0002 31.6781 25.3312C31.4922 25.836 31.3057 26.1811 31.1063 26.6854C28.5457 33.16 21.4531 36.8696 15.5919 36.4087C14.3495 36.3109 13.7965 36.2214 14.1436 36.0421C14.3385 35.9414 15.6519 35.6013 15.6429 35.4385C15.6335 35.2682 13.7944 35.1445 13.4999 34.6554C13.2383 34.2208 15.1156 33.5531 15.0822 33.2152C15.0389 32.7762 13.1362 32.5429 13.2431 32.0639C13.2866 31.8692 13.5549 31.7343 13.7012 31.6265C13.9132 31.4702 14.1536 31.2102 14.4016 31.1084C14.731 30.9732 15.4923 31.4722 18.0919 30.222C19.4926 29.5484 20.6377 28.5872 20.9978 27.1335C21.0145 27.0659 22.4075 29.6792 22.6194 29.6615Z" fill="#9466DA"/>
<path d="M14.2203 36.3467C13.9424 36.3238 13.9191 36.2525 14.1505 36.133C14.3453 36.0323 15.6535 35.6014 15.6445 35.4385C15.6351 35.2682 13.796 35.1445 13.5015 34.6554C13.2398 34.2209 15.1172 33.5532 15.0838 33.2153C15.0405 32.7762 13.1378 32.543 13.2447 32.064C13.2882 31.8692 13.5565 31.7343 13.7028 31.6265C13.9148 31.4702 14.487 31.2935 14.4032 31.1084C14.3194 30.9234 13.4306 31.139 12.8269 30.9159C12.4244 30.7672 12.0501 30.434 11.7039 29.9163" stroke="#34244D" stroke-width="0.310219" stroke-linecap="round" stroke-linejoin="round"/>
<path d="M3.43767 24.5887C3.75714 24.5079 4.08066 24.3588 4.39363 24.1134C14.0025 16.5809 14.9763 8.77368 22.3551 8.97243C23.7473 9.00993 25.0958 9.26085 26.3498 9.88212C31.1106 12.2408 31.0826 14.1343 31.2927 14.6377" stroke="#34244D" stroke-width="0.310219" stroke-linecap="round" stroke-linejoin="round"/>
<path fill-rule="evenodd" clip-rule="evenodd" d="M30.7676 13.8151C30.7634 13.8143 26.7389 11.1896 23.9777 13.2069C22.1943 14.5099 21.0187 17.2847 23.3078 19.1223C24.7247 20.2597 26.2228 20.3826 27.6812 19.216C30.1531 17.2387 30.3484 14.2778 30.7676 13.8151Z" fill="#9466DA"/>
<path fill-rule="evenodd" clip-rule="evenodd" d="M30.7674 13.8127C30.6996 13.8874 30.7337 13.8167 30.6012 14.2007C24.8117 11.0052 21.754 15.3485 22.3169 17.8991C21.5212 16.2129 22.5564 14.243 23.9776 13.2061C26.7389 11.1914 30.7632 13.8119 30.7674 13.8127Z" fill="white"/>
<path d="M30.7676 13.8151C30.7634 13.8143 26.7389 11.1896 23.9777 13.2069C22.1943 14.5099 21.0187 17.2847 23.3078 19.1223C24.7247 20.2597 26.2228 20.3826 27.6812 19.216C29.5264 17.74 29.9289 16.1326 30.7162 13.8719" stroke="#34244D" stroke-width="0.310219" stroke-linecap="round" stroke-linejoin="round"/>
<path fill-rule="evenodd" clip-rule="evenodd" d="M5.77394 27.9511C10.0989 31.2075 19.6988 30.5581 19.1399 24.1688C18.9649 22.1696 17.5428 21.215 15.6579 21.5375C15.6579 21.5375 16.0013 20.7406 16.101 20.3983C17.1136 16.9231 14.4894 13.6159 10.5678 15.046C5.79023 16.7884 5.07136 23.3043 3.75397 24.4206C3.58661 24.5625 2.86091 24.728 2.92756 24.965C3.20524 25.9521 4.88425 27.2812 5.77394 27.9511Z" fill="#28B3D2"/>
<path fill-rule="evenodd" clip-rule="evenodd" d="M5.77394 27.9511C10.0989 31.2075 19.6988 30.5581 19.1399 24.1688C18.9649 22.1696 17.5428 21.215 15.6579 21.5375C15.6579 21.5375 16.0013 20.7406 16.101 20.3983C17.1136 16.9231 14.4894 13.6159 10.5678 15.046C5.79023 16.7884 5.07132 23.3043 3.75397 24.4206C3.58661 24.5625 2.86091 24.728 2.92756 24.965C3.20524 25.9521 4.88425 27.2812 5.77394 27.9511Z" fill="#00B7CE"/>
<path fill-rule="evenodd" clip-rule="evenodd" d="M4.75943 22.8244C4.96897 22.6704 6.5933 23.9946 6.7694 26.0074C6.88559 27.3355 6.42992 27.5828 6.29568 28.2467C4.33553 27.4947 3.22406 26.0579 2.95727 24.8432C3.14387 24.7354 3.37857 24.7361 3.56567 24.6176C4.20663 24.2116 4.18237 23.2484 4.75943 22.8244Z" fill="#9466DA"/>
<path fill-rule="evenodd" clip-rule="evenodd" d="M19.1429 24.1959C19.5755 29.1414 13.8339 29.8391 13.8225 29.7615C13.5524 29.1578 13.3445 28.7732 13.2986 28.2492C13.2189 27.3382 13.545 26.968 13.5617 26.5634C12.9583 26.6331 10.7504 26.6354 10.6944 25.9956C10.5906 24.8095 10.7845 23.5597 11.5937 22.6886C10.5786 22.7032 9.11421 22.3186 8.30128 21.7083C8.3802 21.621 8.25163 20.3672 10.1739 18.9039C9.30776 18.5968 7.93913 18.2676 7.61171 17.2444C7.55074 17.1933 8.75399 15.746 10.5639 15.087C14.4898 13.6578 17.116 16.9602 16.1017 20.4311C16.0015 20.7729 15.6579 21.5689 15.6579 21.5689C17.5448 21.2463 18.9682 22.1993 19.1429 24.1959Z" fill="#88DBE7"/>
<path fill-rule="evenodd" clip-rule="evenodd" d="M14.4992 29.2325C13.4012 27.6854 14.755 25.8728 13.7467 25.8379C12.9933 25.8118 12.2415 25.7566 11.492 25.6768C11.3439 24.1384 12.4595 23.0441 12.1939 22.3282C11.8969 21.5277 11.0496 21.937 9.09451 21.3509C9.5361 20.1932 10.873 19.6768 10.8761 18.8108C10.8801 17.6964 9.12969 18.1604 8.34706 17.0763C8.06347 16.6835 7.44557 17.1172 7.73035 17.5116C8.5046 18.5842 10.1235 18.6163 10.1181 18.837C10.1109 19.1335 8.57328 20.1064 8.30296 21.3657C8.17281 21.9721 8.86633 22.0741 9.3 22.1879C10.3537 22.4644 11.1898 22.483 11.3708 22.5284C11.4062 22.5373 11.4936 22.5919 11.4755 22.5607C11.6098 22.7915 10.4456 24.3601 10.7797 26.0166C10.7646 26.1889 10.8548 26.3613 11.0785 26.3869C11.8362 26.4739 12.5963 26.5332 13.3579 26.569C13.2431 27.6392 13.232 28.7513 13.8825 29.6679C14.163 30.0631 14.7807 29.6292 14.4992 29.2325Z" fill="#F2A6C4"/>
<path fill-rule="evenodd" clip-rule="evenodd" d="M5.77394 27.9511C10.0989 31.2075 19.6988 30.5581 19.1399 24.1688C18.9649 22.1696 17.5428 21.215 15.6579 21.5375C15.6579 21.5375 16.0013 20.7406 16.101 20.3983C17.1136 16.9231 14.4894 13.6159 10.5678 15.046C5.79023 16.7884 5.07136 23.3043 3.75397 24.4206C3.58661 24.5625 2.86091 24.728 2.92756 24.965C3.20524 25.9521 4.88425 27.2812 5.77394 27.9511Z" stroke="#34244D" stroke-width="0.310219" stroke-linecap="round" stroke-linejoin="round"/>
<path fill-rule="evenodd" clip-rule="evenodd" d="M23.5876 18.3004C20.9849 17.6278 19.7916 20.3701 20.978 21.8073C22.3392 23.4561 25.4873 22.1859 25.1209 20.0288C24.9645 19.1083 24.5363 18.5455 23.5876 18.3004Z" fill="#F2A6C4"/>
<path fill-rule="evenodd" clip-rule="evenodd" d="M24.9871 21.2107C25.3947 18.6155 21.6335 17.7948 20.5945 20.0476C20.8145 18.8842 21.9159 17.8569 23.6244 18.2965C25.1395 18.6877 25.4527 20.2744 24.9871 21.2107Z" fill="white"/>
<path fill-rule="evenodd" clip-rule="evenodd" d="M23.5876 18.3004C20.9849 17.6278 19.7916 20.3701 20.978 21.8073C22.3392 23.4561 25.4873 22.1859 25.1209 20.0288C24.9645 19.1083 24.5363 18.5455 23.5876 18.3004Z" stroke="#34244D" stroke-width="0.310219" stroke-linecap="round" stroke-linejoin="round"/>
<path fill-rule="evenodd" clip-rule="evenodd" d="M18.5006 13.9766C18.4245 13.9249 19.2751 15.418 20.5847 15.2457C22.5021 14.9934 22.0861 12.41 23.6327 11.8373C23.6985 11.813 24.2188 11.7355 24.1869 11.6539C24.0251 11.2396 21.1768 10.2087 20.5867 12.241C19.9744 14.3494 18.5006 13.9766 18.5006 13.9766Z" fill="#F2A6C4"/>
<path fill-rule="evenodd" clip-rule="evenodd" d="M18.5006 13.9766C18.4245 13.9249 19.2751 15.418 20.5847 15.2457C22.5021 14.9934 22.0861 12.41 23.6327 11.8373C23.6985 11.813 24.2188 11.7355 24.1869 11.6539C24.0251 11.2396 21.1768 10.2087 20.5867 12.241C19.9744 14.3494 18.5006 13.9766 18.5006 13.9766Z" stroke="#34244D" stroke-width="0.310219" stroke-linecap="round" stroke-linejoin="round"/>
<path fill-rule="evenodd" clip-rule="evenodd" d="M25.104 16.8319C24.9762 17.1154 24.3397 17.1759 24.1126 16.7974C24.0859 16.753 24.1068 16.7839 24.1568 16.7972C24.3425 16.8463 24.5257 16.7148 24.5808 16.5289C24.6664 16.2403 24.4309 15.9668 24.3401 15.7113C24.2174 15.3664 24.3828 14.9728 24.6298 14.7276C25.5307 13.8333 27.4932 15.0253 27.5619 16.2896C27.6257 17.4649 26.2016 18.1106 25.1022 16.8464L25.104 16.8319Z" fill="#453066"/>
<path fill-rule="evenodd" clip-rule="evenodd" d="M26.2671 14.8768C26.0982 14.7425 25.8097 14.7343 25.6863 14.7654C25.3671 14.8459 25.0812 15.4318 25.4042 15.7942C25.8888 16.3379 27.1558 15.5835 26.2671 14.8768Z" fill="white"/>
<path fill-rule="evenodd" clip-rule="evenodd" d="M27.1203 16.1949C26.7408 15.8764 26.4242 16.4313 26.773 16.6239C27.0737 16.7899 27.4347 16.4587 27.1203 16.1949Z" fill="white"/>
<path d="M7.60742 17.207C7.93386 18.231 9.29663 18.561 10.1591 18.8687C8.25801 20.3226 8.37285 21.5882 8.29592 21.6738C9.10555 22.2848 10.5636 22.6703 11.5743 22.6561C10.7677 23.5288 10.5768 24.7806 10.6804 25.9646C10.7361 26.6013 12.9293 26.604 13.5354 26.534C13.519 26.9388 13.1944 27.3091 13.2742 28.2206C13.3201 28.745 13.5273 29.1298 13.7964 29.734" stroke="#34244D" stroke-width="0.310219" stroke-linecap="round" stroke-linejoin="round"/>
<path d="M31.2927 14.6382C35.0778 24.5039 28.4102 35.505 17.8905 36.4253C16.5939 36.5388 15.3216 36.5022 14.0922 36.3289" stroke="#34244D" stroke-width="0.310219" stroke-linecap="round" stroke-linejoin="round"/>
</g>
<path d="M48.0021 7.78099H51.5162V15.4794H56.2216V18.2043H48.0021V7.78099ZM57.0881 10.0592H60.4533V18.2043H57.0881V10.0592ZM58.7707 9.40405C58.1652 9.40405 57.6738 9.24522 57.2966 8.92756C56.9293 8.59997 56.7456 8.188 56.7456 7.69164C56.7456 7.19529 56.9293 6.78829 57.2966 6.47062C57.6738 6.14303 58.1652 5.97924 58.7707 5.97924C59.3862 5.97924 59.8776 6.1331 60.2449 6.44084C60.6122 6.74858 60.7958 7.14566 60.7958 7.63208C60.7958 8.14829 60.6122 8.57515 60.2449 8.91267C59.8776 9.24026 59.3862 9.40405 58.7707 9.40405ZM61.9449 7.15559H65.3102V18.2043H61.9449V7.15559ZM70.45 9.91033C71.8795 9.91033 72.9714 10.233 73.7259 10.8782C74.4804 11.5135 74.8576 12.4963 74.8576 13.8265V18.2043H71.7306V17.1322C71.3434 17.9462 70.5741 18.3533 69.4225 18.3533C68.7773 18.3533 68.2263 18.2441 67.7697 18.0257C67.323 17.7973 66.9805 17.4946 66.7423 17.1173C66.5139 16.7302 66.3998 16.2984 66.3998 15.8219C66.3998 15.0178 66.7075 14.4073 67.323 13.9903C67.9385 13.5734 68.8716 13.3649 70.1224 13.3649H71.4774C71.3682 12.7296 70.857 12.4119 69.9437 12.4119C69.5764 12.4119 69.2042 12.4715 68.8269 12.5906C68.4497 12.6998 68.1271 12.8537 67.859 13.0522L66.7869 10.8335C67.2535 10.5457 67.8144 10.3223 68.4696 10.1635C69.1347 9.99471 69.7948 9.91033 70.45 9.91033ZM70.4351 16.3281C70.6733 16.3281 70.8868 16.2636 71.0754 16.1346C71.264 16.0055 71.403 15.8119 71.4923 15.5538V14.988H70.6585C69.9735 14.988 69.631 15.2163 69.631 15.673C69.631 15.8616 69.7005 16.0204 69.8395 16.1495C69.9884 16.2686 70.1869 16.3281 70.4351 16.3281ZM80.8352 18.3533C79.912 18.3533 79.0831 18.1746 78.3485 17.8172C77.6238 17.4598 77.053 16.9585 76.6361 16.3133C76.2291 15.668 76.0256 14.9384 76.0256 14.1243C76.0256 13.3103 76.2291 12.5857 76.6361 11.9503C77.053 11.3051 77.6238 10.8038 78.3485 10.4464C79.0831 10.089 79.912 9.91033 80.8352 9.91033C81.8279 9.91033 82.6767 10.1238 83.3815 10.5506C84.0863 10.9775 84.5727 11.5681 84.8407 12.3226L82.2349 13.6032C81.9172 12.8884 81.4457 12.5311 80.8203 12.5311C80.4232 12.5311 80.0907 12.67 79.8226 12.948C79.5645 13.226 79.4355 13.6181 79.4355 14.1243C79.4355 14.6405 79.5645 15.0376 79.8226 15.3156C80.0907 15.5935 80.4232 15.7325 80.8203 15.7325C81.4457 15.7325 81.9172 15.3751 82.2349 14.6604L84.8407 15.941C84.5727 16.6954 84.0863 17.2861 83.3815 17.713C82.6767 18.1398 81.8279 18.3533 80.8352 18.3533ZM53.3329 22.9103C54.0476 22.9103 54.7028 23.0841 55.2984 23.4315C55.904 23.769 56.3805 24.2604 56.7279 24.9057C57.0853 25.541 57.264 26.2805 57.264 27.1243C57.264 27.9681 57.0853 28.7127 56.7279 29.3579C56.3805 30.0032 55.904 30.4995 55.2984 30.847C54.7028 31.1845 54.0476 31.3533 53.3329 31.3533C52.3303 31.3533 51.5857 31.0803 51.0993 30.5343V31.2043H47.8978V20.1556H51.2631V23.6102C51.7396 23.1436 52.4295 22.9103 53.3329 22.9103ZM52.5288 28.7325C52.9159 28.7325 53.2336 28.5935 53.4818 28.3156C53.73 28.0277 53.8541 27.6306 53.8541 27.1243C53.8541 26.6181 53.73 26.226 53.4818 25.948C53.2336 25.67 52.9159 25.5311 52.5288 25.5311C52.1416 25.5311 51.824 25.67 51.5758 25.948C51.3276 26.226 51.2035 26.6181 51.2035 27.1243C51.2035 27.6306 51.3276 28.0277 51.5758 28.3156C51.824 28.5935 52.1416 28.7325 52.5288 28.7325ZM58.3241 23.0592H61.6894V31.2043H58.3241V23.0592ZM60.0067 22.4041C59.4012 22.4041 58.9098 22.2452 58.5326 21.9276C58.1653 21.6 57.9816 21.188 57.9816 20.6916C57.9816 20.1953 58.1653 19.7883 58.5326 19.4706C58.9098 19.143 59.4012 18.9792 60.0067 18.9792C60.6222 18.9792 61.1136 19.1331 61.4809 19.4408C61.8482 19.7486 62.0318 20.1457 62.0318 20.6321C62.0318 21.1483 61.8482 21.5751 61.4809 21.9127C61.1136 22.2403 60.6222 22.4041 60.0067 22.4041ZM66.3824 23.9378C66.9781 23.2528 67.8566 22.9103 69.0181 22.9103V25.8884C68.75 25.8487 68.5019 25.8289 68.2735 25.8289C67.122 25.8289 66.5462 26.4146 66.5462 27.586V31.2043H63.181V23.0592H66.3824V23.9378ZM78.9079 20.1556V31.2043H75.7065V30.5343C75.22 31.0803 74.4755 31.3533 73.4729 31.3533C72.7581 31.3533 72.098 31.1845 71.4924 30.847C70.8968 30.4995 70.4203 30.0032 70.063 29.3579C69.7155 28.7127 69.5418 27.9681 69.5418 27.1243C69.5418 26.2805 69.7155 25.541 70.063 24.9057C70.4203 24.2604 70.8968 23.769 71.4924 23.4315C72.098 23.0841 72.7581 22.9103 73.4729 22.9103C74.3762 22.9103 75.0662 23.1436 75.5427 23.6102V20.1556H78.9079ZM74.277 28.7325C74.6641 28.7325 74.9818 28.5935 75.23 28.3156C75.4781 28.0277 75.6022 27.6306 75.6022 27.1243C75.6022 26.6181 75.4781 26.226 75.23 25.948C74.9818 25.67 74.6641 25.5311 74.277 25.5311C73.8898 25.5311 73.5722 25.67 73.324 25.948C73.0758 26.226 72.9517 26.6181 72.9517 27.1243C72.9517 27.6306 73.0758 28.0277 73.324 28.3156C73.5722 28.5935 73.8898 28.7325 74.277 28.7325Z" fill="#121426"/>
</g>
<defs>
<clipPath id="clip0">
<path d="M0 0H85.625V40H0V0Z" fill="white"/>
</clipPath>
<clipPath id="clip1">
<rect width="39.708" height="39.708" fill="white"/>
</clipPath>
</defs>
</svg>
