<svg width="380" height="320" viewBox="0 0 380 320" fill="none" xmlns="http://www.w3.org/2000/svg">
<path fill-rule="evenodd" clip-rule="evenodd" d="M335.464 173.92C335.464 253.533 270.248 318.073 189.801 318.073C109.356 318.073 44.1426 253.533 44.1426 173.92C44.1426 94.3069 109.356 29.767 189.801 29.767C270.248 29.767 335.464 94.3069 335.464 173.92Z" fill="#00B7CE"/>
<path fill-rule="evenodd" clip-rule="evenodd" d="M207.711 35.6365C210.03 33.8088 212.818 32.5504 215.741 32.0929C271.644 42.0424 316.473 83.5227 330.706 137.296C328.966 138.182 326.816 138.498 324.881 138.115C321.155 137.379 318.115 134.858 315.259 132.428L312.147 129.781C309.845 127.822 307.543 125.864 305.24 123.907C303.367 122.315 301.238 120.627 298.749 120.696C294.437 120.814 293.029 125.207 291.589 129.698C290.199 134.033 288.779 138.46 284.693 139.224C279.884 130.669 273.474 122.961 265.872 116.589C262.277 113.577 258.379 110.839 254.012 109.028C252.471 108.39 250.844 107.852 249.203 107.332C249.195 107.341 249.189 107.35 249.183 107.36L249.176 107.371C249.172 107.377 249.169 107.382 249.164 107.387C247.258 109.248 243.932 108.997 241.683 107.542C239.662 106.239 238.313 104.211 237.08 102.169C237.05 102.146 237.019 102.124 236.989 102.102L236.883 102.024C236.708 101.896 236.533 101.768 236.367 101.629C233.42 102.99 234.49 107.786 237.072 109.975C237.851 110.635 238.723 111.232 239.593 111.829C241.709 113.279 243.818 114.725 244.573 117.05C245.861 121.025 241.833 125.223 237.542 125.519C233.253 125.816 229.254 123.283 226.344 120.213C224.911 118.701 223.655 117.043 222.399 115.385C221.107 113.678 219.814 111.972 218.327 110.424C217.836 109.912 217.317 109.401 216.792 108.884C214.11 106.245 211.3 103.478 211.524 99.9133C211.592 98.8406 211.947 97.8187 212.302 96.7947C212.578 95.9972 212.855 95.1984 212.998 94.3732C213.325 92.4886 212.538 90.1092 210.599 89.7656C209.768 89.6173 208.95 89.8831 208.135 90.148C207.86 90.2373 207.586 90.3265 207.311 90.3997C202.621 91.6444 197.424 87.0073 198.314 82.3742C195.042 82.704 191.992 84.677 190.424 87.4804C188.109 87.0643 187.227 84.5891 186.418 82.3208L186.418 82.3206C186.285 81.9459 186.153 81.5769 186.018 81.2238C185.061 78.7305 181.473 76.4414 179.932 78.6441C179.135 79.7807 179.667 81.1461 180.206 82.5306C180.715 83.839 181.231 85.1645 180.639 86.33C179.131 89.2964 174.489 86.118 173.653 82.9082C172.819 79.7023 171.509 75.2596 168.126 75.7033C166.281 75.9449 165.329 77.5636 164.351 79.2269C163.533 80.6178 162.696 82.0397 161.304 82.7138C159.974 83.358 158.482 83.1671 156.971 82.9739C156.059 82.8573 155.141 82.7399 154.248 82.8041C152.762 82.9119 151.403 83.5161 150.037 84.1231C149.164 84.5113 148.288 84.9007 147.375 85.1619C145.034 85.8314 141.799 85.0873 141.415 82.7492C140.95 79.9065 144.812 78.5047 147.753 78.0885C150.693 77.6723 154.505 75.8976 153.653 73.1393C153.357 72.1813 152.543 71.5068 151.732 70.8343C150.892 70.1384 150.055 69.4448 149.797 68.4414C149.089 65.691 153.071 64.1715 155.992 64.3403C158.78 64.5013 162.349 64.5877 163.58 62.2966C163.379 59.6306 166.579 57.4986 169.477 57.4534C171.117 57.4263 172.721 57.7865 174.327 58.1472C175.745 58.4655 177.164 58.7841 178.611 58.8375C181.695 58.9474 185.353 57.0098 185.133 54.0257C185.064 53.0854 184.617 52.1758 184.179 51.2838C183.553 50.0097 182.945 48.7716 183.48 47.5315C183.839 46.7005 184.654 46.078 185.442 45.4768C186.505 44.6649 187.517 43.8918 187.286 42.6961C186.965 41.0215 184.42 40.8821 182.921 41.7695C181.03 42.8925 179.585 44.9169 178.198 46.8611C176.07 49.8417 174.078 52.634 170.818 51.7013C167.867 50.8571 166.959 46.919 168.288 44.2313C169.619 41.5437 172.384 39.8495 175.013 38.3005C181.479 34.4841 188.662 30.5204 196.143 31.6394C198.714 32.0223 201.144 32.998 203.546 33.9639C204.243 34.2437 204.94 34.5236 205.637 34.8035C206.328 35.0812 207.02 35.3588 207.711 35.6365ZM154.086 88.1536C150.469 85.5857 145.194 87.3605 141.869 90.2758C140.415 91.5515 139.15 93.0176 137.886 94.4815L137.886 94.4816L137.886 94.4817C136.261 96.3655 134.638 98.2458 132.619 99.7129C131.757 100.34 130.823 100.892 129.89 101.443L129.89 101.443C127.977 102.573 126.072 103.699 124.812 105.461C122.939 108.076 122.972 111.329 123.004 114.609C123.033 117.522 123.062 120.456 121.758 122.985C121.469 123.545 121.114 124.109 120.756 124.677C119.643 126.444 118.511 128.24 119.311 130.034C119.931 131.428 121.408 132.036 122.91 132.655L122.91 132.655C123.693 132.977 124.482 133.302 125.161 133.743C127.593 135.324 128.404 138.246 129.186 141.06L129.186 141.06C129.332 141.586 129.477 142.108 129.631 142.616C130.61 145.85 133.149 149.427 136.588 148.932L144.562 142.359C145.539 146.623 151.981 146.005 156.179 144.415C160.374 142.826 166.924 142.503 167.596 146.82C167.86 148.516 166.922 150.036 165.975 151.567C165.1 152.984 164.219 154.411 164.278 155.998C164.365 158.35 166.317 159.836 168.328 161.367C169.666 162.386 171.03 163.424 171.889 164.751C173.974 167.972 172.65 171.798 171.316 175.652C170.027 179.378 168.729 183.129 170.492 186.384C170.9 187.137 171.455 187.808 172.009 188.477L172.009 188.477C172.722 189.339 173.432 190.197 173.822 191.225C174.37 192.666 174.215 194.215 174.06 195.764L174.06 195.765C173.999 196.375 173.938 196.985 173.92 197.588C173.748 203.361 177.503 208.464 181.091 213.075C182.303 214.632 183.792 216.334 185.803 216.389C187.497 216.432 188.836 215.312 190.166 214.2C190.613 213.826 191.059 213.454 191.517 213.126C193.118 211.984 195.069 211.313 196.999 210.65C199.774 209.696 202.505 208.757 204.09 206.452C205.585 204.276 205.539 201.611 205.492 198.922C205.451 196.587 205.41 194.233 206.38 192.165C207.474 189.831 209.713 188.145 211.908 186.492C214.689 184.399 217.4 182.358 217.622 179.118C217.738 177.442 217.103 175.86 216.465 174.272C216.172 173.544 215.879 172.813 215.657 172.072C213.157 163.717 219.649 156.162 225.645 149.186C226.587 148.089 227.517 147.007 228.398 145.938C230.21 143.741 231.949 140.944 231.035 138.276C230.022 135.328 226.707 134.49 223.347 133.64C220.147 132.831 216.906 132.011 215.576 129.347C215.154 128.502 214.994 127.565 214.835 126.629C214.667 125.638 214.499 124.648 214.019 123.77C213.397 122.63 212.344 121.829 211.285 121.023C210.74 120.609 210.194 120.193 209.704 119.73C206.714 116.9 205.861 112.438 205.038 108.132C204.014 102.78 203.036 97.6677 198.061 96.2262C194.583 95.218 191.199 96.8826 187.797 98.5566C184.534 100.162 181.254 101.775 177.856 101.05C173.975 100.221 171.675 96.7658 169.443 93.4121C168.915 92.6185 168.39 91.8307 167.85 91.0846C165.024 87.1897 158.94 84.0211 155.563 87.4822L154.086 88.1536ZM111.432 172.387C109.921 172.44 108.394 172.581 106.867 172.722C102.652 173.11 98.4327 173.499 94.5365 172.053C91.5563 170.948 89.0047 168.849 86.4872 166.777C82.9761 163.888 79.5313 161.053 75.0824 161.046C72.8108 161.043 70.5278 161.813 68.2835 162.57C64.9579 163.693 61.7174 164.786 58.7248 163.292C57.5726 162.715 56.6575 161.817 55.739 160.917L55.7389 160.916C55.1538 160.343 54.5673 159.767 53.9174 159.273C51.4659 157.408 48.0692 156.868 45.0838 157.701C44.4817 163.027 44.1426 168.431 44.1426 173.918C44.1426 186.716 45.8477 199.118 49.0105 210.93C50.244 211.076 51.4951 211.07 52.7384 210.793C55.7954 210.11 58.335 208.229 60.8738 206.348C63.4362 204.45 65.9979 202.553 69.0901 201.888C70.7754 201.526 72.5086 201.56 74.2435 201.595C75.8287 201.627 77.4153 201.658 78.9681 201.387C84.058 200.502 87.6765 196.722 91.318 192.919C94.6977 189.389 98.0972 185.839 102.711 184.561C104.438 184.082 106.239 183.958 108.04 183.833C109.96 183.701 111.879 183.568 113.704 183.006C117.241 181.915 120.388 177.927 118.449 174.859C117.085 172.699 114.043 172.295 111.432 172.387ZM331.031 173.336L331.783 173.544C330.984 173.762 330.172 174.61 330 175.49C329.918 175.91 329.887 176.351 329.858 176.792C329.79 177.786 329.723 178.774 329.053 179.49C327.644 181 324.873 179.769 323.971 177.928C323.442 176.847 323.279 175.657 323.115 174.463C323 173.623 322.885 172.781 322.642 171.973C322.055 170.016 320.056 168.09 318.086 168.801C316.791 169.27 316.231 170.571 315.668 171.881C315.129 173.135 314.586 174.398 313.389 174.948C312.048 175.565 310.648 174.992 309.212 174.404C308.351 174.052 307.477 173.694 306.594 173.583C303.948 173.251 301.568 175.219 300.074 177.362C299.597 178.047 299.165 178.766 298.733 179.485C297.813 181.019 296.895 182.55 295.543 183.727C293.569 185.448 290.974 186.169 288.385 186.888C287.511 187.131 286.637 187.374 285.787 187.655C282.426 188.767 278.908 191.189 278.883 194.633C278.874 196.04 279.464 197.366 280.051 198.686C280.697 200.137 281.34 201.582 281.183 203.121C281.019 204.708 280.029 206.108 279.056 207.484C277.868 209.165 276.704 210.812 277.098 212.721C277.307 213.723 277.952 214.608 278.784 215.236C281.682 217.427 286.023 216.259 288.968 214.127C290.197 213.236 291.31 212.2 292.422 211.165L292.422 211.165C293.974 209.721 295.522 208.281 297.377 207.242C300.559 205.462 305.325 205.401 307.257 208.432C307.709 209.143 307.995 209.991 308.277 210.828C308.788 212.341 309.286 213.818 310.733 214.378C311.393 214.634 312.107 214.618 312.826 214.602H312.826C313.256 214.593 313.688 214.583 314.11 214.632C316.129 214.866 317.56 216.311 319.017 217.783C319.906 218.682 320.806 219.591 321.854 220.238C323.548 221.285 325.469 221.54 327.389 221.248C332.598 206.42 335.464 190.504 335.464 173.919C335.464 173.818 335.46 173.719 335.456 173.621V173.62V173.62V173.619V173.619V173.618C335.455 173.577 335.453 173.536 335.452 173.495C335.45 173.452 335.449 173.41 335.449 173.367C333.999 172.441 332.3 172.193 331.031 173.336ZM325.638 146.42C329.003 147.707 331.558 150.108 333.894 152.822C334.424 156.4 334.799 160.028 335.058 163.688C334.553 162.713 334.088 161.687 333.619 160.654C332.223 157.577 330.8 154.44 328.239 152.417C327.875 152.129 327.486 151.864 327.097 151.598L327.097 151.598L327.096 151.598L327.096 151.598L327.096 151.597L327.095 151.597C326.179 150.971 325.264 150.346 324.673 149.437C323.833 148.143 324.174 145.97 325.721 145.674L325.638 146.42ZM74.8027 97.2058C71.1508 98.8254 67.8633 101.207 65.2267 104.142C64.4725 104.98 63.732 106.001 63.9035 107.1C64.0341 107.939 64.6733 108.608 65.2812 109.221C66.392 110.338 67.5028 111.457 68.6116 112.576C69.51 113.479 70.5603 114.449 71.8543 114.449C73.1697 114.449 74.2278 113.449 75.1281 112.517C77.6829 109.88 80.3741 106.959 80.7287 103.356C81.0834 99.754 77.6712 95.7079 74.1148 96.8073L74.8027 97.2058ZM100.691 148.528C100.824 148.642 100.937 148.779 101.024 148.939L100.053 148.303C100.254 148.4 100.468 148.473 100.691 148.528ZM99.7822 148.125C100.125 148.182 100.442 148.315 100.691 148.528C101.139 148.639 101.622 148.682 102.103 148.725L102.104 148.725H102.104C102.424 148.753 102.744 148.781 103.053 148.83C104.265 149.016 105.631 150.041 105.183 151.15C104.887 151.881 104.059 152.083 103.222 152.286C102.859 152.374 102.494 152.463 102.17 152.595C100.444 153.298 99.8377 155.508 100.364 157.252C100.89 158.991 102.24 160.367 103.546 161.671C103.176 163.124 100.722 163.44 99.976 162.13C101.252 161.467 99.2745 159.702 97.9201 160.198C97.5121 160.347 97.1075 160.564 96.7048 160.78C95.7686 161.282 94.8424 161.778 93.9077 161.402C92.2883 160.752 92.719 158.437 93.4303 156.885C93.86 155.945 94.2897 155.005 94.7194 154.065C95.149 153.126 95.5787 152.186 96.0084 151.246C96.48 150.216 96.9984 149.128 97.963 148.498C98.4693 148.167 99.1365 148.029 99.735 148.117C99.8367 148.188 99.943 148.249 100.053 148.303L99.7822 148.125ZM99.7822 148.125L99.7522 148.12L99.735 148.117C99.6677 148.071 99.6025 148.021 99.5395 147.966L99.7822 148.125ZM320.4 232.696C317.073 229.174 313.242 225.408 308.327 225.09C307.381 225.029 306.432 225.102 305.484 225.176C304.457 225.256 303.431 225.335 302.409 225.243C300.441 225.069 298.315 223.967 297.964 222.083L298.109 223.136C297.822 222.15 296.828 221.357 295.758 221.37C294.476 221.386 293.334 222.552 293.386 223.792C293.461 225.595 295.238 226.286 297.116 227.015C298.539 227.568 300.02 228.144 300.86 229.242C301.55 230.146 301.705 231.286 301.859 232.422C301.91 232.801 301.962 233.179 302.033 233.548C302.319 235.022 303.296 236.661 304.845 236.671C305.352 236.675 305.841 236.495 306.327 236.318C306.917 236.102 307.501 235.888 308.105 236.005C308.833 236.146 309.36 236.72 309.88 237.287C310.454 237.912 311.019 238.529 311.837 238.542C312.628 238.553 313.202 237.995 313.787 237.424C314.106 237.113 314.429 236.798 314.793 236.571C316.582 235.456 318.488 236.594 320.253 238.051C320.858 236.848 321.444 235.63 322.017 234.407L320.4 232.696ZM298.192 223.734C298.195 223.53 298.166 223.329 298.109 223.136L298.192 223.734ZM231.534 201.247C231.609 201.392 231.702 201.532 231.814 201.667L232.788 199.442C232.162 199.922 231.753 200.55 231.534 201.247ZM233.889 196.254C232.129 197.313 230.656 199.568 231.534 201.247C230.838 203.458 232.058 206.358 234.36 207.377C237.389 208.716 241.126 207.342 243.338 204.929C245.548 202.515 246.542 199.295 247.282 196.148C247.393 195.679 247.499 195.208 247.605 194.736L247.605 194.736C248.213 192.043 248.825 189.332 250.167 186.913C250.96 185.478 251.907 183.474 250.582 182.472C249.623 181.748 248.235 182.268 247.152 182.806C244.8 183.976 242.286 185.303 241.179 187.628C240.85 188.32 240.663 189.07 240.478 189.818C240.233 190.804 239.989 191.785 239.419 192.626C238.55 193.911 237.11 194.615 235.666 195.321L235.666 195.322C235.06 195.618 234.454 195.914 233.889 196.254ZM93.0305 66.215C85.6546 72.7112 78.9316 79.9181 73.0153 87.7611C73.4985 88.6582 74.3638 89.3218 75.4024 89.2433C76.4714 89.1632 77.3882 88.4139 78.2739 87.6901C79.3644 86.7988 80.4079 85.946 81.6305 86.428C82.5969 86.8089 82.9668 87.8215 83.338 88.8374C83.7034 89.8374 84.07 90.8406 85.0077 91.2477C85.5735 91.4947 86.2302 91.4551 86.8769 91.416C87.669 91.3682 88.4459 91.3212 89.022 91.8033C89.5365 92.2332 89.6768 92.9419 89.7664 93.5976C89.8479 94.197 89.9136 94.8028 89.9795 95.4096C90.224 97.6622 90.4699 99.9276 91.5261 101.927C92.8668 104.464 96.1075 106.378 98.7675 105.157C101.365 103.965 101.948 100.653 101.823 97.8695C101.808 97.5353 101.788 97.1971 101.769 96.8568C101.625 94.3637 101.475 91.7542 102.938 89.7556C103.723 88.683 104.879 87.9363 106.03 87.1932C107.348 86.3423 108.658 85.4961 109.396 84.1704C109.904 83.2557 110.072 82.2224 110.24 81.186C110.383 80.3004 110.527 79.4127 110.885 78.5949C111.482 77.2259 112.609 76.186 113.738 75.1451C114.827 74.1395 115.918 73.133 116.534 71.8278C117.126 70.5753 117.222 69.1657 117.308 67.7915L117.365 66.8825C117.667 62.101 117.97 57.3211 118.27 52.5394C118.352 51.2477 118.225 49.6182 116.982 49.151C116.969 49.1457 116.955 49.145 116.941 49.1442C116.934 49.1439 116.928 49.1435 116.922 49.1427C116.916 49.142 116.91 49.141 116.904 49.1392C111.22 52.3981 105.781 56.0241 100.615 59.9898C98.0484 62.0197 95.5151 64.0889 93.0305 66.215ZM95.2157 211.699C96.1745 202.816 102.742 193 111.92 193.815C118.374 193.785 121.248 195.838 124.282 198.005C126.234 199.399 128.253 200.84 131.333 201.805C133.73 202.557 136.191 203.338 138.134 204.893C139.233 205.775 140.118 206.865 141.004 207.956C141.814 208.954 142.625 209.952 143.6 210.792C145.671 212.576 148.289 213.501 150.92 214.43C152.395 214.95 153.873 215.472 155.262 216.148C159.124 218.031 162.565 222.446 160.595 226.174C160.081 227.148 159.267 227.916 158.451 228.686C157.731 229.365 157.009 230.045 156.491 230.87C155.208 232.91 155.293 235.538 155.375 238.091C155.477 241.259 155.575 244.312 153.056 245.99C152.077 246.641 150.9 246.888 149.722 247.135C148.537 247.383 147.353 247.632 146.372 248.291C144.243 249.724 143.925 252.312 143.603 254.934C143.455 256.135 143.307 257.344 142.983 258.451C142.108 261.438 139.883 263.725 137.649 266.022C136.629 267.071 135.607 268.122 134.71 269.243C131.687 273.018 131.182 279.841 130.764 285.489C130.402 290.382 130.105 294.394 128.293 294.784C123.78 295.435 120.721 290.516 119.29 286.318C116.184 277.199 114.452 267.643 114.163 258.044C114.144 257.406 114.13 256.762 114.116 256.115C113.99 250.46 113.86 244.572 110.511 240.028C109.031 238.02 107.043 236.466 105.049 234.907C103.559 233.742 102.066 232.575 100.779 231.214C95.929 226.088 94.4713 218.618 95.2157 211.699Z" fill="#FAF3EB" fill-opacity="0.6"/>
<path fill-rule="evenodd" clip-rule="evenodd" d="M154.698 238.238C156.214 238.307 157.73 238.621 159.094 239.279C162.964 241.277 163.606 244.772 161.304 247.377C158.96 249.903 154.478 251.109 150.296 250.359C145.999 249.485 143.888 246.896 143.846 244.622C143.832 243.633 144.241 242.663 144.962 241.872C145.434 240.983 146.2 240.201 147.129 239.601C148.912 238.429 151.621 237.783 154.111 238.118C154.237 238.136 154.349 238.162 154.463 238.188C154.54 238.205 154.617 238.223 154.698 238.238ZM230.418 238.238C228.903 238.307 227.389 238.621 226.027 239.279C222.159 241.277 221.522 244.772 223.819 247.377C226.162 249.903 230.64 251.109 234.816 250.359C239.107 249.485 241.215 246.896 241.26 244.622C241.274 243.633 240.865 242.663 240.144 241.872C239.672 240.983 238.908 240.201 237.979 239.601C236.197 238.429 233.491 237.783 231.006 238.118C230.88 238.136 230.767 238.162 230.653 238.188C230.576 238.206 230.498 238.223 230.418 238.238Z" fill="#F2A6C4"/>
<path fill-rule="evenodd" clip-rule="evenodd" d="M157.784 16.6954C157.861 17.1606 157.935 17.6037 157.975 18.0165C157.979 18.0421 157.979 18.0676 157.983 18.0951C159.721 18.5446 161.485 18.8077 163.145 18.9373C163.09 18.8872 163.033 18.8376 162.977 18.7881L162.977 18.788L162.976 18.7879C162.871 18.6959 162.766 18.6044 162.674 18.5113C161.53 17.3746 160.828 16.3145 160.581 15.9081C160.308 15.5233 159.583 14.3866 158.996 12.7729C158.552 11.5419 158.236 10.0185 158.184 8.47151C157.921 9.18022 157.755 9.74758 157.714 9.97924C157.595 10.47 157.272 12.7886 157.545 14.9736C157.597 15.5692 157.693 16.1476 157.784 16.6954ZM146.963 46.5692C148.029 47.698 149.978 48.6305 152.123 48.6305C152.994 48.66 153.836 48.5343 154.637 48.3439C152.663 46.9913 151.956 44.7866 151.763 43.2769C151.582 41.9132 151.702 40.8721 151.761 40.3607C151.77 40.2831 151.777 40.2177 151.782 40.1652C151.786 40.1358 151.79 40.1027 151.795 40.0662C151.853 39.6009 151.981 38.5739 152.455 37.3088C152.846 36.2408 153.56 35.0079 154.61 34.0008C153.54 33.4688 152.536 32.8524 151.601 32.1967C150.202 32.8072 148.409 33.7652 147.263 35.1925C146.004 36.6236 145.295 38.6202 145.098 40.2713C144.911 41.936 145.186 43.2023 145.313 43.6499C145.447 44.0936 145.854 45.3814 146.963 46.5692ZM194.9 20.6119C197.447 21.191 199.996 22.1451 202.065 23.6391C204.17 25.1488 205.602 27.1061 206.37 28.9594C207.157 30.8185 207.202 32.5657 206.962 33.673C206.703 34.8018 206.247 35.3103 205.947 35.2396C205.666 35.1786 205.554 34.7282 205.38 34.0286C205.15 33.1075 204.814 31.7544 203.842 30.2884C203.012 29.0163 201.732 27.6754 200.091 26.7174C198.421 25.7279 196.334 25.0703 194.093 24.6639C189.956 23.9927 185.287 23.78 181.458 23.6056L181.457 23.6055C181.109 23.5897 180.767 23.5742 180.434 23.5586C176.387 23.4114 173.273 23.433 172.143 23.4526C171.862 23.4511 171.466 23.4606 170.966 23.4726C169.46 23.5087 167.016 23.5672 163.985 23.4153C159.996 23.2052 154.744 22.3022 150.473 19.3672C148.658 18.1343 147.086 16.5304 145.965 14.736C146.246 16.656 146.755 18.4936 147.353 19.9856C148.175 21.9979 149.064 23.4173 149.428 23.8904C149.75 24.391 150.72 25.6553 152.209 27.0668C153.686 28.4941 155.781 29.937 157.991 31.0305C160.207 32.1103 162.526 32.7994 164.303 33.2352L164.593 33.3059C166.208 33.7 167.32 33.971 167.358 34.4995C167.417 35.2121 166.152 35.8678 164.059 36.0641C162.681 36.1917 160.951 36.0327 159.15 35.6224C158.751 35.8678 158.355 36.1486 158.006 36.4921C156.709 37.6818 156.122 40.1201 156.097 40.6698C156.068 40.9505 155.99 41.7397 156.108 42.6565C156.21 43.5773 156.576 44.5176 157.056 45.0065C157.398 45.456 158.39 45.7171 159.018 45.7054C159.314 45.7363 159.601 45.6808 159.887 45.6255C160.235 45.5581 160.582 45.4911 160.939 45.5817C161.228 45.674 161.438 45.9606 161.417 46.4632C161.407 46.9657 161.074 47.6529 160.429 48.2045C160.376 48.2487 160.314 48.2892 160.253 48.3298C160.224 48.3487 160.196 48.3677 160.168 48.3871C160.012 48.658 159.836 48.9348 159.612 49.2195C158.225 51.0217 155.391 52.5942 152.264 52.763C149.152 53.0536 145.77 51.7284 143.83 49.6651C142.015 47.7469 141.416 45.7712 141.177 44.9827L141.158 44.9201L141.136 44.8514C140.936 44.1505 140.458 42.2187 140.749 39.7706C141.037 37.352 142.156 34.4092 144.325 32.3517C145.667 31.0227 147.24 30.2138 148.711 29.776C147.22 28.2919 146.24 26.9648 145.883 26.417C145.441 25.8359 144.282 24.1103 143.284 21.6445C142.298 19.1827 141.581 15.9493 141.659 12.8023C141.67 9.65727 142.477 6.66341 143.483 4.6747C144.5 2.67028 145.622 1.67298 146.182 1.97531C146.236 2.00393 146.266 2.06473 146.297 2.12551C146.311 2.15228 146.324 2.17903 146.339 2.20304C146.616 2.43554 146.588 3.01814 146.547 3.87631V3.8764C146.504 4.78632 146.446 6.00604 146.719 7.44672C146.965 8.87592 147.548 10.5113 148.538 12.021C149.504 13.5169 150.956 14.8656 152.681 15.9179C153.029 16.1358 153.394 16.3262 153.758 16.5167C153.747 16.4842 153.735 16.4519 153.723 16.4195C153.714 16.3935 153.704 16.3676 153.695 16.3416C153.639 16.1909 153.584 16.0403 153.542 15.8845C152.632 12.9299 153.3 9.70635 153.466 9.06635C153.573 8.40672 154.296 5.41089 156.2 3.26709C157.079 2.1677 158.227 1.36476 159.146 0.962304C159.903 0.683531 160.495 0.640341 160.85 0.850403C161.302 0.524513 161.729 0.412611 162.044 0.601077C162.672 0.995397 162.564 2.13817 162.423 3.63289C162.326 4.66093 162.213 5.85545 162.313 7.08746C162.377 8.5893 162.703 10.097 163.118 11.2475C163.541 12.3998 164.003 13.2205 164.201 13.4933C164.515 14.0725 166.372 16.4008 168.9 17.7535C169.864 18.3306 170.874 18.7351 171.759 19.0806C171.815 19.0806 171.874 19.08 171.931 19.0795L171.963 19.0792C171.983 19.0791 172.002 19.0789 172.021 19.0788C172.039 19.0787 172.056 19.0786 172.072 19.0786L172.339 19.0738C173.661 19.0495 176.716 18.9933 180.584 19.1395C182.632 19.2141 184.914 19.3495 187.284 19.5596C186.662 18.5073 185.694 16.3655 185.764 14.1451C185.739 11.3358 187.212 9.09973 188.179 9.56893C189.192 10.0229 189.38 11.205 189.59 12.5262V12.5263L189.59 12.5266L189.59 12.5267C189.657 12.9478 189.726 13.383 189.825 13.8133C190.145 15.6254 190.971 17.3137 191.244 17.6533C191.456 18.0283 192.77 19.536 194.518 20.4941C194.534 20.5039 194.55 20.5131 194.566 20.5221C194.588 20.5347 194.609 20.5471 194.631 20.5608C194.667 20.5679 194.702 20.5743 194.738 20.5808C194.792 20.5904 194.846 20.6001 194.9 20.6119ZM31.634 174.373C34.2239 178.507 38.0219 183.182 42.274 187.19C46.7734 191.514 51.7449 194.994 55.3176 197.495L55.3179 197.495L55.318 197.495C58.4607 199.695 60.5211 201.137 60.2256 201.73C59.7872 202.81 48.8763 198.567 39.5263 190.261C34.8591 186.177 30.724 181.193 27.9529 176.784C25.1565 172.39 23.4786 168.711 22.9077 167.429C22.2997 166.145 20.7485 162.703 19.1505 158.114C17.5331 153.531 16.0189 147.746 15.1985 142.021C14.3937 136.412 14.3197 130.898 14.723 126.797C13.9377 126.593 13.0608 126.151 12.1936 125.662C11.039 124.987 9.88195 124.23 9.09164 123.712L9.09122 123.712L9.0911 123.712C8.66518 123.433 8.34585 123.224 8.19094 123.135C8.04326 123.047 7.71387 122.867 7.26926 122.624C6.39379 122.144 5.07158 121.42 3.81022 120.676C1.92191 119.533 0.136884 118.304 0.557807 117.034C0.949499 115.842 3.23535 116.084 5.48806 116.902C7.54128 117.627 9.4906 118.814 10.1848 119.236L10.272 119.289L10.3111 119.313C9.07716 117.305 8.25364 115.186 7.99804 114.529L7.96294 114.438C7.70765 113.842 6.64755 111.207 6.25196 108.574C5.8096 105.948 6.02981 103.431 7.08406 103.311C8.54755 103.142 9.3855 105.316 10.2001 107.565C10.4481 108.295 10.6971 109.039 10.9286 109.731L10.9298 109.735L10.9301 109.736C11.4164 111.188 11.8248 112.409 11.9831 112.78C12.1897 113.31 13.2303 115.581 14.2885 117.815C14.102 115.516 14.1567 113.027 14.1828 111.837L14.1828 111.837C14.1886 111.572 14.193 111.372 14.193 111.252L14.1928 111.141L14.1924 111.036C14.1853 109.166 14.1527 100.49 16.2002 100.49C18.8372 100.49 18.6191 108.209 18.5501 110.654L18.5501 110.654L18.55 110.655L18.55 110.656C18.5424 110.924 18.5367 111.128 18.5367 111.252C18.5367 111.336 18.538 111.459 18.5397 111.616V111.616V111.616V111.616C18.5495 112.544 18.5719 114.657 18.412 116.792C19.2348 115.768 20.0398 114.913 20.4649 114.462L20.465 114.462C20.5654 114.355 20.6446 114.271 20.6978 114.213C20.7248 114.182 20.7585 114.143 20.7985 114.098C21.3247 113.495 22.942 111.642 24.7511 110.161C26.6921 108.559 28.8181 107.406 29.7048 108.392C30.5486 109.326 29.2118 111.236 27.6547 113.084C26.5314 114.402 25.2896 115.702 24.5414 116.486C24.2472 116.794 24.0294 117.022 23.9249 117.14C23.8536 117.218 23.7391 117.348 23.5893 117.518L23.5893 117.518C23.1783 117.984 22.5022 118.749 21.7267 119.584C22.5783 119.252 23.6891 118.911 24.8369 118.838C26.9571 118.649 28.8844 119.376 28.7752 120.693C28.6859 121.854 27.386 122.297 26.0169 122.764L26.0156 122.764L26.0154 122.764L25.8174 122.832C25.7595 122.852 25.7015 122.872 25.6437 122.892C24.1276 123.367 22.5725 123.972 22.2451 124.148C21.9119 124.309 20.5497 125.085 19.2967 125.929C19.1728 126.006 19.0496 126.084 18.9273 126.161L18.9242 126.163L18.9225 126.164L18.9223 126.164C18.4594 126.456 18.0091 126.741 17.5818 126.942C17.8059 130.896 18.2444 136.077 19.2187 141.356C21.0798 152.248 25.6612 163.145 26.8499 165.591C27.4092 166.848 29.0169 170.252 31.634 174.373ZM252.515 197.392C251.67 196.063 250.21 195.225 249.91 195.062L249.862 195.031C249.499 194.795 248.24 193.978 246.835 193.853C245.362 193.674 244.005 194.296 244.048 195.763C244.074 196.806 244.916 197.3 245.715 197.769L245.812 197.826C245.985 197.917 246.158 198.007 246.326 198.095L246.33 198.097C246.983 198.439 247.556 198.739 247.712 198.835C247.842 198.91 248.21 199.196 248.662 199.549L248.662 199.549C248.926 199.754 249.218 199.982 249.509 200.204C250.317 200.775 251.188 201.389 252.322 200.84C253.511 200.27 253.4 198.706 252.515 197.392ZM134.121 194.995C134.55 194.803 136.118 194.102 137.732 193.926C139.413 193.724 141.035 194.093 141.208 195.41C141.376 196.665 140.113 197.352 138.807 197.915C137.977 198.261 137.106 198.566 136.5 198.778L136.5 198.778L136.499 198.778C136.146 198.902 135.883 198.994 135.771 199.044C135.682 199.08 135.512 199.156 135.285 199.258C134.731 199.506 133.838 199.906 132.946 200.25C131.679 200.709 130.368 201.08 129.715 200.218C128.828 199.052 129.635 197.69 130.888 196.708C131.988 195.817 133.374 195.285 133.915 195.078C133.981 195.052 134.035 195.031 134.074 195.016L134.121 194.995ZM159.663 219.459C160.282 220.714 160.726 221.614 161.388 221.614C162.14 221.629 162.805 220.167 162.596 217.807C162.392 215.479 161.16 212.389 158.925 209.96C156.77 207.463 153.681 205.7 150.941 204.972C148.184 204.249 145.892 204.432 145.124 204.573C144.335 204.62 142.211 204.968 139.816 206.161C137.405 207.32 134.923 209.516 133.249 212.127C131.584 214.752 130.824 217.781 130.98 219.994C131.134 222.23 131.99 223.504 132.818 223.388C133.384 223.32 133.675 222.436 134.087 221.183L134.087 221.182L134.088 221.18L134.089 221.177C134.164 220.947 134.244 220.705 134.33 220.453C134.886 218.82 135.839 216.759 137.253 214.951C138.691 213.166 140.519 211.654 142.195 210.879C143.856 210.084 145.237 209.805 145.754 209.785C146.266 209.679 147.733 209.63 149.598 210.101C151.45 210.598 153.677 211.76 155.419 213.443C157.228 215.07 158.475 217.12 159.303 218.738C159.361 218.851 159.417 218.964 159.472 219.074C159.532 219.193 159.59 219.31 159.646 219.424L159.659 219.451L159.663 219.459ZM222.538 219.464C221.919 220.717 221.476 221.614 220.814 221.614C220.064 221.629 219.397 220.167 219.604 217.807C219.809 215.479 221.042 212.389 223.275 209.96C225.433 207.463 228.521 205.7 231.261 204.972C234.021 204.249 236.31 204.432 237.078 204.573C237.867 204.62 239.992 204.968 242.387 206.161C244.797 207.32 247.28 209.516 248.954 212.127C250.616 214.752 251.378 217.781 251.222 219.994C251.066 222.23 250.213 223.504 249.384 223.388C248.816 223.32 248.525 222.432 248.113 221.176L248.112 221.175C248.037 220.946 247.958 220.704 247.872 220.453C247.315 218.82 246.364 216.759 244.949 214.951C243.511 213.166 241.681 211.654 240.007 210.879C238.347 210.084 236.965 209.805 236.449 209.785C235.936 209.679 234.469 209.63 232.602 210.101C230.753 210.598 228.525 211.76 226.783 213.443C224.975 215.07 223.728 217.12 222.901 218.738C222.773 218.99 222.652 219.233 222.538 219.464ZM208.852 229.138C208.788 229.142 208.729 229.179 208.673 229.221C208.101 228.524 206.298 228.892 204.012 229.359C203.045 229.557 201.993 229.772 200.911 229.931C197.167 230.565 193.081 230.715 192.179 230.715C191.473 230.75 188.934 230.615 186.074 230.463C185.302 230.422 184.507 230.38 183.717 230.34C180.116 230.187 176.653 230.247 176.279 231.602C176.215 231.571 176.15 231.539 176.08 231.541C175.055 231.437 174.167 239.41 177.561 247.335C178.409 249.271 179.491 251.224 180.917 252.891C182.328 254.538 183.947 255.875 185.559 256.849C188.796 258.837 191.931 259.171 193.054 259.212C194.133 259.281 197.647 259.316 201.201 257.039C204.734 254.826 207.708 250.6 208.903 246.073C211.321 237.368 210.093 228.985 208.852 229.138ZM337.392 187.19C341.64 183.182 345.442 178.507 348.03 174.373C350.649 170.252 352.257 166.848 352.816 165.591C354.003 163.145 358.584 152.248 360.447 141.356C361.42 136.077 361.858 130.896 362.084 126.942C361.654 126.74 361.203 126.455 360.739 126.162L360.738 126.162L360.738 126.162L360.566 126.053C360.5 126.012 360.434 125.97 360.367 125.929C359.114 125.085 357.754 124.309 357.419 124.148C357.091 123.972 355.536 123.367 354.022 122.892C353.899 122.849 353.776 122.807 353.654 122.766C352.28 122.298 350.978 121.856 350.891 120.693C350.78 119.376 352.707 118.649 354.829 118.838C355.977 118.911 357.086 119.252 357.937 119.584C357.192 118.78 356.537 118.04 356.122 117.57C356.007 117.44 355.91 117.33 355.835 117.246C355.797 117.204 355.765 117.169 355.739 117.14C355.635 117.022 355.417 116.794 355.122 116.485L355.122 116.485L355.122 116.485L355.121 116.483C354.372 115.7 353.132 114.4 352.009 113.084C350.454 111.236 349.115 109.326 349.959 108.392C350.848 107.406 352.974 108.559 354.913 110.161C356.725 111.645 358.347 113.501 358.87 114.101L358.944 114.185L358.968 114.213C359.02 114.27 359.098 114.352 359.195 114.456L359.198 114.459L359.198 114.459L359.199 114.46L359.199 114.46C359.623 114.911 360.428 115.767 361.252 116.792C361.092 114.658 361.114 112.546 361.124 111.618V111.617V111.616C361.126 111.459 361.127 111.336 361.127 111.252C361.127 111.128 361.121 110.923 361.114 110.655V110.655C361.045 108.21 360.827 100.49 363.466 100.49C365.511 100.49 365.479 109.166 365.472 111.035C365.471 111.123 365.471 111.196 365.471 111.252C365.471 111.372 365.475 111.572 365.481 111.837C365.507 113.027 365.562 115.516 365.376 117.815C366.434 115.581 367.474 113.31 367.683 112.78C367.838 112.412 368.24 111.211 368.72 109.776C368.956 109.072 369.21 108.311 369.464 107.565C370.278 105.316 371.116 103.142 372.58 103.311C373.634 103.431 373.854 105.948 373.412 108.574C373.018 111.207 371.956 113.842 371.701 114.438L371.677 114.5C371.437 115.121 370.606 117.274 369.355 119.313L369.47 119.243C370.153 118.826 372.112 117.631 374.176 116.902C376.431 116.084 378.714 115.842 379.108 117.034C379.527 118.304 377.742 119.533 375.854 120.676C374.592 121.42 373.271 122.144 372.396 122.624C371.952 122.867 371.623 123.047 371.475 123.135C371.318 123.225 370.992 123.438 370.558 123.722L370.557 123.723L370.557 123.723L370.555 123.724C369.765 124.241 368.616 124.992 367.47 125.662C366.603 126.151 365.728 126.593 364.941 126.797C365.344 130.898 365.27 136.412 364.465 142.021C363.645 147.746 362.131 153.531 360.515 158.114C358.915 162.703 357.364 166.145 356.756 167.429C356.185 168.711 354.509 172.39 351.711 176.784C348.942 181.193 344.805 186.177 340.138 190.261C330.788 198.567 319.875 202.81 319.44 201.73C319.144 201.137 321.205 199.694 324.35 197.493L324.35 197.492C327.923 194.992 332.893 191.513 337.392 187.19ZM214.236 28.8867C211.613 27.4065 209.572 25.3491 209.214 24.7876C208.982 24.5128 208.502 23.8276 208.054 22.7596C207.596 21.7074 207.296 20.2703 207.283 18.9078C207.259 17.5316 207.557 16.2929 207.883 15.3388C207.926 15.2061 207.97 15.0773 208.012 14.9524C208.275 14.1789 208.487 13.5549 208.163 13.0968C207.813 12.5726 206.749 12.6433 205.575 13.6504C204.402 14.634 203.407 16.5834 203.186 18.6605C202.937 20.7336 203.327 22.8735 204.007 24.4735C204.665 26.0774 205.546 27.1945 205.825 27.5243C206.102 27.8953 206.877 28.8651 208.056 29.8801C209.227 30.9049 210.823 31.8826 212.431 32.5658C215.676 33.9125 218.831 34.1226 219.226 32.7307C219.475 31.886 217.752 30.9048 215.744 29.7605C215.25 29.4792 214.739 29.1881 214.236 28.8867ZM190.124 36.9045C190.859 36.9536 194.205 37.0027 197.393 36.8495C197.74 36.8388 198.086 36.826 198.427 36.8134C201.215 36.7104 203.689 36.619 204.022 37.7663C204.377 38.9659 201.345 40.3715 197.874 40.9546C194.417 41.5926 190.687 41.3315 189.888 41.2726C189.087 41.2471 185.589 41.0252 182.456 40.0476C179.301 39.1386 176.637 37.5445 177.027 36.5531C177.53 35.2523 180.055 35.5955 182.803 35.9691C182.979 35.993 183.156 36.017 183.333 36.0407C186.267 36.506 189.389 36.877 190.124 36.9045Z" fill="#121426"/>
</svg>
