<svg width="165" height="222" viewBox="0 0 165 222" fill="none" xmlns="http://www.w3.org/2000/svg">
<g clip-path="url(#clip0)">
<path fill-rule="evenodd" clip-rule="evenodd" d="M3 33C4.65685 33 6 34.3431 6 36C6 37.6569 4.65685 39 3 39C1.34314 39 -2.81253e-06 37.6569 -2.88495e-06 36C-2.95737e-06 34.3431 1.34314 33 3 33ZM8 60C8 58.3431 6.65685 57 5 57C3.34315 57 2 58.3431 2 60C2 61.6569 3.34315 63 5 63C6.65685 63 8 61.6569 8 60ZM21 67C21 65.3431 19.6569 64 18 64C16.3431 64 15 65.3431 15 67C15 68.6569 16.3431 70 18 70C19.6569 70 21 68.6569 21 67ZM20 48C20 46.3431 18.6569 45 17 45C15.3431 45 14 46.3431 14 48C14 49.6569 15.3431 51 17 51C18.6569 51 20 49.6569 20 48ZM37 19C38.6569 19 40 20.3431 40 22C40 23.6569 38.6569 25 37 25C35.3431 25 34 23.6569 34 22C34 20.3431 35.3431 19 37 19ZM16 13C16 11.3431 14.6569 10 13 10C11.3431 10 10 11.3431 10 13C10 14.6569 11.3431 16 13 16C14.6569 16 16 14.6569 16 13ZM17 25C18.6569 25 20 26.3431 20 28C20 29.6569 18.6569 31 17 31C15.3431 31 14 29.6569 14 28C14 26.3431 15.3431 25 17 25ZM36 3C36 1.34315 34.6569 -1.5149e-06 33 -1.44248e-06C31.3431 -1.37005e-06 30 1.34315 30 3C30 4.65685 31.3431 6 33 6C34.6569 6 36 4.65685 36 3ZM41 90C42.6568 90 44 91.3431 44 93C44 94.6569 42.6568 96 41 96C39.3431 96 38 94.6569 38 93C38 91.3431 39.3431 90 41 90ZM49 76C49 74.3431 47.6569 73 46 73C44.3431 73 43 74.3431 43 76C43 77.6569 44.3431 79 46 79C47.6569 79 49 77.6569 49 76ZM27 76C28.6569 76 30 77.3431 30 79C30 80.6569 28.6569 82 27 82C25.3431 82 24 80.6569 24 79C24 77.3431 25.3431 76 27 76ZM13 81C13 79.3431 11.6569 78 10 78C8.34315 78 7 79.3431 7 81C7 82.6569 8.34315 84 10 84C11.6569 84 13 82.6569 13 81ZM22 88C23.6569 88 25 89.3431 25 91C25 92.6569 23.6569 94 22 94C20.3431 94 19 92.6569 19 91C19 89.3431 20.3431 88 22 88ZM11 99C11 97.3431 9.65685 96 8 96C6.34315 96 5 97.3431 5 99C5 100.657 6.34315 102 8 102C9.65685 102 11 100.657 11 99ZM34 59C35.6568 59 37 60.3431 37 62C37 63.6569 35.6568 65 34 65C32.3431 65 31 63.6569 31 62C31 60.3431 32.3431 59 34 59ZM36 41C36 39.3431 34.6568 38 33 38C31.3431 38 30 39.3431 30 41C30 42.6569 31.3431 44 33 44C34.6568 44 36 42.6569 36 41ZM49 49C50.6568 49 52 50.3431 52 52C52 53.6569 50.6568 55 49 55C47.3431 55 46 53.6569 46 52C46 50.3431 47.3431 49 49 49ZM62 67C62 65.3431 60.6568 64 59 64C57.3431 64 56 65.3431 56 67C56 68.6569 57.3431 70 59 70C60.6568 70 62 68.6569 62 67ZM76 77C77.6569 77 79 78.3431 79 80C79 81.6569 77.6569 83 76 83C74.3431 83 73 81.6569 73 80C73 78.3431 74.3431 77 76 77ZM98 84C98 82.3431 96.6569 81 95 81C93.3431 81 92 82.3431 92 84C92 85.6569 93.3431 87 95 87C96.6569 87 98 85.6569 98 84ZM118 80C119.657 80 121 81.3431 121 83C121 84.6569 119.657 86 118 86C116.343 86 115 84.6569 115 83C115 81.3431 116.343 80 118 80ZM157 48C157 46.3431 155.657 45 154 45C152.343 45 151 46.3431 151 48C151 49.6569 152.343 51 154 51C155.657 51 157 49.6569 157 48ZM99 64C100.657 64 102 65.3431 102 67C102 68.6568 100.657 70 99 70C97.3431 70 96 68.6568 96 67C96 65.3431 97.3431 64 99 64ZM86 64C86 62.3431 84.6569 61 83 61C81.3431 61 80 62.3431 80 64C80 65.6568 81.3431 67 83 67C84.6569 67 86 65.6568 86 64ZM71 55C72.6569 55 74 56.3431 74 58C74 59.6568 72.6569 61 71 61C69.3431 61 68 59.6568 68 58C68 56.3431 69.3431 55 71 55ZM76 41C76 39.3431 74.6568 38 73 38C71.3431 38 70 39.3431 70 41C70 42.6568 71.3431 44 73 44C74.6569 44 76 42.6568 76 41ZM52 35C53.6569 35 55 36.3431 55 38C55 39.6569 53.6569 41 52 41C50.3431 41 49 39.6569 49 38C49 36.3431 50.3431 35 52 35ZM65 22C65 20.3431 63.6569 19 62 19C60.3431 19 59 20.3431 59 22C59 23.6569 60.3431 25 62 25C63.6569 25 65 23.6568 65 22ZM49 10C50.6569 10 52 11.3431 52 13C52 14.6569 50.6569 16 49 16C47.3431 16 46 14.6569 46 13C46 11.3431 47.3431 10 49 10ZM79 26C79 24.3431 77.6568 23 76 23C74.3431 23 73 24.3431 73 26C73 27.6568 74.3431 29 76 29C77.6568 29 79 27.6568 79 26ZM92 16C93.6568 16 95 17.3432 95 19C95 20.6569 93.6568 22 92 22C90.3431 22 89 20.6569 89 19C89 17.3432 90.3431 16 92 16ZM82 13C82 11.3431 80.6568 10 79 10C77.3431 10 76 11.3431 76 13C76 14.6568 77.3431 16 79 16C80.6568 16 82 14.6568 82 13ZM48 25C49.6569 25 51 26.3431 51 28C51 29.6569 49.6569 31 48 31C46.3431 31 45 29.6569 45 28C45 26.3431 46.3431 25 48 25ZM94 53C94 51.3431 92.6569 50 91 50C89.3431 50 88 51.3431 88 53C88 54.6569 89.3431 56 91 56C92.6569 56 94 54.6569 94 53ZM87 33C88.6568 33 90 34.3432 90 36C90 37.6569 88.6568 39 87 39C85.3431 39 84 37.6569 84 36C84 34.3432 85.3431 33 87 33ZM109 46C109 44.3431 107.657 43 106 43C104.343 43 103 44.3431 103 46C103 47.6569 104.343 49 106 49C107.657 49 109 47.6569 109 46ZM127 23C128.657 23 130 24.3431 130 26C130 27.6569 128.657 29 127 29C125.343 29 124 27.6569 124 26C124 24.3431 125.343 23 127 23ZM144 15C144 13.3431 142.657 12 141 12C139.343 12 138 13.3431 138 15C138 16.6569 139.343 18 141 18C142.657 18 144 16.6569 144 15ZM104 27C105.657 27 107 28.3431 107 30C107 31.6568 105.657 33 104 33C102.343 33 101 31.6568 101 30C101 28.3431 102.343 27 104 27ZM116 18C116 16.3431 114.657 15 113 15C111.343 15 110 16.3432 110 18C110 19.6569 111.343 21 113 21C114.657 21 116 19.6569 116 18ZM122 62C123.657 62 125 63.3431 125 65C125 66.6568 123.657 68 122 68C120.343 68 119 66.6568 119 65C119 63.3431 120.343 62 122 62ZM138 55C138 53.3431 136.657 52 135 52C133.343 52 132 53.3431 132 55C132 56.6568 133.343 58 135 58C136.657 58 138 56.6568 138 55ZM122 38C123.657 38 125 39.3431 125 41C125 42.6568 123.657 44 122 44C120.343 44 119 42.6568 119 41C119 39.3431 120.343 38 122 38ZM143 40C143 38.3431 141.657 37 140 37C138.343 37 137 38.3431 137 40C137 41.6569 138.343 43 140 43C141.657 43 143 41.6569 143 40ZM150 25C151.657 25 153 26.3431 153 28C153 29.6569 151.657 31 150 31C148.343 31 147 29.6569 147 28C147 26.3431 148.343 25 150 25ZM165 39C165 37.3431 163.657 36 162 36C160.343 36 159 37.3431 159 39C159 40.6568 160.343 42 162 42C163.657 42 165 40.6568 165 39Z" fill="#121426"/>
<path d="M75 117.5C75 175.214 7.16806 222 -39.5 222C-86.1681 222 -131 165.939 -131 108.225C-131 50.5111 -86.1681 13 -39.5 13C-11.3195 13 11 25.3669 28.9911 56.284C46.9823 87.2012 75 94.6366 75 117.5Z" fill="#DFD1F4"/>
</g>
<defs>
<clipPath id="clip0">
<rect width="165" height="222" fill="white"/>
</clipPath>
</defs>
</svg>
