<svg width="72" height="72" viewBox="0 0 72 72" fill="none" xmlns="http://www.w3.org/2000/svg">
<path opacity="0.2" d="M72 36C72 55.8822 48.2918 72 31.9806 72C15.6694 72 0 52.687 0 32.8047C0 12.9225 15.6694 0 31.9806 0C41.8301 0 49.6311 4.26035 55.9192 14.9112C62.2074 25.5621 72 28.1236 72 36Z" fill="#5A65B7"/>
<path d="M47.75 54C47.75 53.0054 47.3549 52.0516 46.6516 51.3484C45.9484 50.6451 44.9946 50.25 44 50.25H32.75V17.9931C32.75 17.5015 32.6532 17.0148 32.4651 16.5606C32.277 16.1065 32.0013 15.6939 31.6537 15.3463C31.3061 14.9987 30.8935 14.723 30.4394 14.5349C29.9852 14.3468 29.4985 14.25 29.0069 14.25H8C7.00544 14.25 6.05161 14.6451 5.34835 15.3483C4.64509 16.0516 4.25 17.0054 4.25 18V26.25H11.75V54C11.75 54.9946 12.1451 55.9484 12.8483 56.6516C13.5516 57.3549 14.5054 57.75 15.5 57.75H31.9523C34.0497 57.75 35.75 56.0974 35.75 54H47.75Z" fill="white"/>
<path d="M23 50.25C22.0054 50.25 21.0516 50.6451 20.3483 51.3483C19.6451 52.0516 19.25 53.0054 19.25 54C19.25 54.4925 19.153 54.9801 18.9645 55.4351C18.7761 55.89 18.4999 56.3034 18.1517 56.6517C17.8034 56.9999 17.39 57.2761 16.9351 57.4645C16.4801 57.653 15.9925 57.75 15.5 57.75H31.9523C34.0497 57.75 35.75 56.0974 35.75 54V50.25H23Z" fill="#17B7CC"/>
<path d="M44 50.25C44.9946 50.25 45.9484 50.6451 46.6516 51.3483C47.3549 52.0516 47.75 53.0054 47.75 54H26.75C26.75 53.0054 26.3549 52.0516 25.6517 51.3483C24.9484 50.6451 23.9946 50.25 23 50.25H44Z" fill="#E9F6FC"/>
<path d="M8 14.25C8.99456 14.25 9.94839 14.6451 10.6517 15.3483C11.3549 16.0516 11.75 17.0054 11.75 18V26.25H4.25V18C4.25 17.0054 4.64509 16.0516 5.34835 15.3483C6.05161 14.6451 7.00544 14.25 8 14.25Z" fill="#17B7CC"/>
<path d="M14.75 28.5H17.75V31.5H14.75V28.5Z" fill="#17B7CC"/>
<path d="M14.75 36.75H17.75V39.75H14.75V36.75Z" fill="#17B7CC"/>
<path d="M14.75 45H17.75V48H14.75V45Z" fill="#17B7CC"/>
<path d="M43.9943 18.75H23.0057C21.7599 18.75 20.75 19.7599 20.75 21.0057V32.9943C20.75 34.2401 21.7599 35.25 23.0057 35.25H43.9943C45.2401 35.25 46.25 34.2401 46.25 32.9943V21.0057C46.25 19.7599 45.2401 18.75 43.9943 18.75Z" fill="#FFD350"/>
<path d="M20.75 21.75H46.25V24.75H20.75V21.75Z" fill="#946AD7"/>
<path d="M41.9609 28.5H39.2891C38.5771 28.5 38 29.0771 38 29.7891V30.9609C38 31.6729 38.5771 32.25 39.2891 32.25H41.9609C42.6729 32.25 43.25 31.6729 43.25 30.9609V29.7891C43.25 29.0771 42.6729 28.5 41.9609 28.5Z" fill="#FFD350"/>
<path d="M20 45.75H30.5V47.25H20V45.75Z" fill="#0A0F7D"/>
<path d="M20 37.5H30.5V39H20V37.5Z" fill="#0A0F7D"/>
<path d="M41.9609 27.75H39.2891C38.7485 27.7506 38.2302 27.9656 37.8479 28.3479C37.4656 28.7302 37.2506 29.2485 37.25 29.7891V30.9609C37.2506 31.5015 37.4656 32.0198 37.8479 32.4021C38.2302 32.7844 38.7485 32.9994 39.2891 33H41.9609C42.5015 32.9994 43.0198 32.7844 43.4021 32.4021C43.7844 32.0198 43.9994 31.5015 44 30.9609V29.7891C43.9994 29.2485 43.7844 28.7302 43.4021 28.3479C43.0198 27.9656 42.5015 27.7506 41.9609 27.75ZM42.5 30.9609C42.4999 31.1039 42.443 31.2409 42.3419 31.3419C42.2409 31.443 42.1039 31.4999 41.9609 31.5H39.2891C39.1461 31.4999 39.0091 31.443 38.9081 31.3419C38.807 31.2409 38.7501 31.1039 38.75 30.9609V29.7891C38.7501 29.6461 38.807 29.5091 38.9081 29.4081C39.0091 29.307 39.1461 29.2501 39.2891 29.25H41.9609C42.1039 29.2501 42.2409 29.307 42.3419 29.4081C42.443 29.5091 42.4999 29.6461 42.5 29.7891V30.9609Z" fill="#121426"/>
<path d="M44 49.5H33.5V36H43.9943C44.7911 35.999 45.5551 35.682 46.1186 35.1186C46.682 34.5551 46.999 33.7911 47 32.9943V21.0057C46.999 20.2088 46.682 19.4449 46.1186 18.8814C45.5551 18.318 44.7911 18.001 43.9943 18H33.5V17.9931C33.4986 16.8018 33.0248 15.6598 32.1825 14.8175C31.3402 13.9752 30.1982 13.5014 29.0069 13.5H8C6.80694 13.5014 5.66314 13.9759 4.81953 14.8195C3.97591 15.6631 3.50136 16.8069 3.5 18V26.25C3.5 26.4489 3.57902 26.6397 3.71967 26.7803C3.86032 26.921 4.05109 27 4.25 27H11V54C11.0014 55.1931 11.4759 56.3369 12.3195 57.1805C13.1631 58.0241 14.3069 58.4986 15.5 58.5H31.9523C33.0196 58.4985 34.0524 58.1222 34.8705 57.4368C35.6887 56.7515 36.2401 55.8005 36.4286 54.75H47.75C47.9489 54.75 48.1397 54.671 48.2803 54.5303C48.421 54.3897 48.5 54.1989 48.5 54C48.4986 52.8069 48.0241 51.6631 47.1805 50.8195C46.3369 49.9759 45.1931 49.5014 44 49.5ZM43.9943 34.5H23.0057C22.6065 34.4996 22.2238 34.3408 21.9415 34.0585C21.6592 33.7762 21.5004 33.3935 21.5 32.9943V25.5H45.5V32.9943C45.4996 33.3935 45.3408 33.7762 45.0585 34.0585C44.7762 34.3408 44.3935 34.4996 43.9943 34.5ZM21.5 22.5H45.5V24H21.5V22.5ZM45.5 21H21.5C21.5019 20.6018 21.6613 20.2206 21.9434 19.9396C22.2255 19.6585 22.6073 19.5005 23.0054 19.5H43.9943C44.3925 19.5004 44.7744 19.6584 45.0565 19.9395C45.3386 20.2205 45.4981 20.6018 45.5 21ZM5 18C5 17.2044 5.31607 16.4413 5.87868 15.8787C6.44129 15.3161 7.20435 15 8 15C8.79565 15 9.55871 15.3161 10.1213 15.8787C10.6839 16.4413 11 17.2044 11 18V25.5H5V18ZM12.5 54V18C12.5007 16.8923 12.0912 15.8236 11.3505 15H29.0069C29.8005 15.0009 30.5613 15.3165 31.1224 15.8776C31.6835 16.4387 31.9991 17.1995 32 17.9931V18H23.0057C22.2089 18.001 21.4449 18.318 20.8814 18.8814C20.318 19.4449 20.001 20.2088 20 21.0057V32.9943C20.001 33.7911 20.318 34.5551 20.8814 35.1186C21.4449 35.682 22.2089 35.999 23.0057 36H32V49.5H23C21.8069 49.5014 20.6631 49.9759 19.8195 50.8195C18.9759 51.6631 18.5014 52.8069 18.5 54C18.5 54.7957 18.1839 55.5587 17.6213 56.1213C17.0587 56.6839 16.2956 57 15.5 57C14.7044 57 13.9413 56.6839 13.3787 56.1213C12.8161 55.5587 12.5 54.7957 12.5 54ZM31.9523 57H18.8505C19.5912 56.1764 20.0007 55.1077 20 54C20 53.2043 20.3161 52.4413 20.8787 51.8787C21.4413 51.3161 22.2044 51 23 51C23.7956 51 24.5587 51.3161 25.1213 51.8787C25.6839 52.4413 26 53.2043 26 54C26 54.1989 26.079 54.3897 26.2197 54.5303C26.3603 54.671 26.5511 54.75 26.75 54.75H34.8934C34.7175 55.3955 34.3344 55.9654 33.803 56.3719C33.2716 56.7784 32.6213 56.9991 31.9523 57ZM27.4375 53.25C27.2957 52.4123 26.9191 51.6321 26.3514 51H44C44.6649 51.0008 45.3108 51.2221 45.8365 51.6293C46.3622 52.0364 46.738 52.6064 46.9051 53.25H27.4375Z" fill="#121426"/>
<path d="M14.75 32.25H17.75C17.9489 32.25 18.1397 32.171 18.2803 32.0303C18.421 31.8897 18.5 31.6989 18.5 31.5V28.5C18.5 28.3011 18.421 28.1103 18.2803 27.9697C18.1397 27.829 17.9489 27.75 17.75 27.75H14.75C14.5511 27.75 14.3603 27.829 14.2197 27.9697C14.079 28.1103 14 28.3011 14 28.5V31.5C14 31.6989 14.079 31.8897 14.2197 32.0303C14.3603 32.171 14.5511 32.25 14.75 32.25ZM15.5 29.25H17V30.75H15.5V29.25Z" fill="#121426"/>
<path d="M14.75 40.5H17.75C17.9489 40.5 18.1397 40.421 18.2803 40.2803C18.421 40.1397 18.5 39.9489 18.5 39.75V36.75C18.5 36.5511 18.421 36.3603 18.2803 36.2197C18.1397 36.079 17.9489 36 17.75 36H14.75C14.5511 36 14.3603 36.079 14.2197 36.2197C14.079 36.3603 14 36.5511 14 36.75V39.75C14 39.9489 14.079 40.1397 14.2197 40.2803C14.3603 40.421 14.5511 40.5 14.75 40.5ZM15.5 37.5H17V39H15.5V37.5Z" fill="#121426"/>
<path d="M18.5 48V45C18.5 44.8011 18.421 44.6103 18.2803 44.4697C18.1397 44.329 17.9489 44.25 17.75 44.25H14.75C14.5511 44.25 14.3603 44.329 14.2197 44.4697C14.079 44.6103 14 44.8011 14 45V48C14 48.1989 14.079 48.3897 14.2197 48.5303C14.3603 48.671 14.5511 48.75 14.75 48.75H17.75C17.9489 48.75 18.1397 48.671 18.2803 48.5303C18.421 48.3897 18.5 48.1989 18.5 48ZM17 47.25H15.5V45.75H17V47.25Z" fill="#121426"/>
<path d="M20 45.75H30.5V47.25H20V45.75Z" fill="#121426"/>
<path d="M20 37.5H30.5V39H20V37.5Z" fill="#121426"/>
</svg>
