<svg width="72" height="72" viewBox="0 0 72 72" fill="none" xmlns="http://www.w3.org/2000/svg">
<path opacity="0.2" d="M36 72C16.1177 72 -2.1109e-06 48.2917 -1.39792e-06 31.9806C-6.84932e-07 15.6694 19.313 -2.30302e-06 39.1953 -1.43394e-06C59.0775 -5.6486e-07 72 15.6694 72 31.9806C72 41.8301 67.7396 49.6311 57.0888 55.9192C46.4379 62.2074 43.8764 72 36 72Z" fill="#FFD350"/>
<path d="M17.75 49.5H23.75L26 51.75H39.5L43.25 48V38.25H46.25V32.25H35.75V30C36.2256 29.5245 36.6028 28.9599 36.8602 28.3385C37.1175 27.7172 37.25 27.0513 37.25 26.3787V22.5094C37.25 21.9102 37.012 21.3355 36.5882 20.9118C36.1645 20.488 35.5898 20.25 34.9906 20.25H33.9005C33.373 20.25 32.8632 20.4403 32.4647 20.7859C32.0662 21.1315 31.8058 21.6093 31.7312 22.1315L31.5369 23.4922C31.3526 24.782 30.6837 25.9531 29.6663 26.767L27.5 28.5L24.5 34.5H17.75V49.5Z" fill="white"/>
<path d="M4.25 34.5H20V49.5H4.25V34.5Z" fill="#17B7CC"/>
<path d="M15.5 39H17V40.5H15.5V39Z" fill="#A9EDFF"/>
<path d="M34.0716 37.0173L34.9789 38.9502C35.0229 39.0441 35.0894 39.1258 35.1725 39.1879C35.2556 39.25 35.3527 39.2908 35.4553 39.3065L37.5345 39.6241C37.6493 39.6416 37.757 39.6905 37.8459 39.7653C37.9348 39.8401 38.0013 39.9379 38.0381 40.048C38.075 40.1582 38.0808 40.2763 38.0549 40.3895C38.0289 40.5028 37.9723 40.6066 37.8912 40.6897L36.3474 42.2718C36.2784 42.3425 36.2269 42.4285 36.1971 42.5228C36.1673 42.6171 36.1601 42.717 36.176 42.8146L36.535 45.015C36.5541 45.132 36.5399 45.252 36.494 45.3614C36.4481 45.4707 36.3723 45.5649 36.2754 45.6331C36.1785 45.7014 36.0643 45.741 35.9459 45.7475C35.8275 45.7539 35.7097 45.7269 35.6059 45.6695L33.8054 44.6743C33.7118 44.6226 33.6067 44.5954 33.4998 44.5954C33.3928 44.5954 33.2877 44.6226 33.1941 44.6743L31.3936 45.6696C31.2898 45.727 31.172 45.754 31.0536 45.7476C30.9352 45.7411 30.821 45.7015 30.7241 45.6332C30.6272 45.565 30.5514 45.4708 30.5055 45.3615C30.4596 45.2521 30.4454 45.1321 30.4645 45.0151L30.8235 42.8147C30.8394 42.7171 30.8322 42.6172 30.8024 42.5229C30.7727 42.4286 30.7212 42.3426 30.6521 42.2719L29.1083 40.6896C29.0272 40.6064 28.9706 40.5026 28.9446 40.3894C28.9187 40.2761 28.9245 40.158 28.9614 40.0478C28.9982 39.9377 29.0648 39.8399 29.1536 39.7651C29.2425 39.6903 29.3502 39.6414 29.465 39.6239L31.5442 39.3063C31.6468 39.2906 31.7439 39.2499 31.827 39.1877C31.9101 39.1256 31.9766 39.044 32.0207 38.95L32.9279 37.0171C32.9789 36.9085 33.0598 36.8167 33.1611 36.7524C33.2623 36.6881 33.3798 36.6539 33.4998 36.6539C33.6198 36.654 33.7373 36.6881 33.8385 36.7525C33.9398 36.8168 34.0207 36.9087 34.0716 37.0173Z" fill="#FFD350"/>
<path d="M3.5 27.75H5V29.25H3.5V27.75Z" fill="#FB3260"/>
<path d="M5 29.25H6.5V30.75H5V29.25Z" fill="#FB3260"/>
<path d="M5 26.25H6.5V27.75H5V26.25Z" fill="#FB3260"/>
<path d="M6.5 27.75H8V29.25H6.5V27.75Z" fill="#FB3260"/>
<path d="M6.5 53.25H8V54.75H6.5V53.25Z" fill="#FB3260"/>
<path d="M8 54.75H9.5V56.25H8V54.75Z" fill="#FB3260"/>
<path d="M8 51.75H9.5V53.25H8V51.75Z" fill="#FB3260"/>
<path d="M9.5 53.25H11V54.75H9.5V53.25Z" fill="#FB3260"/>
<path d="M20 15.75H21.5V17.25H20V15.75Z" fill="#FB3260"/>
<path d="M21.5 17.25H23V18.75H21.5V17.25Z" fill="#FB3260"/>
<path d="M21.5 14.25H23V15.75H21.5V14.25Z" fill="#FB3260"/>
<path d="M23 15.75H24.5V17.25H23V15.75Z" fill="#FB3260"/>
<path d="M44 23.25H45.5V24.75H44V23.25Z" fill="#FB3260"/>
<path d="M45.5 24.75H47V26.25H45.5V24.75Z" fill="#FB3260"/>
<path d="M45.5 21.75H47V23.25H45.5V21.75Z" fill="#FB3260"/>
<path d="M47 23.25H48.5V24.75H47V23.25Z" fill="#FB3260"/>
<path d="M42.5 55.5H44V57H42.5V55.5Z" fill="#FB3260"/>
<path d="M44 57H45.5V58.5H44V57Z" fill="#FB3260"/>
<path d="M44 54H45.5V55.5H44V54Z" fill="#FB3260"/>
<path d="M45.5 55.5H47V57H45.5V55.5Z" fill="#FB3260"/>
<path fill-rule="evenodd" clip-rule="evenodd" d="M21.5 14.25H23V15.75H21.5V14.25ZM21.5 17.25H20V15.75H21.5V17.25ZM23 17.25V18.75H21.5V17.25H23ZM23 17.25H24.5V15.75H23V17.25ZM20 35.25H8.75V33.75H24.0365L26.829 28.1646C26.8776 28.0675 26.9466 27.9822 27.0312 27.9143L29.1977 26.1814C30.0674 25.4877 30.6386 24.4876 30.7944 23.3861L30.9887 22.0254C31.0917 21.3258 31.4421 20.6862 31.9764 20.2228C32.5106 19.7595 33.1933 19.503 33.9005 19.5H34.9906C35.7885 19.5009 36.5534 19.8182 37.1176 20.3824C37.6818 20.9466 37.9991 21.7115 38 22.5094V26.3787C38.0041 27.8263 37.4694 29.2236 36.5 30.2987V31.5H46.25C46.4489 31.5 46.6397 31.579 46.7803 31.7197C46.921 31.8603 47 32.0511 47 32.25V38.25C47 38.4489 46.921 38.6397 46.7803 38.7803C46.6397 38.921 46.4489 39 46.25 39H44V48C44 48.0985 43.9806 48.196 43.9429 48.287C43.9052 48.378 43.85 48.4607 43.7803 48.5303L40.0303 52.2803C39.9607 52.35 39.878 52.4052 39.787 52.4429C39.696 52.4806 39.5985 52.5 39.5 52.5H26C25.9015 52.5 25.804 52.4806 25.713 52.4429C25.622 52.4052 25.5393 52.35 25.4697 52.2803L23.4394 50.25H9.5V48.75H12.5V36.75H14V48.75H19.25V43.5H20.75V48.75H23.75C23.8485 48.75 23.946 48.7694 24.037 48.8071C24.128 48.8448 24.2107 48.9 24.2803 48.9697L26.3106 51H39.1894L42.5 47.6894V38.25C42.5 38.0511 42.579 37.8603 42.7197 37.7197C42.8603 37.579 43.0511 37.5 43.25 37.5H45.5V33H35.75C35.5511 33 35.3603 32.921 35.2197 32.7803C35.079 32.6397 35 32.4489 35 32.25V30C35 29.8011 35.079 29.6104 35.2197 29.4697C35.6268 29.0648 35.9496 28.583 36.1694 28.0525C36.3892 27.5219 36.5016 26.953 36.5 26.3787V22.5094C36.4996 22.1092 36.3404 21.7255 36.0574 21.4426C35.7745 21.1596 35.3908 21.0004 34.9906 21H33.9005C33.5539 21.0014 33.2193 21.127 32.9574 21.3541C32.6955 21.5812 32.5237 21.8946 32.4733 22.2375L32.2789 23.5982C32.0697 25.0776 31.3024 26.4209 30.1344 27.3527L28.0972 28.9827L25.1708 34.8354C25.1085 34.96 25.0127 35.0648 24.8943 35.138C24.7758 35.2112 24.6393 35.25 24.5 35.25H21.5V40.5C21.5 40.5985 21.4806 40.696 21.4429 40.787C21.4052 40.878 21.35 40.9607 21.2803 41.0303L16.7803 45.5303L15.7197 44.4697L20 40.1894V35.25ZM17 39H15.5V40.5H17V39ZM5.75 35.25V33.75H7.25V35.25H5.75ZM38.3304 39.1908C38.5248 39.3545 38.6701 39.5688 38.7502 39.81C38.8315 40.0508 38.8445 40.3094 38.7877 40.5571C38.731 40.8048 38.6068 41.032 38.4288 41.2134L36.9267 42.753L37.276 44.8944C37.3177 45.1503 37.2867 45.4129 37.1862 45.652C37.0858 45.8911 36.9202 46.0971 36.7082 46.2465C36.4962 46.3958 36.2465 46.4825 35.9875 46.4966C35.7286 46.5107 35.4709 46.4517 35.2439 46.3263L33.5002 45.3624L31.7564 46.3262C31.5295 46.4514 31.2719 46.5102 31.0131 46.496C30.7544 46.4818 30.5048 46.395 30.2929 46.2457C30.0811 46.0964 29.9155 45.8905 29.8152 45.6515C29.7148 45.4126 29.6836 45.1502 29.7253 44.8944L30.0746 42.753L28.5724 41.2134C28.395 41.0316 28.2712 40.8044 28.2145 40.5568C28.1578 40.3092 28.1705 40.0508 28.2512 39.8099C28.3318 39.569 28.4773 39.355 28.6716 39.1915C28.8659 39.0279 29.1016 38.9211 29.3527 38.8827L31.3694 38.5745L32.2499 36.6987C32.3615 36.4612 32.5383 36.2604 32.7598 36.1197C32.9813 35.979 33.2383 35.9043 33.5007 35.9043C33.763 35.9043 34.02 35.979 34.2415 36.1197C34.463 36.2604 34.6398 36.4612 34.7514 36.6987L35.6319 38.5745L37.6487 38.8827C37.9 38.9205 38.136 39.0271 38.3304 39.1908ZM35.4832 42.2975C35.5483 42.0914 35.6607 41.9033 35.8114 41.7483L37.194 40.3307L35.3425 40.0478C35.1181 40.0138 34.9056 39.9249 34.7238 39.789C34.542 39.6531 34.3965 39.4745 34.3003 39.2689L33.5002 37.5643L32.7 39.269C32.6038 39.4746 32.4584 39.6532 32.2766 39.7891C32.0948 39.925 31.8822 40.0138 31.6578 40.0478L29.8064 40.3307L31.1892 41.7481C31.3399 41.9031 31.4522 42.0912 31.5173 42.2974C31.5825 42.5035 31.5985 42.722 31.5642 42.9355L31.2445 44.8954L32.8318 44.0179C33.0363 43.9042 33.2663 43.8445 33.5003 43.8445C33.7342 43.8445 33.9643 43.9042 34.1687 44.0179L35.7561 44.8955L35.4364 42.9356C35.4021 42.7222 35.4181 42.5036 35.4832 42.2975ZM3.5 27.75H5V29.25H3.5V27.75ZM6.5 29.25V30.75H5V29.25H6.5ZM6.5 27.75H8V29.25H6.5V27.75ZM6.5 27.75V26.25H5V27.75H6.5ZM8 53.25V54.75H6.5V53.25H8ZM9.5 53.25H8V51.75H9.5V53.25ZM9.5 54.75V53.25H11V54.75H9.5ZM9.5 54.75H8V56.25H9.5V54.75ZM44 23.25H45.5V24.75H44V23.25ZM47 24.75V26.25H45.5V24.75H47ZM47 23.25H48.5V24.75H47V23.25ZM47 23.25V21.75H45.5V23.25H47ZM45.5 57H44V55.5H45.5V57ZM45.5 57H47V55.5H45.5V54H44V55.5H42.5V57H44V58.5H45.5V57Z" fill="#121426"/>
</svg>
