<svg width="72" height="72" viewBox="0 0 72 72" fill="none" xmlns="http://www.w3.org/2000/svg">
<path opacity="0.6" d="M36 -1.57361e-06C55.8822 -2.44269e-06 72 23.7082 72 40.0194C72 56.3306 52.687 72 32.8047 72C12.9225 72 -6.84932e-07 56.3306 -1.39792e-06 40.0194C-1.82845e-06 30.1699 4.26035 22.3689 14.9112 16.0808C25.5621 9.79259 28.1236 -1.22932e-06 36 -1.57361e-06Z" fill="#DFD1F4"/>
<g clip-path="url(#clip0)">
<path d="M17.9997 48.8004H6.79977C5.91618 48.8004 5.19978 48.084 5.19978 47.2004C5.19978 46.3164 5.91618 45.6004 6.79977 45.6004H8.39976C9.28334 45.6004 9.99974 44.884 9.99974 44.0004C9.99974 43.1165 9.28334 42.4005 8.39976 42.4005H4.39979C3.5162 42.4005 2.7998 41.6841 2.7998 40.8005C2.7998 39.9165 3.5162 39.2005 4.39979 39.2005H9.99974C10.8833 39.2005 11.5997 38.4841 11.5997 37.6005C11.5997 36.7165 10.8833 36.0005 9.99974 36.0005H8.39976C7.51617 36.0005 6.79977 35.2841 6.79977 34.4005C6.79977 33.5165 7.51617 32.8005 8.39976 32.8005H13.9997L17.9997 48.8004Z" fill="#17B7CC"/>
<path d="M49.1997 52.0005H17.1999L10 20.0007H41.9997L49.1997 52.0005Z" fill="#FFD350"/>
<path d="M17.112 51.2099L17.1999 52.0005L10 20.0007H41.9997C26.5217 21.7695 15.3921 35.7264 17.112 51.2099Z" fill="white"/>
<path d="M24.3999 35.2003H34.7999L35.5999 38.4003H25.1999L24.3999 35.2003Z" fill="white"/>
<path d="M33.2001 30.4006H28.4001V25.6007L23.6002 30.4006L21.2002 20.0007H30.8001L33.2001 30.4006Z" fill="#946AD7"/>
<path d="M24.4235 38.5946C24.513 38.9505 24.8329 39.2001 25.1997 39.2005H35.5996C35.8461 39.2001 36.0785 39.0868 36.2305 38.8923C36.382 38.6981 36.4355 38.445 36.3758 38.2059L35.5758 35.006C35.4863 34.6501 35.1664 34.4005 34.7996 34.4005H24.3997C24.1532 34.4005 23.9208 34.5138 23.7689 34.7083C23.6173 34.9025 23.5638 35.1556 23.6235 35.3946L24.4235 38.5946ZM34.175 36.0005L34.575 37.6005H25.8243L25.4243 36.0005H34.175Z" fill="#121426"/>
<path d="M4.39998 43.2006H8.39995C8.84174 43.2006 9.19994 43.5584 9.19994 44.0006C9.19994 44.4424 8.84174 44.8006 8.39995 44.8006H6.79996C5.47458 44.8006 4.39998 45.8748 4.39998 47.2006C4.39998 48.5259 5.47458 49.6005 6.79996 49.6005H15.8397L16.419 52.1763C16.5014 52.5411 16.8257 52.8005 17.1999 52.8005H49.1996C49.443 52.8005 49.6726 52.69 49.8246 52.5001C49.9766 52.3103 50.034 52.0615 49.9805 51.8244L42.7805 19.8246C42.6981 19.4598 42.3739 19.2004 41.9997 19.2008H9.99993C9.75658 19.2004 9.52689 19.311 9.37494 19.5008C9.22299 19.6906 9.16557 19.9395 9.21908 20.1766L11.88 32.0007H8.39995C7.07457 32.0007 5.99997 33.0749 5.99997 34.4007C5.99997 35.7261 7.07457 36.8007 8.39995 36.8007H9.99993C10.4417 36.8007 10.7999 37.1585 10.7999 37.6007C10.7999 38.0424 10.4417 38.4006 9.99993 38.4006H4.39998C3.0746 38.4006 2 39.4749 2 40.8006C2 42.126 3.0746 43.2006 4.39998 43.2006ZM28.706 24.8613C28.4072 24.7375 28.0631 24.8062 27.8342 25.0351L24.0541 28.814L22.2053 20.8008H30.1599L32.1908 29.6007H29.1998V25.6008C29.1998 25.2769 29.0049 24.9851 28.706 24.8613ZM20.56 20.8008L22.8166 30.5804C22.8819 30.864 23.0959 31.0898 23.3756 31.1698C23.6553 31.2499 23.9565 31.1718 24.1623 30.9659L27.5998 27.5316V30.4007C27.5998 30.8425 27.958 31.2007 28.3998 31.2007H33.1997C33.4435 31.2007 33.6743 31.0894 33.8263 30.8988C33.9782 30.7077 34.0345 30.4581 33.9798 30.2206L31.8052 20.8008H41.3598L48.1996 51.2005H17.8397L10.9999 20.8008H20.56ZM4.39998 40.0006H9.99993C11.3253 40.0006 12.3999 38.926 12.3999 37.6007C12.3999 36.2749 11.3253 35.2007 9.99993 35.2007H8.39995C7.95815 35.2007 7.59995 34.8425 7.59995 34.4007C7.59995 33.9585 7.95815 33.6007 8.39995 33.6007H12.2398L15.48 48.0006H6.79996C6.35817 48.0006 5.99997 47.6424 5.99997 47.2006C5.99997 46.7584 6.35817 46.4006 6.79996 46.4006H8.39995C9.72533 46.4006 10.7999 45.326 10.7999 44.0006C10.7999 42.6748 9.72533 41.6006 8.39995 41.6006H4.39998C3.95819 41.6006 3.59999 41.2424 3.59999 40.8006C3.59999 40.3584 3.95819 40.0006 4.39998 40.0006Z" fill="#121426"/>
</g>
<defs>
<clipPath id="clip0">
<rect x="2" y="12" width="48" height="48" fill="white"/>
</clipPath>
</defs>
</svg>
