<svg width="72" height="72" viewBox="0 0 72 72" fill="none" xmlns="http://www.w3.org/2000/svg">
<path opacity="0.2" d="M-3.14722e-06 36C-4.88538e-06 16.1178 23.7082 4.2218e-06 40.0194 2.79583e-06C56.3306 1.36986e-06 72 19.313 72 39.1953C72 59.0775 56.3306 72 40.0194 72C30.1699 72 22.3689 67.7396 16.0808 57.0888C9.79259 46.4379 -2.45865e-06 43.8764 -3.14722e-06 36Z" fill="#17B7CC"/>
<path d="M34.25 48H47.75V56.25H34.25V48Z" fill="white"/>
<path d="M46.25 41.25V38.25H43.25V41.25H34.25V48.75H47.75V41.25H46.25Z" fill="#17B7CC"/>
<path d="M38.75 33.75V30.75H35.75V33.75H19.25V41.25H40.25V33.75H38.75Z" fill="#FFD350"/>
<path d="M23.75 26.25V23.25H20.75V26.25H16.25V23.25H13.25V26.25H11.75V33.75H32.75V26.25H23.75Z" fill="#17B7CC"/>
<path d="M38.75 18.75V15.75H35.75V18.75H31.25V15.75H28.25V18.75H26.75V26.25H40.25V18.75H38.75Z" fill="#FFD350"/>
<path d="M16.25 41.25V38.25H13.25V41.25H8.75V38.25H5.75V41.25H4.25V56.25H8.75C8.75 54.6587 9.38214 53.1326 10.5074 52.0074C11.6326 50.8821 13.1587 50.25 14.75 50.25C16.3413 50.25 17.8674 50.8821 18.9926 52.0074C20.1179 53.1326 20.75 54.6587 20.75 56.25H25.25V41.25H16.25Z" fill="#946AD7"/>
<path d="M4.25 43.5H18.5V45H4.25V43.5Z" fill="#7DD491"/>
<path d="M20 43.5H21.5V45H20V43.5Z" fill="#7DD491"/>
<path d="M47.75 40.5H47V38.25C47 38.0511 46.921 37.8603 46.7803 37.7197C46.6397 37.579 46.4489 37.5 46.25 37.5H43.25C43.0511 37.5 42.8603 37.579 42.7197 37.7197C42.579 37.8603 42.5 38.0511 42.5 38.25V40.5H41V33.75C41 33.5511 40.921 33.3603 40.7803 33.2197C40.6397 33.079 40.4489 33 40.25 33H39.5V30.75C39.5 30.5511 39.421 30.3603 39.2803 30.2197C39.1397 30.079 38.9489 30 38.75 30H35.75C35.5511 30 35.3603 30.079 35.2197 30.2197C35.079 30.3603 35 30.5511 35 30.75V33H33.5V27H40.25C40.4489 27 40.6397 26.921 40.7803 26.7803C40.921 26.6397 41 26.4489 41 26.25V18.75C41 18.5511 40.921 18.3603 40.7803 18.2197C40.6397 18.079 40.4489 18 40.25 18H39.5V15.75C39.5 15.5511 39.421 15.3603 39.2803 15.2197C39.1397 15.079 38.9489 15 38.75 15H35.75C35.5511 15 35.3603 15.079 35.2197 15.2197C35.079 15.3603 35 15.5511 35 15.75V18H32V15.75C32 15.5511 31.921 15.3603 31.7803 15.2197C31.6397 15.079 31.4489 15 31.25 15H28.25C28.0511 15 27.8603 15.079 27.7197 15.2197C27.579 15.3603 27.5 15.5511 27.5 15.75V18H26.75C26.5511 18 26.3603 18.079 26.2197 18.2197C26.079 18.3603 26 18.5511 26 18.75V25.5H24.5V23.25C24.5 23.0511 24.421 22.8603 24.2803 22.7197C24.1397 22.579 23.9489 22.5 23.75 22.5H20.75C20.5511 22.5 20.3603 22.579 20.2197 22.7197C20.079 22.8603 20 23.0511 20 23.25V25.5H17V23.25C17 23.0511 16.921 22.8603 16.7803 22.7197C16.6397 22.579 16.4489 22.5 16.25 22.5H13.25C13.0511 22.5 12.8603 22.579 12.7197 22.7197C12.579 22.8603 12.5 23.0511 12.5 23.25V25.5H11.75C11.5511 25.5 11.3603 25.579 11.2197 25.7197C11.079 25.8603 11 26.0511 11 26.25V33.75C11 33.9489 11.079 34.1397 11.2197 34.2803C11.3603 34.421 11.5511 34.5 11.75 34.5H18.5V40.5H17V38.25C17 38.0511 16.921 37.8603 16.7803 37.7197C16.6397 37.579 16.4489 37.5 16.25 37.5H13.25C13.0511 37.5 12.8603 37.579 12.7197 37.7197C12.579 37.8603 12.5 38.0511 12.5 38.25V40.5H9.5V38.25C9.5 38.0511 9.42098 37.8603 9.28033 37.7197C9.13968 37.579 8.94891 37.5 8.75 37.5H5.75C5.55109 37.5 5.36032 37.579 5.21967 37.7197C5.07902 37.8603 5 38.0511 5 38.25V40.5H4.25C4.05109 40.5 3.86032 40.579 3.71967 40.7197C3.57902 40.8603 3.5 41.0511 3.5 41.25V56.25C3.5 56.4489 3.57902 56.6397 3.71967 56.7803C3.86032 56.921 4.05109 57 4.25 57H8.75C8.94891 57 9.13968 56.921 9.28033 56.7803C9.42098 56.6397 9.5 56.4489 9.5 56.25C9.5 54.8576 10.0531 53.5223 11.0377 52.5377C12.0223 51.5531 13.3576 51 14.75 51C16.1424 51 17.4777 51.5531 18.4623 52.5377C19.4469 53.5223 20 54.8576 20 56.25C20 56.4489 20.079 56.6397 20.2197 56.7803C20.3603 56.921 20.5511 57 20.75 57H25.25C25.4489 57 25.6397 56.921 25.7803 56.7803C25.921 56.6397 26 56.4489 26 56.25V42H33.5V56.25C33.5 56.4489 33.579 56.6397 33.7197 56.7803C33.8603 56.921 34.0511 57 34.25 57H47.75C47.9489 57 48.1397 56.921 48.2803 56.7803C48.421 56.6397 48.5 56.4489 48.5 56.25V41.25C48.5 41.0511 48.421 40.8603 48.2803 40.7197C48.1397 40.579 47.9489 40.5 47.75 40.5ZM44 39H45.5V40.5H44V39ZM36.5 31.5H38V33H36.5V31.5ZM36.5 16.5H38V18H36.5V16.5ZM29 16.5H30.5V18H29V16.5ZM27.5 19.5H39.5V25.5H27.5V19.5ZM21.5 24H23V25.5H21.5V24ZM14 24H15.5V25.5H14V24ZM12.5 27H32V33H12.5V27ZM20 34.5H39.5V40.5H20V34.5ZM14 39H15.5V40.5H14V39ZM6.5 39H8V40.5H6.5V39ZM24.5 55.5H21.458C21.2731 53.8503 20.4868 52.3266 19.2493 51.2201C18.0119 50.1135 16.41 49.5018 14.75 49.5018C13.09 49.5018 11.4881 50.1135 10.2507 51.2201C9.01322 52.3266 8.2269 53.8503 8.042 55.5H5V45H18.5V43.5H5V42H24.5V55.5ZM40.25 42H47V48H35V42H40.25ZM35 55.5V49.5H47V55.5H35Z" fill="#121426"/>
<path d="M20 43.5H21.5V45H20V43.5Z" fill="black"/>
</svg>
