<svg width="2200" height="20" viewBox="0 0 2200 20" fill="none" xmlns="http://www.w3.org/2000/svg">
<g clip-path="url(#clip0)">
<path d="M0 0H2200V20H0V0Z" fill="white"/>
<path fill-rule="evenodd" clip-rule="evenodd" d="M23.5047 5.71239C28.9164 5.02142 34.2022 4.34653 39 3.99632C43.5312 3.66558 48.1694 3.59065 52.8148 3.51561C58.0255 3.43143 63.2452 3.34711 68.3333 2.90144C90.8229 0.931563 114.285 0.956156 137.177 0.980153C139.681 0.982778 142.178 0.985395 144.667 0.985395C157.679 0.985395 170.436 2.45149 183.221 3.92087C193.251 5.07354 203.298 6.22823 213.5 6.67879C225.399 7.20429 237.253 7.38368 249.097 7.56293C264.831 7.80105 280.548 8.03891 296.333 9.08753C306.512 9.76373 316.719 10.3406 326.925 10.9175C342.931 11.8223 358.936 12.727 374.833 14.0145C386.634 14.9702 398.578 15.0405 410.512 15.1107C419.929 15.166 429.339 15.2214 438.667 15.7116C441.59 15.8652 444.513 16.0246 447.437 16.1841C466.759 17.2378 486.091 18.2921 505.583 17.6824C530.45 16.9045 555.134 14.349 579.813 11.7941C603.909 9.29957 628 6.80557 652.25 5.96711C678.864 5.04693 705.297 4.39122 732.083 5.85763C750.951 6.89052 769.613 8.37194 788.25 10.3466C804.189 12.0355 820.502 11.9487 836.686 11.8626C840.243 11.8436 843.794 11.8247 847.333 11.8247C856.656 11.8247 865.916 11.5783 875.174 11.3319C884.43 11.0856 893.685 10.8393 903 10.8393H935.333C940.901 10.8393 946.372 10.3431 951.832 9.84797C956.931 9.38551 962.02 8.92399 967.167 8.86856C979.941 8.73099 992.67 7.81983 1005.41 6.90824C1019.24 5.91787 1033.08 4.92698 1047 4.92698C1055.85 4.92698 1064.56 4.17711 1073.28 3.42669C1080.71 2.78726 1088.14 2.14743 1095.67 1.97079C1102.25 1.81624 1108.7 1.4163 1115.15 1.01676C1123.35 0.508051 1131.55 0 1140 0C1144.27 0 1148.8 0.561643 1153.27 1.11696C1155.88 1.44153 1158.48 1.76394 1161 1.97079C1172.57 2.92078 1183.82 2.95619 1195.5 2.95619C1213.4 2.95619 1231.59 4.09934 1249.54 5.22768C1253.54 5.47917 1257.53 5.72992 1261.5 5.96711C1268.95 6.41219 1276.22 7.4905 1283.49 8.57069C1285.16 8.8184 1286.83 9.06621 1288.5 9.30651C1304.96 11.6714 1322.32 11.7256 1339.34 11.7788C1344.24 11.7941 1349.11 11.8093 1353.92 11.8795C1357.62 11.9336 1361.33 11.9888 1365.03 12.044C1390.74 12.4273 1416.42 12.8101 1442.17 12.8101C1449.29 12.8101 1456.38 13.299 1463.5 13.7897C1470.67 14.2843 1477.87 14.7809 1485.17 14.7809C1490.68 14.7809 1496.2 14.8066 1501.71 14.8323C1512.76 14.8837 1523.81 14.9351 1534.83 14.7809C1547.38 14.6055 1559.84 13.2212 1572.31 11.8362C1585.66 10.3527 1599.02 8.86856 1612.5 8.86856C1639.43 8.86856 1666.29 8.36666 1693.14 7.8649C1724.02 7.28798 1754.88 6.71124 1785.83 6.89777C1803.69 7.00537 1821.37 8.66938 1839.08 10.3359C1857.46 12.0644 1875.85 13.7955 1894.5 13.7955C1900.7 13.7955 1920 10.8393 1920 10.8393C1920 10.8393 1939.3 13.7955 1945.5 13.7955C1964.15 13.7955 1982.54 12.0644 2000.92 10.3359C2018.63 8.66938 2036.31 7.00537 2054.17 6.89777C2085.12 6.71124 2115.98 7.28798 2146.86 7.8649C2173.71 8.36666 2200.57 8.86856 2227.5 8.86856C2240.98 8.86856 2254.34 10.3527 2267.69 11.8362C2280.16 13.2212 2292.62 14.6055 2305.17 14.7809C2316.19 14.9351 2327.24 14.8837 2338.29 14.8323C2343.8 14.8066 2349.32 14.7809 2354.83 14.7809C2362.13 14.7809 2369.33 14.2844 2376.5 13.7897C2383.62 13.299 2390.71 12.8101 2397.83 12.8101C2423.58 12.8101 2449.26 12.4273 2474.97 12.044C2478.67 11.9888 2482.38 11.9336 2486.08 11.8795C2490.89 11.8093 2495.76 11.7941 2500.66 11.7788C2517.68 11.7256 2535.04 11.6714 2551.5 9.30651C2553.17 9.06621 2554.84 8.8184 2556.51 8.57069C2563.78 7.4905 2571.05 6.41219 2578.5 5.96711C2582.47 5.72991 2586.46 5.47915 2590.46 5.22766C2608.41 4.09933 2626.6 2.95619 2644.5 2.95619C2656.18 2.95619 2667.43 2.92078 2679 1.97079C2681.52 1.76394 2684.12 1.44152 2686.73 1.11695C2691.21 0.561631 2695.73 0 2700 0C2708.45 0 2716.65 0.508052 2724.85 1.01677C2731.3 1.4163 2737.75 1.81624 2744.33 1.97079C2751.86 2.14743 2759.29 2.78725 2766.72 3.42668C2775.44 4.1771 2784.15 4.92698 2793 4.92698C2806.92 4.92698 2820.76 5.91786 2834.59 6.90823C2847.33 7.81983 2860.06 8.73099 2872.83 8.86856C2877.98 8.92399 2883.07 9.3855 2888.17 9.84796C2893.63 10.3431 2899.1 10.8393 2904.67 10.8393H2937C2946.32 10.8393 2955.57 11.0856 2964.83 11.3319C2974.08 11.5783 2983.34 11.8247 2992.67 11.8247C2996.21 11.8247 2999.76 11.8436 3003.31 11.8626C3019.5 11.9487 3035.81 12.0355 3051.75 10.3466C3070.39 8.37194 3089.05 6.89052 3107.92 5.85763C3134.7 4.39122 3161.14 5.04693 3187.75 5.96711C3212 6.80557 3236.09 9.29957 3260.19 11.7941C3284.87 14.349 3309.55 16.9045 3334.42 17.6824C3353.91 18.2921 3373.24 17.2378 3392.56 16.1841C3395.49 16.0246 3398.41 15.8652 3401.33 15.7116C3410.66 15.2214 3420.07 15.166 3429.49 15.1107C3441.42 15.0405 3453.37 14.9702 3465.17 14.0145C3481.06 12.727 3497.07 11.8223 3513.08 10.9175C3523.28 10.3406 3533.49 9.76373 3543.67 9.08753C3559.45 8.03891 3575.17 7.80105 3590.9 7.56293C3602.75 7.38368 3614.6 7.20429 3626.5 6.67879C3636.7 6.22823 3646.75 5.07354 3656.78 3.92087C3669.56 2.45149 3682.32 0.985395 3695.33 0.985395C3697.82 0.985395 3700.32 0.982778 3702.82 0.980153C3725.72 0.956156 3749.18 0.931563 3771.67 2.90144C3776.75 3.34711 3781.97 3.43143 3787.19 3.51561C3791.83 3.59065 3796.47 3.66558 3801 3.99632C3805.8 4.34653 3811.08 5.02143 3816.5 5.71241C3824.44 6.72686 3832.66 7.77597 3840 7.88316V737.076C3832.66 736.968 3824.44 735.919 3816.5 734.905C3811.08 734.214 3805.8 733.539 3801 733.189C3796.47 732.858 3791.83 732.783 3787.19 732.708C3781.97 732.624 3776.75 732.54 3771.67 732.094C3749.18 730.124 3725.72 730.149 3702.82 730.173C3700.32 730.175 3697.82 730.178 3695.33 730.178C3682.32 730.178 3669.56 731.644 3656.78 733.113C3646.75 734.266 3636.7 735.421 3626.5 735.871C3614.6 736.397 3602.75 736.576 3590.9 736.755C3575.17 736.993 3559.45 737.231 3543.67 738.28C3530.81 739.134 3517.92 737.448 3505.04 735.763C3491.71 734.021 3478.4 732.281 3465.17 733.353C3453.37 734.309 3441.42 734.379 3429.49 734.449C3420.07 734.505 3410.66 734.56 3401.33 735.05C3398.41 735.204 3395.49 735.363 3392.56 735.523C3373.24 736.576 3353.91 737.631 3334.42 737.021C3310.5 736.273 3286.76 736.214 3263.02 736.155C3237.98 736.093 3212.95 736.031 3187.75 735.16C3161.14 734.239 3134.7 733.584 3107.92 735.05C3089.05 736.083 3070.39 737.564 3051.75 739.539C3041.08 740.669 3030.25 738.335 3019.4 735.998C3010.47 734.075 3001.53 732.149 2992.67 732.149C2983.34 732.149 2974.08 731.902 2964.83 731.656C2955.57 731.409 2946.32 731.163 2937 731.163H2904.67C2899.31 731.163 2894.05 732.897 2888.8 734.627C2883.49 736.375 2878.19 738.119 2872.83 738.061C2860.06 737.923 2847.33 737.012 2834.59 736.101C2820.76 735.11 2806.92 734.119 2793 734.119C2784.15 734.119 2775.44 733.37 2766.72 732.619C2759.29 731.98 2751.86 731.34 2744.33 731.163C2737.75 731.009 2731.3 730.609 2724.85 730.209C2716.65 729.701 2708.45 729.192 2700 729.192C2695.73 729.192 2691.2 729.754 2686.73 730.309C2684.12 730.634 2681.52 730.956 2679 731.163C2667.43 732.113 2656.18 732.149 2644.5 732.149C2626.6 732.149 2608.41 733.292 2590.46 734.42C2586.46 734.672 2582.47 734.922 2578.5 735.16C2571.05 735.605 2563.79 736.683 2556.51 737.763C2554.84 738.011 2553.17 738.259 2551.5 738.499C2535.04 740.864 2517.68 740.918 2500.66 740.971C2495.76 740.987 2490.89 741.002 2486.08 741.072C2482.38 741.126 2478.67 741.181 2474.97 741.236C2449.26 741.62 2423.58 742.003 2397.83 742.003C2390.71 742.003 2383.62 741.514 2376.5 741.023C2369.33 740.528 2362.13 740.032 2354.83 740.032C2346.35 740.032 2337.86 738.798 2329.37 737.564C2321.3 736.391 2313.23 735.217 2305.17 735.105C2291.75 734.917 2278.44 736.236 2265.11 737.556C2252.62 738.793 2240.11 740.032 2227.5 740.032C2197.08 740.032 2166.75 741.024 2136.41 742.016C2109.02 742.912 2081.63 743.808 2054.17 743.973C2034.5 744.092 2015.05 743.794 1995.53 743.496C1978.95 743.242 1962.33 742.988 1945.5 742.988C1939.3 742.988 1920 740.032 1920 740.032C1920 740.032 1900.7 742.988 1894.5 742.988C1877.67 742.988 1861.05 743.242 1844.47 743.496C1824.95 743.794 1805.5 744.092 1785.83 743.973C1758.37 743.808 1730.98 742.912 1703.59 742.016C1673.25 741.024 1642.92 740.032 1612.5 740.032C1599.89 740.032 1587.38 738.793 1574.89 737.556C1561.56 736.236 1548.25 734.917 1534.83 735.105C1526.77 735.217 1518.7 736.391 1510.63 737.564C1502.14 738.798 1493.65 740.032 1485.17 740.032C1477.87 740.032 1470.67 740.528 1463.5 741.023C1456.38 741.514 1449.29 742.003 1442.17 742.003C1416.42 742.003 1390.74 741.62 1365.03 741.236C1361.33 741.181 1357.62 741.126 1353.92 741.072C1349.11 741.002 1344.24 740.987 1339.34 740.971C1322.32 740.918 1304.96 740.864 1288.5 738.499C1286.83 738.259 1285.16 738.011 1283.49 737.763C1276.21 736.683 1268.95 735.605 1261.5 735.16C1257.53 734.922 1253.54 734.672 1249.54 734.42C1231.59 733.292 1213.4 732.149 1195.5 732.149C1183.82 732.149 1172.57 732.113 1161 731.163C1158.48 730.956 1155.88 730.634 1153.27 730.309C1148.79 729.754 1144.27 729.192 1140 729.192C1131.55 729.192 1123.35 729.701 1115.15 730.209C1108.7 730.609 1102.25 731.009 1095.67 731.163C1088.14 731.34 1080.71 731.98 1073.28 732.619C1064.56 733.37 1055.85 734.119 1047 734.119C1033.08 734.119 1019.24 735.11 1005.41 736.101C992.67 737.012 979.941 737.923 967.167 738.061C961.808 738.119 956.513 736.375 951.204 734.627C945.953 732.897 940.687 731.163 935.333 731.163H903C893.685 731.163 884.43 731.409 875.174 731.656C865.916 731.902 856.656 732.149 847.333 732.149C838.466 732.149 829.526 734.075 820.597 735.998C809.748 738.335 798.915 740.669 788.25 739.539C769.613 737.564 750.951 736.083 732.083 735.05C705.297 733.584 678.864 734.239 652.25 735.16C627.049 736.031 602.021 736.093 576.98 736.155C553.245 736.214 529.498 736.273 505.583 737.021C486.091 737.631 466.759 736.576 447.437 735.523C444.513 735.363 441.59 735.204 438.667 735.05C429.339 734.56 419.928 734.505 410.512 734.449C398.578 734.379 386.633 734.309 374.833 733.353C361.598 732.281 348.288 734.021 334.965 735.763C322.081 737.448 309.185 739.134 296.333 738.28C280.548 737.231 264.831 736.993 249.097 736.755C237.253 736.576 225.399 736.397 213.5 735.871C203.298 735.421 193.251 734.266 183.221 733.113C170.436 731.644 157.679 730.178 144.667 730.178C142.178 730.178 139.681 730.175 137.177 730.173C114.285 730.149 90.8229 730.124 68.3333 732.094C63.2453 732.54 58.0256 732.624 52.8149 732.708C48.1695 732.783 43.5313 732.858 39 733.189C34.2021 733.539 28.9162 734.214 23.5043 734.905C15.5592 735.919 7.34261 736.968 0 737.076V7.88316C7.34272 7.77597 15.5595 6.72685 23.5047 5.71239Z" fill="#FAF3EB"/>
</g>
<defs>
<clipPath id="clip0">
<path d="M0 0H2200V20H0V0Z" fill="white"/>
</clipPath>
</defs>
</svg>
