<svg width="120" height="120" viewBox="0 0 120 120" fill="none" xmlns="http://www.w3.org/2000/svg">
<g clip-path="url(#clip0)">
<path d="M32.1533 116.331C31.7176 116.331 31.2819 116.169 30.9443 115.842C30.2563 115.175 30.2398 114.078 30.9085 113.392L33.0661 111.173C33.7339 110.487 34.8328 110.47 35.5208 111.137C36.2088 111.803 36.2253 112.9 35.5575 113.587L33.3991 115.805C33.0587 116.156 32.6065 116.331 32.1533 116.331Z" fill="#946AD7"/>
<path d="M55.573 31.2332C55.1382 31.2332 54.7015 31.0702 54.3649 30.7434C53.6769 30.0769 53.6604 28.9801 54.3282 28.2944L56.4866 26.0751C57.1544 25.3885 58.2525 25.372 58.9404 26.0385C59.6284 26.705 59.6449 27.8018 58.9771 28.4885L56.8187 30.7077C56.4784 31.0574 56.0261 31.2332 55.573 31.2332Z" fill="#946AD7"/>
<path d="M105.395 23.529C104.959 23.529 104.523 23.367 104.186 23.0401C103.498 22.3736 103.481 21.2768 104.149 20.5902L106.307 18.371C106.975 17.6852 108.074 17.6687 108.762 18.3352C109.45 19.0008 109.467 20.0986 108.799 20.7843L106.64 23.0035C106.3 23.3532 105.848 23.529 105.395 23.529Z" fill="#343B6F"/>
<path d="M105.395 108.697C104.959 108.697 104.523 108.534 104.186 108.208C103.498 107.541 103.481 106.445 104.149 105.758L106.307 103.539C106.975 102.853 108.074 102.836 108.762 103.502C109.45 104.169 109.467 105.265 108.799 105.952L106.64 108.171C106.3 108.521 105.848 108.697 105.395 108.697Z" fill="#FFD02F"/>
<path d="M23.0305 26.4634C22.5957 26.4634 22.159 26.3013 21.8224 25.9745C21.1344 25.308 21.1179 24.2112 21.7857 23.5245L23.9441 21.3053C24.6119 20.6196 25.7109 20.6031 26.3989 21.2696C27.086 21.9361 27.1025 23.0329 26.4347 23.7186L24.2762 25.9378C23.9359 26.2876 23.4836 26.4634 23.0305 26.4634Z" fill="#FFD02F"/>
<path d="M11.1101 65.3494C10.6753 65.3494 10.2386 65.1874 9.90197 64.8605C9.21398 64.194 9.19747 63.0972 9.86527 62.4106L12.0228 60.1913C12.6906 59.5047 13.7896 59.4882 14.4776 60.1547C15.1655 60.8212 15.1821 61.918 14.5142 62.6047L12.3558 64.8239C12.0164 65.1737 11.5632 65.3494 11.1101 65.3494Z" fill="#17B7CC"/>
<path d="M59.012 65.2716L53.3769 68.3175C51.9157 69.1076 50.2076 67.8314 50.4865 66.1578L51.5625 59.707C51.6735 59.0423 51.4598 58.3648 50.9901 57.8942L46.431 53.3249C45.2486 52.1402 45.9008 50.0756 47.5355 49.8312L53.8347 48.89C54.4842 48.793 55.0446 48.3746 55.3345 47.7694L58.1525 41.9C58.8836 40.3784 60.9944 40.3784 61.7255 41.9L64.5426 47.7694C64.8334 48.3746 65.3938 48.793 66.0424 48.89L72.3425 49.8312C73.9763 50.0756 74.6285 52.1402 73.4461 53.3249L68.8879 57.8942C68.4182 58.3648 68.2036 59.0423 68.3146 59.707L69.3906 66.1578C69.6704 67.8314 67.9623 69.1076 66.501 68.3175L60.8659 65.2716C60.2853 64.9575 59.5918 64.9575 59.012 65.2716Z" fill="#FFD02F"/>
<path d="M59.9387 120C58.9801 120 58.2031 119.225 58.2031 118.268V91.1756C58.2031 90.2189 58.9801 89.4425 59.9387 89.4425C60.8973 89.4425 61.6743 90.2189 61.6743 91.1756V118.268C61.6743 119.225 60.8973 120 59.9387 120Z" fill="#343B6F"/>
<path d="M59.9525 83.7708H59.9259C58.9673 83.7708 58.1895 82.9944 58.1895 82.0377C58.1895 81.081 58.9664 80.3055 59.9259 80.3055H59.9525C60.9111 80.3055 61.6881 81.081 61.6881 82.0377C61.6881 82.9944 60.9111 83.7708 59.9525 83.7708Z" fill="#343B6F"/>
<path d="M59.9521 77.8116C59.9493 77.8116 59.9466 77.8116 59.9447 77.8116H59.9172C58.9586 77.808 58.1853 77.0289 58.189 76.0721C58.1936 75.1172 58.9696 74.3473 59.9245 74.3473H59.9328H59.9594C60.918 74.351 61.6913 75.1301 61.6876 76.0868C61.684 77.0408 60.907 77.8116 59.9521 77.8116Z" fill="#FFD02F"/>
<path d="M28.705 54.1159C28.2519 54.1159 27.7996 53.9401 27.4593 53.5904L8.82763 34.433C8.15982 33.7463 8.17542 32.6495 8.86341 31.9839C9.5514 31.3174 10.6503 31.3339 11.3182 32.0196L29.9507 51.177C30.6186 51.8628 30.602 52.9605 29.9141 53.6261C29.5765 53.9529 29.1408 54.1159 28.705 54.1159Z" fill="#946AD7"/>
<path d="M34.9796 60.5868C34.542 60.5868 34.1045 60.4229 33.7669 60.0933C33.0807 59.425 33.0679 58.3282 33.7375 57.6434L33.7568 57.6242C34.4264 56.9403 35.5254 56.9265 36.2115 57.5958C36.8977 58.2641 36.9105 59.3609 36.24 60.0457L36.2216 60.065C35.8813 60.412 35.4309 60.5868 34.9796 60.5868Z" fill="#FFD02F"/>
<path d="M39.077 64.8001C38.6413 64.8001 38.2055 64.6372 37.868 64.3103C37.1809 63.6438 37.1644 62.547 37.8322 61.8613L37.8505 61.8411C38.5193 61.1545 39.6182 61.1389 40.3053 61.8054C40.9933 62.4719 41.0098 63.5688 40.342 64.2554L40.3227 64.2746C39.9824 64.6244 39.5301 64.8001 39.077 64.8001Z" fill="#343B6F"/>
<path d="M91.1726 53.4348C90.7368 53.4348 90.3011 53.2727 89.9645 52.9459C89.2765 52.2794 89.26 51.1826 89.9278 50.4959L108.559 31.3394C109.227 30.6528 110.326 30.6363 111.014 31.3028C111.702 31.9693 111.719 33.0661 111.051 33.7527L92.4183 52.9092C92.078 53.259 91.6257 53.4348 91.1726 53.4348Z" fill="#FFAA00"/>
<path d="M84.8982 59.9066C84.4487 59.9066 84.0002 59.7335 83.6608 59.3884L83.6415 59.3692C82.9691 58.6862 82.9792 57.5894 83.6626 56.9192C84.3469 56.2481 85.4459 56.2582 86.1173 56.9403L86.1366 56.9595C86.8081 57.6425 86.7989 58.7393 86.1146 59.4094C85.777 59.7409 85.3376 59.9066 84.8982 59.9066Z" fill="#17B7CC"/>
<path d="M80.8003 64.1199C80.3472 64.1199 79.8949 63.9441 79.5546 63.5944L79.5353 63.5751C78.8684 62.8885 78.884 61.7917 79.572 61.1252C80.26 60.4587 81.359 60.4751 82.0268 61.1609L82.046 61.1801C82.7129 61.8667 82.6973 62.9636 82.0093 63.6301C81.6718 63.9569 81.236 64.1199 80.8003 64.1199Z" fill="#FFD02F"/>
<path d="M78.8227 27.3495C78.531 27.3495 78.2356 27.2763 77.965 27.1216C77.1321 26.6473 76.8422 25.589 77.3174 24.7586L90.6708 1.40258C91.1459 0.572193 92.2054 0.282886 93.0384 0.757129C93.8713 1.23137 94.1612 2.28972 93.686 3.12011L80.3326 26.4761C80.0124 27.0355 79.4263 27.3495 78.8227 27.3495Z" fill="#17B7CC"/>
<path d="M74.3307 35.2331C74.027 35.2331 73.7206 35.1544 73.4409 34.9878L73.4179 34.974C72.596 34.4833 72.3272 33.4195 72.8198 32.5982C73.3115 31.7761 74.3774 31.5097 75.2003 32.0004L75.2232 32.0141C76.046 32.5049 76.3139 33.5687 75.8222 34.3899C75.4966 34.9328 74.9214 35.2331 74.3307 35.2331Z" fill="#FFD02F"/>
<path d="M71.393 40.3703C71.0875 40.3703 70.7784 40.2897 70.4986 40.1212L70.4757 40.1075C69.6547 39.6131 69.3905 38.5484 69.8849 37.729C70.3803 36.9096 71.4471 36.6468 72.2681 37.1403L72.291 37.154C73.112 37.6484 73.3762 38.7132 72.8809 39.5326C72.5552 40.0718 71.981 40.3703 71.393 40.3703Z" fill="#17B7CC"/>
<path d="M41.087 27.3495C40.4834 27.3495 39.8972 27.0355 39.577 26.4752L26.2236 3.12006C25.7485 2.28876 26.0383 1.23133 26.8703 0.757082C27.7033 0.282839 28.7637 0.57123 29.2389 1.40253L42.5923 24.7576C43.0674 25.5889 42.7776 26.6473 41.9456 27.1215C41.674 27.2762 41.3787 27.3495 41.087 27.3495Z" fill="#343B6F"/>
<path d="M45.5795 35.2332C44.9906 35.2332 44.4155 34.9338 44.0898 34.3936C43.5963 33.5733 43.8623 32.5085 44.6833 32.016L44.7072 32.0023C45.5291 31.5097 46.595 31.7743 47.0885 32.5946C47.583 33.4149 47.317 34.4788 46.495 34.9722L46.4721 34.986C46.1923 35.1535 45.8841 35.2332 45.5795 35.2332Z" fill="#946AD7"/>
<path d="M48.5171 40.3702C47.93 40.3702 47.3576 40.0735 47.031 39.5352C46.5338 38.7167 46.7962 37.652 47.6153 37.1557L47.6383 37.142C48.4593 36.6467 49.5261 36.9076 50.0233 37.7261C50.5196 38.5446 50.2581 39.6094 49.4381 40.1056L49.4151 40.1193C49.1335 40.2896 48.8235 40.3702 48.5171 40.3702Z" fill="#FFD02F"/>
<path d="M102.656 83.7378L99.0105 86.4569C98.0656 87.1628 96.7438 86.4469 96.7741 85.2466L96.8924 80.6177C96.9043 80.1407 96.6878 79.6884 96.3126 79.4074L92.6709 76.6837C91.7261 75.9769 91.9792 74.4635 93.0993 74.122L97.418 72.8073C97.862 72.6718 98.2143 72.3194 98.3574 71.8662L99.7517 67.4634C100.113 66.3208 101.592 66.1011 102.253 67.0908L104.804 70.9076C105.068 71.3004 105.501 71.5357 105.965 71.5357L110.469 71.5384C111.637 71.5393 112.298 72.9172 111.586 73.8703L108.844 77.5434C108.562 77.9224 108.478 78.4195 108.621 78.8727L110.011 83.2782C110.371 84.4208 109.3 85.492 108.199 85.091L103.954 83.5446C103.517 83.3853 103.032 83.4577 102.656 83.7378Z" fill="#FFD02F"/>
<path d="M69.6301 120C68.6715 120 67.8945 119.224 67.8945 118.268C67.8945 104.854 73.2563 95.786 77.7539 90.5401C82.645 84.8372 87.5261 82.3314 87.7316 82.2271C88.5865 81.794 89.6313 82.1355 90.0643 82.9897C90.4973 83.8421 90.1569 84.883 89.3029 85.317C89.2295 85.3545 84.7237 87.6992 80.293 92.9094C74.369 99.8748 71.3657 108.407 71.3657 118.268C71.3657 119.224 70.5887 120 69.6301 120Z" fill="#946AD7"/>
<path d="M32.3728 93.1293L35.1357 96.7869C35.8531 97.7354 37.3162 97.4268 37.6125 96.265L38.7546 91.7853C38.872 91.3248 39.2031 90.9522 39.6398 90.7902L43.8759 89.2182C44.9749 88.8108 45.1418 87.2846 44.1594 86.6364L40.369 84.1352C39.9792 83.877 39.737 83.4385 39.7214 82.9624L39.5765 78.3335C39.5398 77.1332 38.1794 76.4979 37.2758 77.2587L33.7909 80.192C33.4313 80.4941 32.9507 80.5958 32.5058 80.463L28.1797 79.174C27.0578 78.8398 26.0497 79.9732 26.4744 81.092L28.1109 85.4069C28.2797 85.8509 28.2246 86.3526 27.9641 86.7472L25.4351 90.5787C24.7792 91.5729 25.5158 92.9078 26.6826 92.8391L31.1784 92.5718C31.6417 92.5443 32.0884 92.7531 32.3728 93.1293Z" fill="#FFD02F"/>
<path d="M50.2601 120C49.3015 120 48.5245 119.224 48.5245 118.268C48.5245 111.223 46.9559 104.777 43.8627 99.1112C43.404 98.2708 43.715 97.2189 44.5571 96.7611C45.3992 96.3033 46.4532 96.6137 46.9118 97.4532C50.2848 103.635 51.9956 110.638 51.9956 118.268C51.9956 119.224 51.2187 120 50.2601 120Z" fill="#FFD02F"/>
<path d="M71.372 13.1013C71.372 10.4563 69.286 8.31213 66.7138 8.31213C64.1407 8.31213 62.0557 10.4563 62.0557 13.1013C62.0557 15.7462 64.1407 17.8913 66.7138 17.8913C69.286 17.8913 71.372 15.7462 71.372 13.1013Z" fill="#FFD02F"/>
<path d="M95.8305 104.722C95.8305 102.077 93.7454 99.9325 91.1733 99.9325C88.6002 99.9325 86.5151 102.077 86.5151 104.722C86.5151 107.367 88.6002 109.511 91.1733 109.511C93.7454 109.511 95.8305 107.367 95.8305 104.722Z" fill="#343B6F"/>
<path d="M18.5819 105.669C18.5819 103.548 16.9096 101.829 14.8457 101.829C12.7826 101.829 11.1104 103.548 11.1104 105.669C11.1104 107.791 12.7826 109.511 14.8457 109.511C16.9096 109.511 18.5819 107.791 18.5819 105.669Z" fill="#17B7CC"/>
<path d="M28.9252 67.5825C28.9252 65.4612 27.2529 63.7418 25.1889 63.7418C23.1259 63.7418 21.4536 65.4612 21.4536 67.5825C21.4536 69.7037 23.1259 71.424 25.1889 71.424C27.2529 71.424 28.9252 69.7037 28.9252 67.5825Z" fill="#343B6F"/>
<path d="M57.7318 3.84155C57.7318 1.71936 56.0595 0 53.9965 0C51.9325 0 50.2603 1.71936 50.2603 3.84155C50.2603 5.96283 51.9325 7.68219 53.9965 7.68219C56.0595 7.68219 57.7318 5.96283 57.7318 3.84155Z" fill="#946AD7"/>
<path d="M93.9866 35.8319C93.9866 33.7106 92.3134 31.9904 90.2504 31.9904C88.1873 31.9904 86.5142 33.7106 86.5142 35.8319C86.5142 37.9532 88.1873 39.6725 90.2504 39.6725C92.3134 39.6725 93.9866 37.9532 93.9866 35.8319Z" fill="#946AD7"/>
<path d="M41.0861 7.67486C40.6504 7.67486 40.2146 7.51282 39.8771 7.18506C39.1891 6.51855 39.1726 5.42267 39.8404 4.73602L41.9988 2.51678C42.6666 1.83014 43.7656 1.81366 44.4527 2.48016C45.1406 3.14666 45.1572 4.24347 44.4894 4.93011L42.3318 7.14935C41.9915 7.49908 41.5383 7.67486 41.0861 7.67486Z" fill="#946AD7"/>
</g>
<defs>
<clipPath id="clip0">
<path d="M0 0H120V120H0V0Z" fill="white"/>
</clipPath>
</defs>
</svg>
