<svg width="24" height="24" viewBox="0 0 24 24" fill="none" xmlns="http://www.w3.org/2000/svg">
<path d="M16.8503 0H7.14973C3.20735 0 0 3.20735 0 7.14973V16.8503C0 20.7926 3.20735 24 7.14973 24H16.8503C20.7926 24 24 20.7926 24 16.8503V7.14973C24 3.20735 20.7926 0 16.8503 0ZM21.5856 16.8503C21.5856 19.4655 19.4655 21.5856 16.8503 21.5856H7.14973C4.5345 21.5856 2.4144 19.4655 2.4144 16.8503V7.14973C2.4144 4.53446 4.5345 2.4144 7.14973 2.4144H16.8503C19.4655 2.4144 21.5856 4.53446 21.5856 7.14973V16.8503Z" fill="url(#paint0_linear)"/>
<path d="M12.0002 5.79321C8.57754 5.79321 5.79297 8.57778 5.79297 12.0004C5.79297 15.4231 8.57754 18.2077 12.0002 18.2077C15.4229 18.2077 18.2075 15.4231 18.2075 12.0004C18.2075 8.57774 15.4229 5.79321 12.0002 5.79321ZM12.0002 15.7933C9.90547 15.7933 8.20737 14.0952 8.20737 12.0005C8.20737 9.90571 9.90551 8.20761 12.0002 8.20761C14.095 8.20761 15.7931 9.90571 15.7931 12.0005C15.7931 14.0952 14.0949 15.7933 12.0002 15.7933Z" fill="url(#paint1_linear)"/>
<path d="M18.2193 7.32658C19.0408 7.32658 19.7067 6.66065 19.7067 5.83919C19.7067 5.01773 19.0408 4.35181 18.2193 4.35181C17.3979 4.35181 16.7319 5.01773 16.7319 5.83919C16.7319 6.66065 17.3979 7.32658 18.2193 7.32658Z" fill="url(#paint2_linear)"/>
<defs>
<linearGradient id="paint0_linear" x1="12" y1="23.9301" x2="12" y2="0.186412" gradientUnits="userSpaceOnUse">
<stop stop-color="#E09B3D"/>
<stop offset="0.3" stop-color="#C74C4D"/>
<stop offset="0.6" stop-color="#C21975"/>
<stop offset="1" stop-color="#7024C4"/>
</linearGradient>
<linearGradient id="paint1_linear" x1="12.0002" y1="23.9306" x2="12.0002" y2="0.186881" gradientUnits="userSpaceOnUse">
<stop stop-color="#E09B3D"/>
<stop offset="0.3" stop-color="#C74C4D"/>
<stop offset="0.6" stop-color="#C21975"/>
<stop offset="1" stop-color="#7024C4"/>
</linearGradient>
<linearGradient id="paint2_linear" x1="18.2193" y1="23.93" x2="18.2193" y2="0.186256" gradientUnits="userSpaceOnUse">
<stop stop-color="#E09B3D"/>
<stop offset="0.3" stop-color="#C74C4D"/>
<stop offset="0.6" stop-color="#C21975"/>
<stop offset="1" stop-color="#7024C4"/>
</linearGradient>
</defs>
</svg>
