<svg width="310" height="401" viewBox="0 0 310 401" fill="none" xmlns="http://www.w3.org/2000/svg">
<g clip-path="url(#clip0)">
<path d="M263.909 359.802C179.46 337.174 137.982 218.13 156.546 148.848C175.11 79.5667 274.976 34.9915 359.425 57.6197C443.875 80.2479 480.929 161.511 462.365 230.792C451.155 272.628 424.181 300.914 371.785 315.501C319.389 330.088 297.364 368.766 263.909 359.802Z" fill="#946AD7"/>
<path fill-rule="evenodd" clip-rule="evenodd" d="M307.318 31.4358C305.739 31.4358 304.46 32.7152 304.46 34.2935C304.46 35.8718 305.739 37.1513 307.318 37.1513C308.896 37.1513 310.175 35.8718 310.175 34.2935C310.175 32.7152 308.896 31.4358 307.318 31.4358ZM302.554 57.1559C302.554 55.5777 303.834 54.2982 305.412 54.2982C306.99 54.2982 308.27 55.5777 308.27 57.1559C308.27 58.7342 306.99 60.0137 305.412 60.0137C303.834 60.0137 302.554 58.7342 302.554 57.1559ZM290.171 63.821C290.171 62.2427 291.45 60.9632 293.029 60.9632C294.607 60.9632 295.886 62.2427 295.886 63.821C295.886 65.3993 294.607 66.6787 293.029 66.6787C291.45 66.6787 290.171 65.3993 290.171 63.821ZM291.124 45.7266C291.124 44.1484 292.403 42.8689 293.982 42.8689C295.56 42.8689 296.84 44.1484 296.84 45.7266C296.84 47.3049 295.56 48.5844 293.982 48.5844C292.403 48.5844 291.124 47.3049 291.124 45.7266ZM274.93 18.1019C273.352 18.1019 272.073 19.3814 272.073 20.9597C272.073 22.5379 273.352 23.8174 274.93 23.8174C276.509 23.8174 277.788 22.5379 277.788 20.9597C277.788 19.3814 276.509 18.1019 274.93 18.1019ZM294.934 12.3825C294.934 10.8042 296.214 9.52471 297.792 9.52471C299.37 9.52471 300.65 10.8042 300.65 12.3825C300.65 13.9607 299.37 15.2402 297.792 15.2402C296.214 15.2402 294.934 13.9607 294.934 12.3825ZM293.982 23.8137C292.403 23.8137 291.124 25.0932 291.124 26.6715C291.124 28.2497 292.403 29.5292 293.982 29.5292C295.56 29.5292 296.84 28.2497 296.84 26.6715C296.84 25.0932 295.56 23.8137 293.982 23.8137ZM275.882 2.85772C275.882 1.27943 277.161 -2.43313e-05 278.74 -2.42623e-05C280.318 -2.41933e-05 281.597 1.27943 281.597 2.85772C281.597 4.436 280.318 5.71545 278.74 5.71545C277.161 5.71545 275.882 4.436 275.882 2.85772ZM271.119 85.7359C269.541 85.7359 268.262 87.0154 268.262 88.5937C268.262 90.1719 269.541 91.4514 271.119 91.4514C272.698 91.4514 273.977 90.1719 273.977 88.5937C273.977 87.0154 272.698 85.7359 271.119 85.7359ZM263.498 72.3963C263.498 70.818 264.778 69.5386 266.356 69.5386C267.934 69.5386 269.214 70.818 269.214 72.3963C269.214 73.9746 267.934 75.254 266.356 75.254C264.778 75.254 263.498 73.9746 263.498 72.3963ZM284.456 72.3964C282.878 72.3964 281.598 73.6758 281.598 75.2541C281.598 76.8324 282.878 78.1118 284.456 78.1118C286.034 78.1118 287.314 76.8324 287.314 75.2541C287.314 73.6758 286.034 72.3964 284.456 72.3964ZM297.791 77.1606C297.791 75.5823 299.07 74.3028 300.649 74.3028C302.227 74.3028 303.506 75.5823 303.506 77.1606C303.506 78.7388 302.227 80.0183 300.649 80.0183C299.07 80.0183 297.791 78.7388 297.791 77.1606ZM289.219 83.8276C287.641 83.8276 286.362 85.107 286.362 86.6853C286.362 88.2636 287.641 89.543 289.219 89.543C290.798 89.543 292.077 88.2636 292.077 86.6853C292.077 85.107 290.798 83.8276 289.219 83.8276ZM299.697 94.3055C299.697 92.7272 300.976 91.4477 302.554 91.4477C304.133 91.4477 305.412 92.7272 305.412 94.3055C305.412 95.8838 304.133 97.1632 302.554 97.1632C300.976 97.1632 299.697 95.8838 299.697 94.3055ZM277.789 56.2009C276.211 56.2009 274.931 57.4803 274.931 59.0586C274.931 60.6369 276.211 61.9164 277.789 61.9164C279.367 61.9164 280.647 60.6369 280.647 59.0586C280.647 57.4803 279.367 56.2009 277.789 56.2009ZM275.882 39.0559C275.882 37.4776 277.161 36.1982 278.74 36.1982C280.318 36.1982 281.597 37.4776 281.597 39.0559C281.597 40.6342 280.318 41.9136 278.74 41.9136C277.161 41.9136 275.882 40.6342 275.882 39.0559ZM263.5 46.6799C261.922 46.6799 260.642 47.9594 260.642 49.5377C260.642 51.116 261.922 52.3954 263.5 52.3954C265.078 52.3954 266.358 51.116 266.358 49.5377C266.358 47.9594 265.078 46.6799 263.5 46.6799ZM251.116 63.821C251.116 62.2427 252.395 60.9632 253.974 60.9632C255.552 60.9632 256.831 62.2427 256.831 63.821C256.831 65.3993 255.552 66.6787 253.974 66.6787C252.395 66.6787 251.116 65.3993 251.116 63.821ZM237.781 73.3534C236.203 73.3534 234.923 74.6328 234.923 76.2111C234.923 77.7894 236.203 79.0689 237.781 79.0689C239.359 79.0689 240.639 77.7894 240.639 76.2111C240.639 74.6328 239.359 73.3534 237.781 73.3534ZM216.824 80.0165C216.824 78.4382 218.104 77.1587 219.682 77.1587C221.26 77.1587 222.54 78.4382 222.54 80.0165C222.54 81.5947 221.26 82.8742 219.682 82.8742C218.104 82.8742 216.824 81.5947 216.824 80.0165ZM197.773 76.2093C196.194 76.2093 194.915 77.4887 194.915 79.067C194.915 80.6453 196.194 81.9248 197.773 81.9248C199.351 81.9248 200.63 80.6453 200.63 79.067C200.63 77.4887 199.351 76.2093 197.773 76.2093ZM160.62 45.7266C160.62 44.1484 161.9 42.8689 163.478 42.8689C165.056 42.8689 166.336 44.1484 166.336 45.7266C166.336 47.3049 165.056 48.5844 163.478 48.5844C161.9 48.5844 160.62 47.3049 160.62 45.7266ZM215.87 60.9632C214.292 60.9632 213.012 62.2427 213.012 63.821C213.012 65.3993 214.292 66.6787 215.87 66.6787C217.448 66.6787 218.728 65.3993 218.728 63.821C218.728 62.2427 217.448 60.9632 215.87 60.9632ZM228.254 60.9651C228.254 59.3868 229.534 58.1073 231.112 58.1073C232.69 58.1073 233.97 59.3868 233.97 60.9651C233.97 62.5434 232.69 63.8228 231.112 63.8228C229.534 63.8228 228.254 62.5434 228.254 60.9651ZM242.541 52.3936C240.963 52.3936 239.684 53.6731 239.684 55.2514C239.684 56.8297 240.963 58.1091 242.541 58.1091C244.12 58.1091 245.399 56.8297 245.399 55.2514C245.399 53.6731 244.12 52.3936 242.541 52.3936ZM237.78 39.0559C237.78 37.4776 239.059 36.1982 240.638 36.1982C242.216 36.1982 243.495 37.4776 243.495 39.0559C243.495 40.6342 242.216 41.9136 240.638 41.9136C239.059 41.9136 237.78 40.6342 237.78 39.0559ZM260.64 33.3404C259.062 33.3404 257.783 34.6198 257.783 36.1981C257.783 37.7764 259.062 39.0558 260.64 39.0558C262.219 39.0558 263.498 37.7764 263.498 36.1981C263.498 34.6198 262.219 33.3404 260.64 33.3404ZM248.259 20.9597C248.259 19.3814 249.538 18.1019 251.117 18.1019C252.695 18.1019 253.974 19.3814 253.974 20.9597C253.974 22.5379 252.695 23.8174 251.117 23.8174C249.538 23.8174 248.259 22.5379 248.259 20.9597ZM263.5 9.52472C261.922 9.52472 260.642 10.8042 260.642 12.3825C260.642 13.9607 261.922 15.2402 263.5 15.2402C265.078 15.2402 266.358 13.9607 266.358 12.3825C266.358 10.8042 265.078 9.52472 263.5 9.52472ZM234.923 24.7669C234.923 23.1886 236.203 21.9092 237.781 21.9092C239.359 21.9092 240.639 23.1886 240.639 24.7669C240.639 26.3452 239.359 27.6246 237.781 27.6246C236.203 27.6246 234.923 26.3452 234.923 24.7669ZM222.538 15.246C220.959 15.246 219.68 16.5255 219.68 18.1038C219.68 19.682 220.959 20.9615 222.538 20.9615C224.116 20.9615 225.395 19.682 225.395 18.1038C225.395 16.5255 224.116 15.246 222.538 15.246ZM232.063 12.3825C232.063 10.8042 233.343 9.52472 234.921 9.52472C236.499 9.52472 237.779 10.8042 237.779 12.3825C237.779 13.9607 236.499 15.2402 234.921 15.2402C233.343 15.2402 232.063 13.9607 232.063 12.3825ZM264.453 23.8137C262.875 23.8137 261.596 25.0932 261.596 26.6715C261.596 28.2498 262.875 29.5292 264.453 29.5292C266.032 29.5292 267.311 28.2498 267.311 26.6715C267.311 25.0932 266.032 23.8137 264.453 23.8137ZM220.634 50.489C220.634 48.9107 221.914 47.6313 223.492 47.6313C225.07 47.6313 226.35 48.9107 226.35 50.489C226.35 52.0673 225.07 53.3467 223.492 53.3467C221.914 53.3467 220.634 52.0673 220.634 50.489ZM227.302 31.4358C225.724 31.4358 224.444 32.7153 224.444 34.2935C224.444 35.8718 225.724 37.1513 227.302 37.1513C228.88 37.1513 230.16 35.8718 230.16 34.2935C230.16 32.7153 228.88 31.4358 227.302 31.4358ZM206.345 43.8202C206.345 42.2419 207.625 40.9624 209.203 40.9624C210.781 40.9624 212.061 42.2419 212.061 43.8202C212.061 45.3985 210.781 46.6779 209.203 46.6779C207.625 46.6779 206.345 45.3985 206.345 43.8202ZM189.197 21.9092C187.619 21.9092 186.34 23.1886 186.34 24.7669C186.34 26.3452 187.619 27.6246 189.197 27.6246C190.776 27.6246 192.055 26.3452 192.055 24.7669C192.055 23.1886 190.776 21.9092 189.197 21.9092ZM173.003 14.2908C173.003 12.7125 174.282 11.4331 175.861 11.4331C177.439 11.4331 178.718 12.7125 178.718 14.2908C178.718 15.8691 177.439 17.1486 175.861 17.1486C174.282 17.1486 173.003 15.8691 173.003 14.2908ZM211.109 25.7202C209.531 25.7202 208.252 26.9996 208.252 28.5779C208.252 30.1562 209.531 31.4357 211.109 31.4357C212.688 31.4357 213.967 30.1562 213.967 28.5779C213.967 26.9996 212.688 25.7202 211.109 25.7202ZM199.675 17.1467C199.675 15.5684 200.955 14.289 202.533 14.289C204.111 14.289 205.391 15.5684 205.391 17.1467C205.391 18.725 204.111 20.0045 202.533 20.0045C200.955 20.0045 199.675 18.725 199.675 17.1467ZM193.961 59.0644C192.382 59.0644 191.103 60.3438 191.103 61.9221C191.103 63.5004 192.382 64.7799 193.961 64.7799C195.539 64.7799 196.818 63.5004 196.818 61.9221C196.818 60.3438 195.539 59.0644 193.961 59.0644ZM178.719 52.3936C178.719 50.8153 179.999 49.5358 181.577 49.5358C183.155 49.5358 184.435 50.8153 184.435 52.3936C184.435 53.9719 183.155 55.2513 181.577 55.2513C179.999 55.2513 178.719 53.9719 178.719 52.3936ZM193.961 36.1982C192.382 36.1982 191.103 37.4776 191.103 39.0559C191.103 40.6342 192.382 41.9136 193.961 41.9136C195.539 41.9136 196.818 40.6342 196.818 39.0559C196.818 37.4776 195.539 36.1982 193.961 36.1982ZM173.956 38.1046C173.956 36.5263 175.236 35.2468 176.814 35.2468C178.392 35.2468 179.672 36.5263 179.672 38.1046C179.672 39.6829 178.392 40.9623 176.814 40.9623C175.236 40.9623 173.956 39.6829 173.956 38.1046ZM167.288 23.8137C165.71 23.8137 164.43 25.0932 164.43 26.6715C164.43 28.2497 165.71 29.5292 167.288 29.5292C168.866 29.5292 170.146 28.2497 170.146 26.6715C170.146 25.0932 168.866 23.8137 167.288 23.8137ZM153 37.1494C153 35.5711 154.28 34.2917 155.858 34.2917C157.436 34.2917 158.716 35.5711 158.716 37.1494C158.716 38.7277 157.436 40.0072 155.858 40.0072C154.28 40.0072 153 38.7277 153 37.1494Z" fill="white"/>
<path d="M-7.62939e-06 237C-7.62939e-06 270.137 39.5137 297 66.699 297C93.8843 297 120 264.812 120 231.675C120 198.538 93.8843 177 66.699 177C50.2832 177 37.2815 184.101 26.8013 201.852C16.321 219.604 -7.62939e-06 223.873 -7.62939e-06 237Z" fill="white"/>
</g>
<defs>
<clipPath id="clip0">
<rect width="310" height="401" fill="white"/>
</clipPath>
</defs>
</svg>
